<?xml version="1.0" encoding="utf-8"?>
<!-- Generator: Adobe Illustrator 25.2.1, SVG Export Plug-In . SVG Version: 6.00 Build 0)  -->
<svg version="1.1" id="Layer_1" xmlns="http://www.w3.org/2000/svg" xmlns:xlink="http://www.w3.org/1999/xlink" x="0px" y="0px"
	 viewBox="0 0 300 150" style="enable-background:new 0 0 300 150;" xml:space="preserve">
<style type="text/css">
	.st0{fill:#FFFFFF;stroke:#000000;stroke-width:2;stroke-miterlimit:10;}
</style>
<g>
	<path d="M135.85,56.3c-11.87,3.5-8.46,35.7,7.82,29.57C159.96,79.74,147.72,52.8,135.85,56.3z"/>
	<path d="M149.87,84.94c0,0,1.48-13.24,12.05-6.02c10.42,7.12,10.57-17.42,10.57-17.42s7.23,30.66-25.41,33.52
		c0,0-25.59,9.62-38.2-23.33c0,0,11.68,20.47,16.69,14.24c5.1-6.35,10.95,2.07,10.95,2.07S144.53,91.08,149.87,84.94z"/>
	<path d="M171.9,60.82c0,0,1.53,3.02,6.65,1.01c0,0-5.56,1.37-5.84,5.44S171.9,60.82,171.9,60.82z"/>
	<path d="M109.2,71.32c0,0,0.34,3.35-4.17,4.46c0,0,4.52-1.88,6.61,1.37C113.73,80.39,109.2,71.32,109.2,71.32z"/>
	<path d="M115.38,73.27l0.78-11.76l8.43,7.45C124.58,68.96,117.84,67.26,115.38,73.27z"/>
	<line class="st0" x1="118.51" y1="67.39" x2="120.82" y2="73.27"/>
	<path d="M154.17,61.87c0,0-1.66-4.98,0.96-7.34c0,0,4.28-3.04,3.96,4.54c0,0,0.08,0.82-0.83,2.8c0,0-0.3,1.02,0.57,2.64
		c0,0,0.98,3.46-1.28,3.69c0,0-3.33,0.6-2.49-3.22C155.06,64.99,155.41,63.58,154.17,61.87z"/>
	<path d="M165.04,58.14c0,0,1.66-4.98-0.96-7.34c0,0-4.28-3.04-3.96,4.54c0,0-0.08,0.82,0.83,2.8c0,0,0.3,1.02-0.57,2.64
		c0,0-0.98,3.46,1.28,3.69c0,0,3.33,0.6,2.49-3.22C164.15,61.26,163.8,59.85,165.04,58.14z"/>
</g>
</svg>
