<?xml version="1.0" encoding="utf-8"?>
<!-- Generator: Adobe Illustrator 25.2.1, SVG Export Plug-In . SVG Version: 6.00 Build 0)  -->
<svg version="1.1" id="Layer_1" xmlns="http://www.w3.org/2000/svg" xmlns:xlink="http://www.w3.org/1999/xlink" x="0px" y="0px"
	 viewBox="0 0 864 504" style="enable-background:new 0 0 864 504;" xml:space="preserve">
<style type="text/css">
	.st0{fill:#B1DFDA;stroke:#000000;stroke-miterlimit:10;}
	.st1{fill:#911942;stroke:#000000;stroke-miterlimit:10;}
	.st2{fill:#F16994;stroke:#000000;stroke-miterlimit:10;}
	.st3{fill:#E5BD88;stroke:#000000;stroke-miterlimit:10;}
	.st4{fill:#B1A393;stroke:#000000;stroke-miterlimit:10;}
	.st5{fill:#A6BCB0;stroke:#000000;stroke-miterlimit:10;}
	.st6{fill:#3D2512;stroke:#000000;stroke-miterlimit:10;}
	.st7{fill:#286E37;stroke:#000000;stroke-miterlimit:10;}
	.st8{fill:#F38DB3;stroke:#000000;stroke-miterlimit:10;}
	.st9{fill:#EC7D32;stroke:#000000;stroke-miterlimit:10;}
	.st10{fill:#ACABA9;stroke:#000000;stroke-miterlimit:10;}
	.st11{fill:#0F1039;stroke:#000000;stroke-miterlimit:10;}
	.st12{fill:#CB3727;stroke:#000000;stroke-miterlimit:10;}
	.st13{fill:#6B87C4;stroke:#000000;stroke-miterlimit:10;}
	.st14{fill:#D68C79;stroke:#000000;stroke-miterlimit:10;}
	.st15{fill:#FACD4E;stroke:#000000;stroke-miterlimit:10;}
	.st16{fill:#AFC6E7;stroke:#000000;stroke-miterlimit:10;}
	.st17{fill:#F99D42;stroke:#000000;stroke-miterlimit:10;}
	.st18{fill:#AA2359;stroke:#000000;stroke-miterlimit:10;}
	.st19{fill:#F05152;stroke:#000000;stroke-miterlimit:10;}
	.st20{fill:#8BD4E2;stroke:#000000;stroke-miterlimit:10;}
	.st21{fill:#4E1025;stroke:#000000;stroke-miterlimit:10;}
	.st22{fill:#344DA1;stroke:#000000;stroke-miterlimit:10;}
	.st23{fill:#46A4DC;stroke:#000000;stroke-miterlimit:10;}
	.st24{fill:#F4DFDB;stroke:#000000;stroke-miterlimit:10;}
	.st25{opacity:0.75;}
	.st26{opacity:0.43;}
	.st27{fill:#F4DFDB;}
	.st28{opacity:0.2;}
	.st29{fill:#862572;}
	.st30{display:none;opacity:0.18;fill:#344DA1;}
</style>
<g>
	<rect x="1089.6" y="359.48" class="st0" width="32.68" height="119.37"/>
	<rect x="970.98" y="359.48" class="st1" width="29.65" height="119.37"/>
	<rect x="1000.63" y="359.48" class="st2" width="29.65" height="119.37"/>
	<rect x="1059.95" y="359.48" class="st3" width="29.65" height="119.37"/>
	<rect x="1030.29" y="359.48" class="st4" width="29.65" height="119.37"/>
</g>
<g>
	<rect x="1090.87" y="199.79" class="st5" width="32.68" height="119.37"/>
	<rect x="972.26" y="199.79" class="st6" width="29.65" height="119.37"/>
	<rect x="1001.9" y="199.79" class="st7" width="29.65" height="119.37"/>
	<rect x="1061.23" y="199.79" class="st8" width="29.65" height="119.37"/>
	<rect x="1031.56" y="199.79" class="st9" width="29.65" height="119.37"/>
</g>
<g>
	<rect x="1089.89" y="45.19" class="st10" width="32.68" height="119.37"/>
	<rect x="972.27" y="45.19" class="st11" width="29.65" height="119.37"/>
	<rect x="1001.92" y="45.19" class="st12" width="29.65" height="119.37"/>
	<rect x="1030.58" y="45.19" class="st13" width="29.65" height="119.37"/>
	<rect x="1060.23" y="45.19" class="st14" width="29.65" height="119.37"/>
</g>
<g>
	<rect x="1245.17" y="359.48" class="st15" width="32.68" height="119.37"/>
	<rect x="1157.21" y="359.48" class="st11" width="29.65" height="119.37"/>
	<rect x="1186.86" y="359.48" class="st12" width="29.65" height="119.37"/>
	<rect x="1215.52" y="359.48" class="st9" width="29.65" height="119.37"/>
	<rect x="1277.85" y="359.48" class="st16" width="29.65" height="119.37"/>
</g>
<g>
	<rect x="1245.17" y="199.79" class="st17" width="32.68" height="119.37"/>
	<rect x="1157.21" y="199.79" class="st11" width="29.65" height="119.37"/>
	<rect x="1186.86" y="199.79" class="st18" width="29.65" height="119.37"/>
	<rect x="1215.52" y="199.79" class="st19" width="29.65" height="119.37"/>
	<rect x="1277.85" y="199.79" class="st16" width="29.65" height="119.37"/>
</g>
<rect x="1243.16" y="45.19" class="st20" width="32.68" height="119.37"/>
<rect x="1155.2" y="45.19" class="st21" width="29.65" height="119.37"/>
<rect x="1184.85" y="45.19" class="st22" width="29.65" height="119.37"/>
<rect x="1213.51" y="45.19" class="st23" width="29.65" height="119.37"/>
<rect x="1275.84" y="45.19" class="st24" width="29.65" height="119.37"/>
<rect class="st10" width="864" height="504"/>
<g class="st25">
	<g class="st26">
		<path class="st27" d="M783.57,228.17c0,0-20.97-17.95-35.89-9.21c0,0-20.54,15.84,15.57,28.75c0,0,3.74,1.95,14.36,1.16
			c0,0,5.24,0.42,11.56,7.97c0,0,14.82,11.58,19.22,0.61c0,0,7.67-15.71-11.48-18.8C796.91,238.64,789.78,237.74,783.57,228.17z"/>
		<path class="st27" d="M744.7,275.32c0,0-25.82-1.13-33.1-18.91c0,0-8.05-27.5,27.12-11.35c0,0,3.96,1.19,11.94,9.56
			c0,0,4.36,3.49,13.24,2.15c0,0,17.68,1.67,15.49,13.54c0,0-2.04,18-18.76,6.47C760.63,276.78,754.54,272.29,744.7,275.32z"/>
	</g>
	<g class="st26">
		<path class="st27" d="M703.14,195.46c0,0-20.97-17.95-35.89-9.21c0,0-20.54,15.84,15.57,28.75c0,0,3.74,1.95,14.36,1.16
			c0,0,5.24,0.42,11.56,7.97c0,0,14.82,11.58,19.22,0.61c0,0,7.67-15.71-11.48-18.8C716.47,205.93,709.34,205.03,703.14,195.46z"/>
		<path class="st27" d="M664.26,242.61c0,0-25.82-1.13-33.1-18.91c0,0-8.05-27.5,27.12-11.35c0,0,3.96,1.19,11.94,9.56
			c0,0,4.36,3.49,13.24,2.14c0,0,17.68,1.67,15.49,13.54c0,0-2.04,18-18.76,6.47C680.2,244.07,674.1,239.58,664.26,242.61z"/>
	</g>
	<g class="st26">
		<path class="st27" d="M626.92,166.91c0,0-20.97-17.95-35.89-9.21c0,0-20.54,15.84,15.57,28.75c0,0,3.74,1.95,14.36,1.16
			c0,0,5.24,0.42,11.56,7.97c0,0,14.82,11.58,19.22,0.61c0,0,7.67-15.71-11.48-18.8C640.25,177.39,633.12,176.49,626.92,166.91z"/>
		<path class="st27" d="M588.04,214.07c0,0-25.82-1.13-33.1-18.91c0,0-8.05-27.5,27.12-11.35c0,0,3.96,1.19,11.94,9.56
			c0,0,4.36,3.49,13.24,2.15c0,0,17.68,1.67,15.49,13.54c0,0-2.04,18-18.76,6.47C603.97,215.53,597.88,211.04,588.04,214.07z"/>
	</g>
	<g class="st26">
		<path class="st27" d="M545.85,136.92c0,0-20.97-17.95-35.89-9.21c0,0-20.54,15.84,15.57,28.75c0,0,3.74,1.95,14.36,1.16
			c0,0,5.24,0.42,11.56,7.97c0,0,14.82,11.58,19.22,0.61c0,0,7.67-15.71-11.48-18.8C559.19,147.4,552.06,146.5,545.85,136.92z"/>
		<path class="st27" d="M506.98,184.08c0,0-25.82-1.13-33.1-18.91c0,0-8.05-27.5,27.12-11.35c0,0,3.96,1.19,11.94,9.56
			c0,0,4.36,3.49,13.24,2.14c0,0,17.68,1.67,15.49,13.54c0,0-2.04,18-18.76,6.47C522.91,185.54,516.82,181.05,506.98,184.08z"/>
	</g>
	<g class="st26">
		<path class="st27" d="M465.42,104.21c0,0-20.97-17.95-35.89-9.21c0,0-20.54,15.84,15.57,28.75c0,0,3.74,1.95,14.36,1.16
			c0,0,5.24,0.42,11.56,7.97c0,0,14.82,11.58,19.22,0.61c0,0,7.67-15.71-11.48-18.8C478.75,114.69,471.62,113.79,465.42,104.21z"/>
		<path class="st27" d="M426.54,151.37c0,0-25.82-1.13-33.1-18.91c0,0-8.05-27.5,27.12-11.35c0,0,3.96,1.19,11.94,9.56
			c0,0,4.36,3.49,13.24,2.14c0,0,17.68,1.67,15.49,13.54c0,0-2.04,18-18.76,6.47C442.47,152.83,436.38,148.34,426.54,151.37z"/>
	</g>
	<g class="st26">
		<path class="st27" d="M389.19,75.67c0,0-20.97-17.95-35.89-9.21c0,0-20.54,15.84,15.57,28.75c0,0,3.74,1.95,14.36,1.16
			c0,0,5.24,0.42,11.56,7.97c0,0,14.82,11.58,19.22,0.61c0,0,7.67-15.71-11.48-18.8C402.53,86.15,395.4,85.25,389.19,75.67z"/>
		<path class="st27" d="M350.32,122.83c0,0-25.82-1.13-33.1-18.91c0,0-8.05-27.5,27.12-11.35c0,0,3.96,1.19,11.94,9.56
			c0,0,4.36,3.49,13.24,2.14c0,0,17.68,1.67,15.49,13.54c0,0-2.04,18-18.76,6.47C366.25,124.29,360.16,119.79,350.32,122.83z"/>
	</g>
	<g class="st26">
		<path class="st27" d="M307.64,49.27c0,0-20.97-17.95-35.89-9.21c0,0-20.54,15.84,15.57,28.75c0,0,3.74,1.95,14.36,1.16
			c0,0,5.24,0.42,11.56,7.97c0,0,14.82,11.58,19.22,0.61c0,0,7.67-15.71-11.48-18.8C320.97,59.75,313.84,58.85,307.64,49.27z"/>
		<path class="st27" d="M268.76,96.43c0,0-25.82-1.13-33.1-18.91c0,0-8.05-27.5,27.12-11.35c0,0,3.96,1.19,11.94,9.56
			c0,0,4.36,3.49,13.24,2.14c0,0,17.68,1.67,15.49,13.54c0,0-2.04,18-18.76,6.47C284.7,97.89,278.6,93.4,268.76,96.43z"/>
	</g>
	<g class="st26">
		<path class="st27" d="M227.2,16.56c0,0-20.97-17.95-35.89-9.21c0,0-20.54,15.84,15.57,28.75c0,0,3.74,1.95,14.36,1.16
			c0,0,5.24,0.42,11.56,7.97c0,0,14.82,11.58,19.22,0.61c0,0,7.67-15.71-11.48-18.8C240.54,27.04,233.41,26.14,227.2,16.56z"/>
		<path class="st27" d="M188.32,63.72c0,0-25.82-1.13-33.1-18.91c0,0-8.05-27.5,27.12-11.35c0,0,3.96,1.19,11.94,9.56
			c0,0,4.36,3.49,13.24,2.14c0,0,17.68,1.67,15.49,13.54c0,0-2.04,18-18.76,6.47C204.26,65.18,198.16,60.69,188.32,63.72z"/>
	</g>
	<g class="st26">
		<path class="st27" d="M150.98-11.98c0,0-20.97-17.95-35.89-9.21c0,0-20.54,15.84,15.57,28.75c0,0,3.74,1.95,14.36,1.16
			c0,0,5.24,0.42,11.56,7.97c0,0,14.82,11.58,19.22,0.61c0,0,7.67-15.71-11.48-18.8C164.32-1.5,157.19-2.4,150.98-11.98z"/>
		<path class="st27" d="M112.1,35.18c0,0-25.82-1.13-33.1-18.91c0,0-8.05-27.5,27.12-11.35c0,0,3.96,1.19,11.94,9.56
			c0,0,4.36,3.49,13.24,2.14c0,0,17.68,1.67,15.49,13.54c0,0-2.04,18-18.76,6.47C128.04,36.64,121.94,32.15,112.1,35.18z"/>
	</g>
	<g class="st26">
		<path class="st27" d="M863,257.15c0,0-20.97-17.95-35.89-9.21c0,0-20.54,15.84,15.57,28.75c0,0,3.74,1.95,14.36,1.16
			c0,0,5.24,0.42,11.56,7.97c0,0,14.82,11.58,19.22,0.61c0,0,7.67-15.71-11.48-18.8C876.34,267.62,869.21,266.73,863,257.15z"/>
		<path class="st27" d="M824.12,304.31c0,0-25.82-1.13-33.1-18.91c0,0-8.05-27.5,27.12-11.35c0,0,3.96,1.19,11.94,9.56
			c0,0,4.36,3.49,13.24,2.14c0,0,17.68,1.67,15.49,13.54c0,0-2.04,18-18.76,6.47C840.06,305.77,833.96,301.27,824.12,304.31z"/>
	</g>
</g>
<g class="st25">
	<g class="st28">
		<path class="st29" d="M-82.73,383.61c0,0,52.22-111.47,140.42-111.75c0,0,130.49,13.63-2.13,139.46c0,0-12.27,15.29-62.18,35.41
			c0,0-22.7,12.92-33.36,54.36c0,0-39.52,74.73-85.46,43.94c0,0-71.99-41.07,7.28-93.99C-118.16,451.06-88.05,432.28-82.73,383.61z"
			/>
		<path class="st29" d="M205.02,465.95c0,0,114.06-60.18,104.74-141.33c0,0-28.86-118.54-149.58,17.16c0,0-15.09,12.95-31.26,61.06
			c0,0-11.41,22.29-54.77,36.61c0,0-75.98,44.49-37.89,83.39c0,0,51.96,61.74,100.17-16.94
			C136.43,505.89,153.32,476.15,205.02,465.95z"/>
	</g>
	<g class="st28">
		<path class="st29" d="M166.79,166.78c0,0,35.12-65.67,94.43-65.84c0,0,87.75,8.03-1.43,82.16c0,0-8.25,9.01-41.82,20.86
			c0,0-15.27,7.61-22.44,32.03c0,0-26.57,44.03-57.47,25.89c0,0-48.41-24.2,4.89-55.37C142.97,206.51,163.21,195.45,166.79,166.78z"
			/>
		<path class="st29" d="M366.62,215.82c0,0,76.7-35.46,70.44-83.27c0,0-19.41-69.84-100.59,10.11c0,0-10.15,7.63-21.02,35.97
			c0,0-7.67,13.13-36.83,21.57c0,0-51.09,26.21-25.48,49.13c0,0,34.95,36.37,67.36-9.98C320.5,239.35,331.86,221.83,366.62,215.82z"
			/>
	</g>
	<g class="st28">
		<path class="st29" d="M339.87,32.68c0,0,21.25-33.36,57.14-33.44c0,0,53.1,4.08-0.87,41.74c0,0-4.99,4.58-25.31,10.6
			c0,0-9.24,3.87-13.58,16.27c0,0-16.08,22.37-34.78,13.15c0,0-29.3-12.29,2.96-28.13C325.45,52.87,337.7,47.25,339.87,32.68z"/>
		<path class="st29" d="M463.05,54c0,0,46.42-18.01,42.62-42.3c0,0-11.75-35.47-60.87,5.13c0,0-6.14,3.88-12.72,18.27
			c0,0-4.64,6.67-22.29,10.96c0,0-30.92,13.32-15.42,24.96c0,0,21.15,18.48,40.77-5.07C435.14,65.96,442.01,57.06,463.05,54z"/>
	</g>
</g>
<rect x="-8.53" y="-6.74" class="st30" width="880.34" height="517.79"/>
</svg>
