<?xml version="1.0" encoding="utf-8"?>
<!-- Generator: Adobe Illustrator 23.0.4, SVG Export Plug-In . SVG Version: 6.00 Build 0)  -->
<svg version="1.1" id="Layer_1" xmlns="http://www.w3.org/2000/svg" xmlns:xlink="http://www.w3.org/1999/xlink" x="0px" y="0px"
	 viewBox="0 0 500 500" style="enable-background:new 0 0 500 500;" xml:space="preserve">
<style type="text/css">
	.st0{fill:none;stroke:#00FF00;stroke-width:6;stroke-miterlimit:10;}
	.st1{fill:#00FF00;}
</style>
<rect x="23" y="272.8" class="st0" width="450.6" height="187.1"/>
<rect x="23" y="278.9" class="st0" width="450.6" height="175"/>
<g>
	<path class="st1" d="M123.8,328.5v-4h-4v-4h4v-4h16.1v-4h-16.1v-4h20.1v4h4v16.1L123.8,328.5L123.8,328.5z M127.8,324.4h12.1v-4
		h-12.1V324.4z"/>
	<path class="st1" d="M155.9,328.5v-4h-4v-12h4v-4H180v4h-20.1v12H180v4H155.9z"/>
	<path class="st1" d="M196.1,328.5v-16.1h-8v-4h8v-8h8v8h8v4h-8v16.1H196.1z"/>
	<path class="st1" d="M220.2,328.5v-4h8v-12h-4v-4h12.1v16.1h8v4L220.2,328.5L220.2,328.5z M228.2,304.4v-4h8v4H228.2z"/>
	<path class="st1" d="M260.3,328.5v-4h-4v-4h-4v-12h8v12h8v-12h8v12h-4v4h-4v4H260.3z"/>
	<path class="st1" d="M284.4,328.5v-4h8v-12h-4v-4h12v16.1h8v4L284.4,328.5L284.4,328.5z M292.4,304.4v-4h8v4H292.4z"/>
	<path class="st1" d="M324.6,328.5v-16.1h-8v-4h8v-8h8v8h8v4h-8v16.1H324.6z"/>
	<path class="st1" d="M348.6,332.5v-4h16.1v-4h-16.1v-4h-4v-12h8v12h12v-12h8v20.1h-4v4L348.6,332.5L348.6,332.5z"/>
</g>
<rect x="23" y="353" class="st0" width="450.6" height="100.9"/>
<g>
	<path class="st1" d="M59.8,385.1h-3v6.1h-1.9v-14.9h4.4c0.7,0,1.3,0.1,2,0.3c0.6,0.2,1.2,0.5,1.6,0.8c0.5,0.4,0.8,0.8,1.1,1.4
		c0.3,0.6,0.4,1.2,0.4,2c0,0.5-0.1,0.9-0.2,1.3s-0.3,0.8-0.6,1.1s-0.5,0.6-0.9,0.9s-0.7,0.5-1.1,0.6l3.2,6.4l0,0.1h-2L59.8,385.1z
		 M56.8,383.6h2.5c0.4,0,0.8-0.1,1.2-0.2s0.7-0.3,1-0.5c0.3-0.2,0.5-0.5,0.7-0.9s0.2-0.7,0.2-1.2c0-0.5-0.1-0.9-0.2-1.3
		c-0.2-0.4-0.4-0.7-0.7-0.9s-0.6-0.4-1-0.5c-0.4-0.1-0.8-0.2-1.3-0.2h-2.5L56.8,383.6L56.8,383.6z"/>
	<path class="st1" d="M75.7,384.3h-6.2v5.3h7.3v1.6h-9.2v-14.9h9.1v1.6h-7.2v4.8h6.2L75.7,384.3L75.7,384.3z"/>
	<path class="st1" d="M89.7,386.7c-0.1,0.7-0.3,1.3-0.5,1.9c-0.3,0.6-0.6,1.1-1,1.5c-0.4,0.4-0.9,0.7-1.5,1
		c-0.6,0.2-1.2,0.3-1.9,0.3c-0.6,0-1.2-0.1-1.7-0.3c-0.5-0.2-0.9-0.4-1.3-0.7s-0.7-0.7-1-1.1c-0.3-0.4-0.5-0.9-0.7-1.4
		s-0.3-1-0.4-1.5c-0.1-0.5-0.1-1.1-0.2-1.6v-2.1c0-0.5,0.1-1.1,0.2-1.6c0.1-0.5,0.2-1.1,0.4-1.5s0.4-1,0.7-1.4
		c0.3-0.4,0.6-0.8,1-1.1s0.8-0.5,1.3-0.7s1.1-0.3,1.7-0.3c0.8,0,1.4,0.1,2,0.3s1.1,0.5,1.5,1c0.4,0.4,0.8,0.9,1,1.5
		c0.3,0.6,0.4,1.2,0.5,2h-1.9c-0.1-0.5-0.2-0.9-0.3-1.3s-0.3-0.7-0.6-1s-0.6-0.5-0.9-0.7c-0.4-0.2-0.8-0.2-1.3-0.2
		c-0.4,0-0.8,0.1-1.2,0.2c-0.3,0.1-0.6,0.4-0.9,0.6s-0.5,0.5-0.6,0.9c-0.2,0.3-0.3,0.7-0.4,1.1s-0.2,0.8-0.2,1.1
		c0,0.4-0.1,0.8-0.1,1.1v2.1c0,0.4,0,0.8,0.1,1.1c0,0.4,0.1,0.8,0.2,1.2s0.2,0.7,0.4,1.1s0.4,0.6,0.6,0.9c0.2,0.3,0.6,0.5,0.9,0.6
		c0.3,0.1,0.7,0.2,1.2,0.2c0.5,0,0.9-0.1,1.3-0.2s0.7-0.4,0.9-0.7c0.2-0.3,0.4-0.6,0.6-1c0.2-0.4,0.3-0.8,0.3-1.3L89.7,386.7
		L89.7,386.7z"/>
	<path class="st1" d="M100.9,384.3h-6.2v5.3h7.3v1.6h-9.2v-14.9h9.1v1.6h-7.2v4.8h6.2L100.9,384.3L100.9,384.3z"/>
	<path class="st1" d="M114.6,391.2h-1.9l-5.8-11.2l0,11.2h-1.9v-14.9h1.9l5.8,11.1l0-11.1h1.9V391.2z"/>
	<path class="st1" d="M127.9,377.9h-4.6v13.3h-1.8v-13.3h-4.6v-1.6h11.1V377.9z"/>
	<path class="st1" d="M152.7,386.7c-0.1,0.7-0.3,1.3-0.5,1.9c-0.3,0.6-0.6,1.1-1,1.5c-0.4,0.4-0.9,0.7-1.5,1
		c-0.6,0.2-1.2,0.3-1.9,0.3c-0.6,0-1.2-0.1-1.7-0.3c-0.5-0.2-0.9-0.4-1.3-0.7s-0.7-0.7-1-1.1c-0.3-0.4-0.5-0.9-0.7-1.4
		s-0.3-1-0.4-1.5c-0.1-0.5-0.1-1.1-0.1-1.6v-2.1c0-0.5,0.1-1.1,0.1-1.6s0.2-1.1,0.4-1.5s0.4-1,0.7-1.4c0.3-0.4,0.6-0.8,1-1.1
		s0.8-0.5,1.3-0.7s1.1-0.3,1.7-0.3c0.8,0,1.4,0.1,2,0.3s1.1,0.5,1.5,1c0.4,0.4,0.8,0.9,1,1.5c0.3,0.6,0.4,1.2,0.5,2h-1.9
		c-0.1-0.5-0.2-0.9-0.3-1.3c-0.1-0.4-0.4-0.7-0.6-1s-0.6-0.5-0.9-0.7c-0.4-0.2-0.8-0.2-1.3-0.2c-0.4,0-0.9,0.1-1.2,0.2
		c-0.4,0.1-0.6,0.4-0.9,0.6s-0.5,0.5-0.6,0.9c-0.2,0.3-0.3,0.7-0.4,1.1c-0.1,0.4-0.2,0.8-0.2,1.1c0,0.4-0.1,0.8-0.1,1.1v2.1
		c0,0.4,0,0.8,0.1,1.1c0,0.4,0.1,0.8,0.2,1.2s0.2,0.7,0.4,1.1s0.4,0.6,0.6,0.9c0.2,0.3,0.6,0.5,0.9,0.6c0.3,0.1,0.7,0.2,1.2,0.2
		c0.5,0,0.9-0.1,1.3-0.2c0.4-0.2,0.7-0.4,0.9-0.7c0.2-0.3,0.4-0.6,0.6-1c0.1-0.4,0.3-0.8,0.3-1.3L152.7,386.7L152.7,386.7z"/>
	<path class="st1" d="M165.4,384.6c0,0.5-0.1,1.1-0.1,1.6c-0.1,0.5-0.2,1.1-0.4,1.6s-0.4,1-0.7,1.4c-0.3,0.4-0.6,0.8-1,1.1
		s-0.8,0.6-1.3,0.8c-0.5,0.2-1.1,0.3-1.7,0.3s-1.2-0.1-1.7-0.3s-0.9-0.5-1.3-0.8s-0.7-0.7-1-1.1s-0.5-0.9-0.7-1.4
		c-0.2-0.5-0.3-1-0.4-1.6s-0.1-1.1-0.1-1.6v-1.7c0-0.5,0.1-1.1,0.1-1.6c0.1-0.5,0.2-1.1,0.4-1.6s0.4-1,0.7-1.4s0.6-0.8,1-1.2
		c0.4-0.3,0.8-0.6,1.3-0.8s1.1-0.3,1.7-0.3s1.2,0.1,1.7,0.3s0.9,0.5,1.3,0.8s0.7,0.7,1,1.1s0.5,0.9,0.7,1.4s0.3,1,0.4,1.6
		c0.1,0.5,0.1,1.1,0.1,1.6V384.6z M163.5,382.9c0-0.4,0-0.7-0.1-1.1c0-0.4-0.1-0.8-0.2-1.1s-0.2-0.7-0.4-1.1s-0.4-0.6-0.6-0.9
		s-0.5-0.5-0.9-0.6s-0.7-0.2-1.2-0.2c-0.4,0-0.8,0.1-1.2,0.2s-0.6,0.4-0.9,0.6c-0.2,0.3-0.4,0.6-0.6,0.9c-0.2,0.4-0.3,0.7-0.4,1.1
		c-0.1,0.4-0.2,0.8-0.2,1.1c0,0.4-0.1,0.8-0.1,1.1v1.7c0,0.4,0,0.7,0.1,1.1c0,0.4,0.1,0.8,0.2,1.1s0.2,0.7,0.4,1.1
		c0.2,0.4,0.4,0.6,0.6,0.9c0.2,0.3,0.5,0.5,0.9,0.6s0.7,0.2,1.2,0.2s0.8-0.1,1.2-0.2c0.3-0.2,0.6-0.4,0.9-0.6
		c0.2-0.3,0.4-0.6,0.6-0.9c0.2-0.4,0.3-0.7,0.4-1.1s0.2-0.8,0.2-1.1c0-0.4,0.1-0.8,0.1-1.1L163.5,382.9L163.5,382.9z"/>
	<path class="st1" d="M170.4,376.3l2.4,7.5l2.6-7.5h2.4v14.9h-1.9v-6l0.1-6.2l-2.8,8h-1.1l-2.5-7.8l0.1,6v6H168v-14.9L170.4,376.3
		L170.4,376.3z"/>
	<path class="st1" d="M183,376.3l2.4,7.5l2.6-7.5h2.4v14.9h-1.9v-6l0.1-6.2l-2.8,8h-1.1l-2.5-7.8l0.1,6v6h-1.9v-14.9L183,376.3
		L183,376.3z"/>
	<path class="st1" d="M202.9,376.3l0,10.1c0,0.7-0.1,1.4-0.4,2s-0.6,1.1-1,1.6c-0.4,0.5-0.9,0.8-1.5,1.1c-0.6,0.3-1.2,0.4-2,0.4
		c-0.7,0-1.4-0.1-2-0.4s-1.1-0.6-1.5-1.1c-0.4-0.5-0.8-1-1-1.6c-0.2-0.6-0.4-1.3-0.4-2l0-10.1h1.8l0,10.1c0,0.4,0.1,0.9,0.2,1.3
		s0.3,0.8,0.6,1.1s0.6,0.6,0.9,0.8s0.8,0.3,1.3,0.3s0.9-0.1,1.3-0.3s0.7-0.4,0.9-0.8s0.4-0.7,0.6-1.1s0.2-0.8,0.2-1.3l0-10.1
		L202.9,376.3L202.9,376.3z"/>
	<path class="st1" d="M215.4,391.2h-1.9l-5.8-11.2l0,11.2h-1.9v-14.9h1.9l5.8,11.1l0-11.1h1.9V391.2z"/>
	<path class="st1" d="M218.7,376.3h9v1.6h-3.6v11.6h3.6v1.6h-9v-1.6h3.5v-11.6h-3.5V376.3z"/>
	<path class="st1" d="M240.9,386.7c-0.1,0.7-0.3,1.3-0.5,1.9c-0.3,0.6-0.6,1.1-1,1.5c-0.4,0.4-0.9,0.7-1.5,1
		c-0.6,0.2-1.2,0.3-1.9,0.3c-0.6,0-1.2-0.1-1.7-0.3c-0.5-0.2-0.9-0.4-1.3-0.7s-0.7-0.7-1-1.1c-0.3-0.4-0.5-0.9-0.7-1.4
		s-0.3-1-0.4-1.5c-0.1-0.5-0.1-1.1-0.1-1.6v-2.1c0-0.5,0.1-1.1,0.1-1.6s0.2-1.1,0.4-1.5s0.4-1,0.7-1.4c0.3-0.4,0.6-0.8,1-1.1
		s0.8-0.5,1.3-0.7s1.1-0.3,1.7-0.3c0.8,0,1.4,0.1,2,0.3s1.1,0.5,1.5,1c0.4,0.4,0.8,0.9,1,1.5c0.3,0.6,0.4,1.2,0.5,2h-1.9
		c-0.1-0.5-0.2-0.9-0.3-1.3c-0.1-0.4-0.4-0.7-0.6-1s-0.6-0.5-0.9-0.7c-0.4-0.2-0.8-0.2-1.3-0.2c-0.4,0-0.9,0.1-1.2,0.2
		c-0.4,0.1-0.6,0.4-0.9,0.6s-0.5,0.5-0.6,0.9c-0.2,0.3-0.3,0.7-0.4,1.1c-0.1,0.4-0.2,0.8-0.2,1.1c0,0.4-0.1,0.8-0.1,1.1v2.1
		c0,0.4,0,0.8,0.1,1.1c0,0.4,0.1,0.8,0.2,1.2s0.2,0.7,0.4,1.1s0.4,0.6,0.6,0.9c0.2,0.3,0.6,0.5,0.9,0.6c0.3,0.1,0.7,0.2,1.2,0.2
		c0.5,0,0.9-0.1,1.3-0.2c0.4-0.2,0.7-0.4,0.9-0.7c0.2-0.3,0.4-0.6,0.6-1c0.1-0.4,0.3-0.8,0.3-1.3L240.9,386.7L240.9,386.7z"/>
	<path class="st1" d="M251,387.4h-5l-1.2,3.9h-1.9l4.8-14.9h1.6l4.7,14.9h-1.9L251,387.4z M246.5,385.7h4l-2-6.5L246.5,385.7z"/>
	<path class="st1" d="M266.6,377.9H262v13.3h-1.9v-13.3h-4.6v-1.6h11.1V377.9z"/>
	<path class="st1" d="M269.1,376.3h9v1.6h-3.6v11.6h3.6v1.6h-9v-1.6h3.5v-11.6h-3.5V376.3z"/>
	<path class="st1" d="M291.4,384.6c0,0.5,0,1.1-0.1,1.6c-0.1,0.5-0.2,1.1-0.4,1.6s-0.4,1-0.7,1.4c-0.3,0.4-0.6,0.8-1,1.1
		s-0.8,0.6-1.3,0.8c-0.5,0.2-1,0.3-1.7,0.3s-1.2-0.1-1.7-0.3s-0.9-0.5-1.3-0.8s-0.7-0.7-1-1.1s-0.5-0.9-0.7-1.4s-0.3-1-0.4-1.6
		s-0.1-1.1-0.1-1.6v-1.7c0-0.5,0-1.1,0.1-1.6c0.1-0.5,0.2-1.1,0.4-1.6c0.2-0.5,0.4-1,0.7-1.4s0.6-0.8,1-1.2c0.4-0.3,0.8-0.6,1.3-0.8
		s1-0.3,1.7-0.3s1.2,0.1,1.7,0.3s0.9,0.5,1.3,0.8s0.7,0.7,1,1.1s0.5,0.9,0.7,1.4s0.3,1,0.4,1.6c0.1,0.5,0.1,1.1,0.1,1.6V384.6z
		 M289.5,382.9c0-0.4,0-0.7-0.1-1.1c0-0.4-0.1-0.8-0.2-1.1s-0.2-0.7-0.4-1.1s-0.4-0.6-0.6-0.9s-0.5-0.5-0.9-0.6
		c-0.3-0.1-0.7-0.2-1.2-0.2s-0.8,0.1-1.2,0.2s-0.6,0.4-0.9,0.6s-0.5,0.6-0.6,0.9c-0.2,0.4-0.3,0.7-0.4,1.1s-0.2,0.8-0.2,1.1
		c0,0.4-0.1,0.8-0.1,1.1v1.7c0,0.4,0,0.7,0.1,1.1c0,0.4,0.1,0.8,0.2,1.1s0.2,0.7,0.4,1.1s0.4,0.6,0.6,0.9c0.2,0.3,0.5,0.5,0.9,0.6
		s0.7,0.2,1.2,0.2c0.4,0,0.8-0.1,1.2-0.2c0.3-0.2,0.6-0.4,0.9-0.6s0.4-0.6,0.6-0.9c0.2-0.4,0.3-0.7,0.4-1.1s0.2-0.8,0.2-1.1
		c0-0.4,0.1-0.8,0.1-1.1L289.5,382.9L289.5,382.9z"/>
	<path class="st1" d="M303.6,391.2h-1.9l-5.8-11.2l0,11.2H294v-14.9h1.9l5.8,11.1l0-11.1h1.9V391.2z"/>
	<path class="st1" d="M314.7,387.5c0-0.5-0.1-0.8-0.3-1.2c-0.2-0.3-0.5-0.6-0.8-0.8c-0.3-0.2-0.7-0.4-1.1-0.5
		c-0.4-0.1-0.8-0.3-1.1-0.4c-0.5-0.2-1.1-0.4-1.6-0.6c-0.5-0.2-1-0.5-1.5-0.9c-0.5-0.4-0.8-0.8-1.1-1.2c-0.3-0.5-0.4-1-0.4-1.7
		c0-0.6,0.1-1.2,0.4-1.7c0.3-0.5,0.6-0.9,1.1-1.3s1-0.6,1.6-0.8c0.6-0.2,1.2-0.3,1.8-0.3c0.6,0,1.3,0.1,1.9,0.3
		c0.6,0.2,1.1,0.5,1.6,0.9s0.8,0.9,1.1,1.4s0.4,1.2,0.4,1.9h-2c-0.1-0.4-0.2-0.8-0.3-1.2s-0.4-0.6-0.6-0.9c-0.3-0.2-0.6-0.5-0.9-0.6
		c-0.4-0.1-0.8-0.2-1.2-0.2c-0.4,0-0.7,0-1.1,0.1s-0.6,0.3-0.9,0.5c-0.3,0.2-0.5,0.5-0.6,0.8c-0.2,0.3-0.2,0.6-0.2,1
		c0,0.4,0.1,0.8,0.3,1.1s0.5,0.5,0.8,0.8c0.3,0.2,0.7,0.4,1.1,0.5c0.4,0.1,0.7,0.3,1.1,0.4c0.4,0.1,0.7,0.2,1.1,0.4
		c0.4,0.1,0.7,0.3,1.1,0.5s0.7,0.4,1,0.6s0.6,0.5,0.8,0.8c0.2,0.3,0.4,0.6,0.5,1c0.1,0.4,0.2,0.8,0.2,1.2c0,0.7-0.1,1.2-0.5,1.8
		c-0.3,0.5-0.7,0.9-1.1,1.2s-1,0.6-1.6,0.8c-0.6,0.2-1.2,0.2-1.8,0.2c-0.7,0-1.3-0.1-2-0.3c-0.6-0.2-1.2-0.5-1.7-0.9
		c-0.5-0.4-0.9-0.9-1.2-1.4c-0.3-0.6-0.5-1.2-0.5-1.9h1.9c0.1,0.5,0.2,0.9,0.4,1.2s0.4,0.7,0.7,0.9s0.6,0.4,1,0.6
		c0.4,0.1,0.8,0.2,1.3,0.2c0.4,0,0.7,0,1.1-0.1c0.4-0.1,0.7-0.2,1-0.4c0.3-0.2,0.5-0.4,0.7-0.7C314.6,388.2,314.7,387.9,314.7,387.5
		z"/>
	<path class="st1" d="M324.3,390.8c0,0.3,0,0.7-0.1,1s-0.2,0.7-0.4,1c-0.1,0.3-0.3,0.7-0.6,1c-0.2,0.3-0.5,0.6-0.8,0.8l-1.2-0.6
		c0.3-0.5,0.6-1,0.7-1.5s0.2-1.1,0.2-1.7V389h2.1V390.8z"/>
	<path class="st1" d="M353,384.6h-6.2v6.6h-1.9v-14.9h9.2v1.6h-7.2v5.1h6.2V384.6z"/>
	<path class="st1" d="M362.2,385.1h-3v6.1h-1.9v-14.9h4.4c0.7,0,1.4,0.1,2,0.3s1.1,0.5,1.6,0.8c0.5,0.4,0.8,0.8,1.1,1.4
		c0.3,0.6,0.4,1.2,0.4,2c0,0.5-0.1,0.9-0.2,1.3c-0.1,0.4-0.3,0.8-0.6,1.1s-0.5,0.6-0.9,0.9s-0.7,0.5-1.1,0.6l3.2,6.4l0,0.1h-2
		L362.2,385.1z M359.3,383.6h2.5c0.4,0,0.8-0.1,1.2-0.2s0.7-0.3,1-0.5s0.5-0.5,0.7-0.9s0.2-0.7,0.2-1.2c0-0.5-0.1-0.9-0.2-1.3
		c-0.2-0.4-0.4-0.7-0.7-0.9s-0.6-0.4-1-0.5c-0.4-0.1-0.8-0.2-1.3-0.2h-2.5L359.3,383.6L359.3,383.6z"/>
	<path class="st1" d="M378.1,384.3h-6.2v5.3h7.3v1.6H370v-14.9h9.1v1.6h-7.2v4.8h6.2L378.1,384.3L378.1,384.3z"/>
	<path class="st1" d="M392.4,384.4c0,0.5,0,1.1-0.1,1.7s-0.2,1.1-0.4,1.6c-0.2,0.5-0.4,1-0.7,1.5c-0.3,0.5-0.6,0.9-1,1.2l2.6,2.1
		l-1.3,1.2l-3-2.5c-0.4,0.1-0.9,0.2-1.4,0.2c-0.6,0-1.2-0.1-1.7-0.3c-0.5-0.2-1-0.5-1.4-0.8c-0.4-0.3-0.7-0.7-1-1.2
		c-0.3-0.5-0.5-0.9-0.7-1.5s-0.3-1.1-0.4-1.6s-0.1-1.1-0.1-1.7v-1.3c0-0.5,0-1.1,0.1-1.7s0.2-1.1,0.4-1.6s0.4-1,0.7-1.5
		c0.3-0.5,0.6-0.9,1-1.2s0.8-0.6,1.4-0.8c0.5-0.2,1.1-0.3,1.7-0.3s1.2,0.1,1.7,0.3c0.5,0.2,1,0.5,1.4,0.8c0.4,0.3,0.7,0.7,1,1.2
		c0.3,0.5,0.5,0.9,0.7,1.5c0.2,0.5,0.3,1.1,0.4,1.6s0.1,1.1,0.1,1.7L392.4,384.4L392.4,384.4z M390.5,383.1c0-0.4,0-0.8-0.1-1.2
		c0-0.4-0.1-0.8-0.2-1.2s-0.2-0.8-0.4-1.1c-0.2-0.4-0.4-0.7-0.6-0.9s-0.6-0.5-0.9-0.6s-0.8-0.2-1.2-0.2c-0.5,0-0.9,0.1-1.2,0.2
		s-0.6,0.4-0.9,0.6s-0.5,0.6-0.6,0.9c-0.2,0.4-0.3,0.7-0.4,1.1c-0.1,0.4-0.2,0.8-0.2,1.2s-0.1,0.8-0.1,1.2v1.3c0,0.4,0,0.8,0.1,1.2
		c0,0.4,0.1,0.8,0.2,1.2s0.2,0.8,0.4,1.1c0.2,0.4,0.4,0.7,0.6,0.9s0.5,0.5,0.9,0.6c0.4,0.2,0.8,0.2,1.2,0.2s0.9-0.1,1.2-0.2
		c0.4-0.2,0.6-0.4,0.9-0.6c0.2-0.3,0.5-0.6,0.6-0.9s0.3-0.7,0.4-1.1s0.2-0.8,0.2-1.2c0-0.4,0.1-0.8,0.1-1.2L390.5,383.1L390.5,383.1
		z"/>
	<path class="st1" d="M404.5,376.3l0,10.1c0,0.7-0.1,1.4-0.4,2s-0.6,1.1-1,1.6c-0.4,0.5-0.9,0.8-1.5,1.1c-0.6,0.3-1.2,0.4-2,0.4
		c-0.7,0-1.4-0.1-2-0.4c-0.6-0.3-1.1-0.6-1.5-1.1c-0.4-0.5-0.8-1-1-1.6c-0.2-0.6-0.4-1.3-0.4-2l0-10.1h1.8l0,10.1
		c0,0.4,0.1,0.9,0.2,1.3s0.3,0.8,0.6,1.1s0.6,0.6,0.9,0.8s0.8,0.3,1.3,0.3s0.9-0.1,1.3-0.3s0.7-0.4,0.9-0.8s0.4-0.7,0.6-1.1
		s0.2-0.8,0.2-1.3l0-10.1L404.5,376.3L404.5,376.3z"/>
	<path class="st1" d="M415.9,384.3h-6.2v5.3h7.3v1.6h-9.2v-14.9h9.1v1.6h-7.2v4.8h6.2L415.9,384.3L415.9,384.3z"/>
	<path class="st1" d="M429.7,391.2h-1.9l-5.8-11.2l0,11.2H420v-14.9h1.9l5.8,11.1l0-11.1h1.9V391.2z"/>
	<path class="st1" d="M443,377.9h-4.6v13.3h-1.9v-13.3h-4.6v-1.6H443L443,377.9L443,377.9z"/>
	<path class="st1" d="M82.1,412.3l2.4,7.5l2.6-7.5h2.4v14.9h-1.8v-6l0.2-6.2l-2.8,8H84l-2.5-7.8l0.2,6v6h-1.8v-14.9L82.1,412.3
		L82.1,412.3z"/>
	<path class="st1" d="M100.9,420.3h-6.2v5.3h7.3v1.6h-9.2v-14.9h9.1v1.6h-7.2v4.8h6.2L100.9,420.3L100.9,420.3z"/>
	<path class="st1" d="M105.1,427.2v-14.9h3.5c1,0,2,0.2,2.8,0.5c0.8,0.3,1.5,0.8,2.1,1.4c0.6,0.6,1,1.3,1.3,2.2
		c0.3,0.8,0.4,1.8,0.5,2.8v1.1c0,1-0.2,2-0.5,2.8c-0.3,0.8-0.7,1.6-1.3,2.2s-1.2,1.1-2.1,1.4c-0.8,0.3-1.8,0.5-2.8,0.5L105.1,427.2
		L105.1,427.2z M107,413.9v11.8h1.5c0.8,0,1.5-0.1,2.1-0.4c0.6-0.3,1.1-0.6,1.5-1.1s0.7-1,0.9-1.7s0.3-1.4,0.3-2.1v-1.1
		c0-0.8-0.1-1.5-0.3-2.1s-0.5-1.2-0.9-1.7c-0.4-0.5-0.9-0.9-1.5-1.1s-1.3-0.4-2.1-0.4L107,413.9L107,413.9z"/>
	<path class="st1" d="M117.9,412.3h9v1.6h-3.6v11.6h3.6v1.6h-9v-1.6h3.5v-11.6h-3.5C117.9,413.9,117.9,412.3,117.9,412.3z"/>
	<path class="st1" d="M137.6,423.4h-5l-1.2,3.9h-1.9l4.8-14.9h1.6l4.7,14.9h-1.9L137.6,423.4z M133.1,421.7h4l-2-6.5L133.1,421.7z"
		/>
	<path class="st1" d="M160.1,424.2l3.5-11.9h2l-4.7,14.9h-1.6l-4.7-14.9h2L160.1,424.2z"/>
	<path class="st1" d="M168.3,412.3h9v1.6h-3.6v11.6h3.6v1.6h-9v-1.6h3.5v-11.6h-3.5V412.3z"/>
	<path class="st1" d="M188.7,423.5c0-0.5-0.1-0.8-0.3-1.2c-0.2-0.3-0.5-0.6-0.8-0.8c-0.3-0.2-0.7-0.4-1.1-0.5
		c-0.4-0.1-0.8-0.3-1.1-0.4c-0.5-0.2-1.1-0.4-1.6-0.6c-0.5-0.2-1-0.5-1.5-0.9c-0.4-0.4-0.8-0.8-1.1-1.2c-0.3-0.5-0.4-1-0.4-1.7
		c0-0.6,0.1-1.2,0.4-1.7c0.3-0.5,0.6-0.9,1.1-1.3s1-0.6,1.6-0.8c0.6-0.2,1.2-0.3,1.8-0.3c0.6,0,1.3,0.1,1.9,0.3
		c0.6,0.2,1.1,0.5,1.6,0.9s0.8,0.9,1.1,1.4s0.4,1.2,0.4,1.9h-1.9c-0.1-0.4-0.2-0.8-0.3-1.2s-0.4-0.6-0.6-0.9s-0.6-0.5-0.9-0.6
		c-0.4-0.1-0.8-0.2-1.2-0.2c-0.4,0-0.7,0-1.1,0.1c-0.4,0.1-0.6,0.3-0.9,0.5s-0.5,0.5-0.6,0.8c-0.2,0.3-0.2,0.6-0.2,1
		c0,0.4,0.1,0.8,0.3,1.1s0.5,0.5,0.8,0.8s0.7,0.4,1.1,0.5c0.4,0.1,0.7,0.3,1.1,0.4c0.4,0.1,0.7,0.2,1.1,0.4c0.4,0.1,0.7,0.3,1.1,0.5
		s0.7,0.4,1,0.6s0.6,0.5,0.8,0.8c0.2,0.3,0.4,0.6,0.5,1c0.1,0.4,0.2,0.8,0.2,1.2c0,0.7-0.1,1.2-0.4,1.8s-0.7,0.9-1.1,1.2
		s-1,0.6-1.6,0.8c-0.6,0.2-1.2,0.2-1.8,0.2c-0.7,0-1.3-0.1-1.9-0.3s-1.2-0.5-1.7-0.9c-0.5-0.4-0.9-0.9-1.2-1.4
		c-0.3-0.6-0.5-1.2-0.5-1.9h1.9c0.1,0.5,0.2,0.9,0.4,1.2s0.4,0.7,0.7,0.9s0.6,0.4,1,0.6c0.4,0.1,0.8,0.2,1.3,0.2
		c0.4,0,0.7,0,1.1-0.1c0.4-0.1,0.7-0.2,1-0.4c0.3-0.2,0.5-0.4,0.7-0.7C188.6,424.2,188.7,423.9,188.7,423.5z"/>
	<path class="st1" d="M193.5,412.3h9v1.6h-3.6v11.6h3.6v1.6h-9v-1.6h3.5v-11.6h-3.5V412.3z"/>
	<path class="st1" d="M216.1,413.9h-4.6v13.3h-1.9v-13.3h-4.6v-1.6h11.1V413.9z"/>
	<path class="st1" d="M226.9,420.3h-6.2v5.3h7.3v1.6h-9.2v-14.9h9.1v1.6h-7.2v4.8h6.2L226.9,420.3L226.9,420.3z"/>
	<path class="st1" d="M231.1,427.2v-14.9h3.5c1,0,2,0.2,2.8,0.5c0.8,0.3,1.5,0.8,2.1,1.4c0.6,0.6,1,1.3,1.3,2.2
		c0.3,0.8,0.4,1.8,0.5,2.8v1.1c0,1-0.2,2-0.5,2.8s-0.7,1.6-1.3,2.2s-1.2,1.1-2.1,1.4c-0.8,0.3-1.8,0.5-2.8,0.5L231.1,427.2
		L231.1,427.2z M233,413.9v11.8h1.5c0.8,0,1.5-0.1,2.1-0.4c0.6-0.3,1.1-0.6,1.5-1.1s0.7-1,0.9-1.7s0.3-1.4,0.3-2.1v-1.1
		c0-0.8-0.1-1.5-0.3-2.1s-0.5-1.2-0.9-1.7c-0.4-0.5-0.9-0.9-1.5-1.1s-1.3-0.4-2.1-0.4L233,413.9L233,413.9z"/>
	<path class="st1" d="M248.7,426.8c0,0.3,0,0.7-0.1,1s-0.2,0.7-0.4,1c-0.1,0.3-0.3,0.7-0.6,1s-0.5,0.6-0.8,0.8l-1.2-0.6
		c0.3-0.5,0.6-1,0.7-1.5s0.2-1.1,0.2-1.7V425h2.1L248.7,426.8L248.7,426.8z"/>
	<path class="st1" d="M269.1,412.3h9v1.6h-3.6v11.6h3.6v1.6h-9v-1.6h3.5v-11.6h-3.5V412.3z"/>
	<path class="st1" d="M286.6,421.1h-3v6.1h-1.9v-14.9h4.4c0.7,0,1.4,0.1,2,0.3s1.1,0.5,1.6,0.8c0.5,0.4,0.8,0.8,1.1,1.4
		c0.3,0.6,0.4,1.2,0.4,2c0,0.5-0.1,0.9-0.2,1.3c-0.1,0.4-0.3,0.8-0.6,1.1s-0.5,0.6-0.9,0.9s-0.7,0.5-1.1,0.6l3.2,6.4l0,0.1h-2
		L286.6,421.1z M283.6,419.6h2.5c0.4,0,0.8-0.1,1.2-0.2s0.7-0.3,1-0.5s0.5-0.5,0.7-0.9s0.2-0.7,0.2-1.2c0-0.5-0.1-0.9-0.2-1.3
		c-0.2-0.4-0.4-0.7-0.7-0.9s-0.6-0.4-1-0.5c-0.4-0.1-0.8-0.2-1.3-0.2h-2.5L283.6,419.6L283.6,419.6z"/>
	<path class="st1" d="M296.4,425.6h7.3v1.6h-9.2v-14.9h1.9L296.4,425.6L296.4,425.6z"/>
	<path class="st1" d="M321.6,421.2v6h-1.9v-14.9h4.8c0.7,0,1.3,0.1,1.9,0.3s1.1,0.5,1.6,0.9s0.8,0.8,1.1,1.4
		c0.3,0.5,0.4,1.2,0.4,1.9s-0.1,1.4-0.4,1.9s-0.6,1-1.1,1.4s-1,0.7-1.6,0.9c-0.6,0.2-1.2,0.3-1.9,0.3H321.6z M321.6,419.7h2.9
		c0.4,0,0.8-0.1,1.2-0.2s0.7-0.3,1-0.6s0.5-0.5,0.6-0.9c0.1-0.4,0.2-0.8,0.2-1.2s-0.1-0.9-0.2-1.2c-0.1-0.4-0.4-0.7-0.6-0.9
		c-0.3-0.2-0.6-0.5-1-0.6c-0.4-0.1-0.8-0.2-1.2-0.2h-2.9V419.7z"/>
	<path class="st1" d="M337,421.1h-3v6.1h-1.9v-14.9h4.4c0.7,0,1.4,0.1,2,0.3s1.1,0.5,1.6,0.8c0.5,0.4,0.8,0.8,1.1,1.4
		c0.3,0.6,0.4,1.2,0.4,2c0,0.5-0.1,0.9-0.2,1.3c-0.1,0.4-0.3,0.8-0.6,1.1s-0.5,0.6-0.9,0.9s-0.7,0.5-1.1,0.6l3.2,6.4l0,0.1h-2
		L337,421.1z M334,419.6h2.5c0.4,0,0.8-0.1,1.2-0.2s0.7-0.3,1-0.5s0.5-0.5,0.7-0.9s0.2-0.7,0.2-1.2c0-0.5-0.1-0.9-0.2-1.3
		c-0.2-0.4-0.4-0.7-0.7-0.9s-0.6-0.4-1-0.5c-0.4-0.1-0.8-0.2-1.3-0.2H334L334,419.6L334,419.6z"/>
	<path class="st1" d="M352.9,420.3h-6.2v5.3h7.3v1.6h-9.2v-14.9h9.1v1.6h-7.2v4.8h6.2L352.9,420.3L352.9,420.3z"/>
	<path class="st1" d="M365.1,423.5c0-0.5-0.1-0.8-0.3-1.2c-0.2-0.3-0.5-0.6-0.8-0.8c-0.3-0.2-0.7-0.4-1.1-0.5
		c-0.4-0.1-0.8-0.3-1.1-0.4c-0.5-0.2-1.1-0.4-1.6-0.6c-0.5-0.2-1-0.5-1.5-0.9c-0.5-0.4-0.8-0.8-1.1-1.2c-0.3-0.5-0.4-1-0.4-1.7
		c0-0.6,0.1-1.2,0.4-1.7c0.3-0.5,0.6-0.9,1.1-1.3s1-0.6,1.6-0.8c0.6-0.2,1.2-0.3,1.8-0.3c0.6,0,1.3,0.1,1.9,0.3
		c0.6,0.2,1.1,0.5,1.6,0.9s0.8,0.9,1.1,1.4s0.4,1.2,0.4,1.9h-2c-0.1-0.4-0.2-0.8-0.3-1.2s-0.4-0.6-0.6-0.9c-0.3-0.2-0.6-0.5-0.9-0.6
		c-0.4-0.1-0.8-0.2-1.2-0.2c-0.4,0-0.7,0-1.1,0.1s-0.6,0.3-0.9,0.5c-0.3,0.2-0.5,0.5-0.6,0.8c-0.2,0.3-0.2,0.6-0.2,1
		c0,0.4,0.1,0.8,0.3,1.1s0.5,0.5,0.8,0.8c0.3,0.2,0.7,0.4,1.1,0.5c0.4,0.1,0.7,0.3,1.1,0.4c0.4,0.1,0.7,0.2,1.1,0.4
		c0.4,0.1,0.7,0.3,1.1,0.5s0.7,0.4,1,0.6s0.6,0.5,0.8,0.8c0.2,0.3,0.4,0.6,0.5,1c0.1,0.4,0.2,0.8,0.2,1.2c0,0.7-0.1,1.2-0.5,1.8
		c-0.3,0.5-0.7,0.9-1.1,1.2s-1,0.6-1.6,0.8c-0.6,0.2-1.2,0.2-1.8,0.2c-0.7,0-1.3-0.1-2-0.3c-0.6-0.2-1.2-0.5-1.7-0.9
		c-0.5-0.4-0.9-0.9-1.2-1.4c-0.3-0.6-0.5-1.2-0.5-1.9h1.9c0.1,0.5,0.2,0.9,0.4,1.2s0.4,0.7,0.7,0.9s0.6,0.4,1,0.6
		c0.4,0.1,0.8,0.2,1.3,0.2c0.4,0,0.7,0,1.1-0.1c0.4-0.1,0.7-0.2,1-0.4c0.3-0.2,0.5-0.4,0.7-0.7C365,424.2,365.1,423.9,365.1,423.5z"
		/>
	<path class="st1" d="M378.1,420.3h-6.2v5.3h7.3v1.6H370v-14.9h9.1v1.6h-7.2v4.8h6.2L378.1,420.3L378.1,420.3z"/>
	<path class="st1" d="M391.9,427.2h-1.9l-5.8-11.2l0,11.2h-1.9v-14.9h1.9l5.8,11.1l0-11.1h1.9V427.2z"/>
	<path class="st1" d="M404.8,422.7c-0.1,0.7-0.3,1.3-0.5,1.9c-0.3,0.6-0.6,1.1-1,1.5c-0.4,0.4-0.9,0.7-1.5,1c-0.6,0.2-1.2,0.3-2,0.3
		c-0.6,0-1.2-0.1-1.7-0.3c-0.5-0.2-1-0.4-1.3-0.7c-0.4-0.3-0.7-0.7-1-1.1c-0.3-0.4-0.5-0.9-0.7-1.4s-0.3-1-0.4-1.5
		c-0.1-0.5-0.1-1.1-0.1-1.6v-2.1c0-0.5,0.1-1.1,0.1-1.6s0.2-1.1,0.4-1.5s0.4-1,0.7-1.4c0.3-0.4,0.6-0.8,1-1.1s0.8-0.5,1.3-0.7
		s1.1-0.3,1.7-0.3c0.8,0,1.4,0.1,2,0.3s1.1,0.5,1.5,1c0.4,0.4,0.8,0.9,1,1.5c0.3,0.6,0.4,1.2,0.5,2h-1.9c-0.1-0.5-0.2-0.9-0.3-1.3
		s-0.4-0.7-0.6-1s-0.6-0.5-0.9-0.7c-0.4-0.2-0.8-0.2-1.3-0.2c-0.5,0-0.9,0.1-1.2,0.2s-0.6,0.4-0.9,0.6s-0.5,0.5-0.6,0.9
		c-0.2,0.3-0.3,0.7-0.4,1.1c-0.1,0.4-0.2,0.8-0.2,1.1c0,0.4-0.1,0.8-0.1,1.1v2.1c0,0.4,0,0.8,0.1,1.1c0,0.4,0.1,0.8,0.2,1.2
		s0.2,0.7,0.4,1.1s0.4,0.6,0.6,0.9s0.5,0.5,0.9,0.6c0.3,0.1,0.7,0.2,1.2,0.2c0.5,0,0.9-0.1,1.3-0.2s0.7-0.4,0.9-0.7
		c0.2-0.3,0.5-0.6,0.6-1c0.1-0.4,0.3-0.8,0.3-1.3L404.8,422.7L404.8,422.7z"/>
	<path class="st1" d="M415.9,420.3h-6.2v5.3h7.3v1.6h-9.2v-14.9h9.1v1.6h-7.2v4.8h6.2L415.9,420.3L415.9,420.3z"/>
</g>
<circle class="st0" cx="248.4" cy="165.1" r="43"/>
<circle class="st0" cx="248.4" cy="165.1" r="30.4"/>
<line class="st0" x1="248.3" y1="112.3" x2="248.3" y2="217.8"/>
<line class="st0" x1="301.2" y1="165.1" x2="195.6" y2="165.1"/>
</svg>
