<?xml version="1.0" encoding="utf-8"?>
<!-- Generator: Adobe Illustrator 23.0.4, SVG Export Plug-In . SVG Version: 6.00 Build 0)  -->
<svg version="1.1" id="Layer_1" xmlns="http://www.w3.org/2000/svg" xmlns:xlink="http://www.w3.org/1999/xlink" x="0px" y="0px"
	 viewBox="0 0 1000 500" style="enable-background:new 0 0 1000 500;" xml:space="preserve">
<style type="text/css">
	.st0{fill:none;stroke:#00FF00;stroke-width:6;stroke-miterlimit:10;}
	.st1{fill:#00FF00;}
</style>
<rect x="221.4" y="10.9" class="st0" width="450.6" height="187.1"/>
<rect x="221.4" y="17" class="st0" width="450.6" height="175.1"/>
<g>
	<path class="st1" d="M370.4,66.6v-4h8V42.5h-4v-4h12v24.1h8v4L370.4,66.6L370.4,66.6z"/>
	<path class="st1" d="M402.5,66.6v-4h8v-12h-4v-4h12v16.1h8v4L402.5,66.6L402.5,66.6z M410.6,42.5v-4h8v4H410.6z"/>
	<path class="st1" d="M430.6,66.6V38.5h8v16.1h8v-4h4v-4h8v4h-4v4h-4v4h4v4h4v4h-8v-4h-4v-4h-8v8L430.6,66.6L430.6,66.6z"/>
	<path class="st1" d="M466.8,66.6v-4h-4v-12h4v-4h20.1v4h4v8h-20.1v4h16.1v4H466.8z M470.8,54.5h12v-4h-12V54.5z"/>
	<path class="st1" d="M494.9,66.6v-4H515v-4h-16.1v-4h-4v-4h4v-4H519v4h-16.1v4H519v4h4v4h-4v4C519,66.6,494.9,66.6,494.9,66.6z"/>
</g>
<rect x="221.4" y="91.1" class="st0" width="450.6" height="100.9"/>
<g>
	<path class="st1" d="M254.8,125.6c0-0.5-0.1-0.8-0.3-1.2c-0.2-0.3-0.5-0.6-0.8-0.8c-0.3-0.2-0.7-0.4-1.1-0.5
		c-0.4-0.1-0.8-0.3-1.1-0.4c-0.5-0.2-1.1-0.4-1.6-0.6c-0.5-0.2-1-0.5-1.5-0.9c-0.5-0.3-0.8-0.8-1.1-1.2c-0.3-0.5-0.4-1-0.4-1.7
		c0-0.6,0.1-1.2,0.4-1.7c0.3-0.5,0.6-0.9,1.1-1.3s1-0.6,1.6-0.8s1.2-0.3,1.8-0.3c0.6,0,1.3,0.1,1.9,0.3c0.6,0.2,1.1,0.5,1.6,0.9
		s0.8,0.9,1.1,1.4s0.4,1.2,0.4,1.9h-2c0-0.4-0.2-0.8-0.3-1.2s-0.4-0.7-0.6-0.9s-0.6-0.4-0.9-0.6s-0.8-0.2-1.2-0.2
		c-0.4,0-0.7,0.1-1.1,0.2c-0.4,0.1-0.6,0.3-0.9,0.5s-0.5,0.5-0.6,0.8s-0.2,0.7-0.2,1.1c0,0.4,0.1,0.8,0.3,1.1s0.5,0.6,0.8,0.8
		c0.3,0.2,0.7,0.4,1.1,0.5c0.4,0.1,0.7,0.3,1.1,0.4c0.4,0.1,0.7,0.2,1.1,0.4c0.4,0.2,0.7,0.3,1.1,0.5s0.7,0.4,1,0.7s0.6,0.5,0.8,0.8
		c0.2,0.3,0.4,0.6,0.5,1c0.1,0.4,0.2,0.8,0.2,1.2c0,0.7-0.1,1.2-0.5,1.8c-0.3,0.5-0.7,0.9-1.1,1.2s-1,0.6-1.6,0.8
		c-0.6,0.2-1.2,0.2-1.8,0.2c-0.7,0-1.3-0.1-2-0.3c-0.6-0.2-1.2-0.5-1.7-0.9c-0.5-0.4-0.9-0.9-1.2-1.4c-0.3-0.6-0.5-1.2-0.5-1.9h1.9
		c0.1,0.5,0.2,0.9,0.4,1.2s0.4,0.7,0.7,0.9s0.6,0.4,1,0.6c0.4,0.1,0.8,0.2,1.3,0.2c0.4,0,0.7-0.1,1.1-0.1s0.7-0.2,1-0.4
		c0.3-0.2,0.5-0.4,0.7-0.7C254.7,126.3,254.8,126,254.8,125.6z"/>
	<path class="st1" d="M269,114.4l0,10.1c0,0.7-0.1,1.3-0.4,2s-0.6,1.1-1,1.6c-0.4,0.5-0.9,0.8-1.5,1.1c-0.6,0.3-1.2,0.4-2,0.4
		c-0.7,0-1.4-0.1-2-0.4s-1.1-0.6-1.5-1.1c-0.4-0.5-0.8-1-1-1.6c-0.2-0.6-0.4-1.3-0.4-2l0-10.1h1.8l0,10.1c0,0.4,0.1,0.9,0.2,1.3
		s0.3,0.8,0.6,1.1s0.6,0.6,0.9,0.8s0.8,0.3,1.3,0.3c0.5,0,0.9-0.1,1.3-0.3s0.7-0.4,0.9-0.8s0.4-0.7,0.6-1.1s0.2-0.8,0.2-1.3l0-10.1
		L269,114.4L269,114.4z"/>
	<path class="st1" d="M272.2,129.4v-14.9h4.4c0.6,0,1.2,0.1,1.8,0.2c0.6,0.2,1.1,0.4,1.6,0.7s0.8,0.7,1.1,1.2
		c0.3,0.5,0.4,1.1,0.4,1.8c0,0.4-0.1,0.8-0.2,1.1s-0.3,0.6-0.5,0.9s-0.5,0.5-0.7,0.7s-0.6,0.4-0.9,0.5c0.4,0.1,0.8,0.3,1.1,0.5
		s0.6,0.5,0.9,0.8s0.4,0.7,0.6,1s0.2,0.8,0.2,1.2c0,0.7-0.1,1.3-0.4,1.8s-0.6,1-1.1,1.3c-0.5,0.4-1,0.6-1.6,0.8s-1.2,0.3-1.9,0.3
		L272.2,129.4L272.2,129.4L272.2,129.4z M274.1,120.8h2.6c0.4,0,0.7-0.1,1-0.2c0.3-0.1,0.6-0.3,0.9-0.5c0.3-0.2,0.5-0.4,0.6-0.7
		c0.2-0.3,0.2-0.6,0.2-1c0-0.4-0.1-0.8-0.2-1.1s-0.4-0.5-0.6-0.7c-0.3-0.2-0.6-0.3-0.9-0.4s-0.7-0.1-1.1-0.1h-2.6L274.1,120.8
		L274.1,120.8L274.1,120.8z M274.1,122.4v5.4h2.9c0.4,0,0.8-0.1,1.1-0.2c0.4-0.1,0.7-0.3,0.9-0.5s0.5-0.5,0.6-0.8s0.2-0.7,0.2-1.1
		c0-0.4-0.1-0.8-0.2-1.1s-0.4-0.6-0.6-0.8c-0.3-0.2-0.6-0.4-0.9-0.5s-0.7-0.2-1.1-0.2L274.1,122.4L274.1,122.4L274.1,122.4z"/>
	<path class="st1" d="M291.8,114.4h1.9v10.4c0,0.7-0.1,1.3-0.4,1.9c-0.2,0.6-0.6,1.1-1,1.5s-0.9,0.8-1.5,1c-0.6,0.2-1.2,0.4-1.9,0.4
		c-0.7,0-1.3-0.1-1.9-0.3s-1.1-0.5-1.5-0.9c-0.4-0.4-0.8-0.9-1-1.4c-0.2-0.6-0.4-1.2-0.5-1.9h1.9c0,0.4,0.1,0.8,0.2,1.2
		s0.4,0.7,0.6,0.9s0.6,0.5,0.9,0.6s0.8,0.2,1.2,0.2c0.5,0,0.9-0.1,1.2-0.2s0.7-0.4,0.9-0.7s0.4-0.6,0.6-1s0.2-0.8,0.2-1.2
		L291.8,114.4L291.8,114.4z"/>
	<path class="st1" d="M305.6,122.4h-6.2v5.3h7.3v1.6h-9.2v-14.9h9.1v1.6h-7.2v4.8h6.2L305.6,122.4L305.6,122.4L305.6,122.4z"/>
	<path class="st1" d="M319.7,124.9c-0.1,0.7-0.3,1.3-0.5,1.9c-0.3,0.6-0.6,1.1-1,1.5c-0.4,0.4-0.9,0.7-1.5,1c-0.6,0.2-1.2,0.3-2,0.3
		c-0.6,0-1.2-0.1-1.7-0.3c-0.5-0.2-1-0.4-1.3-0.7s-0.7-0.7-1-1.1s-0.5-0.9-0.7-1.4s-0.3-1-0.4-1.6c-0.1-0.5-0.1-1.1-0.1-1.6v-2.1
		c0-0.6,0.1-1.1,0.1-1.6s0.2-1.1,0.4-1.6s0.4-0.9,0.7-1.4c0.3-0.4,0.6-0.8,1-1.1s0.8-0.6,1.3-0.7s1.1-0.3,1.7-0.3
		c0.8,0,1.4,0.1,2,0.3s1.1,0.6,1.5,1c0.4,0.4,0.8,0.9,1,1.5s0.4,1.2,0.5,1.9h-1.9c-0.1-0.4-0.2-0.9-0.3-1.3s-0.4-0.7-0.6-1
		s-0.6-0.5-0.9-0.7c-0.4-0.2-0.8-0.2-1.3-0.2c-0.5,0-0.9,0.1-1.2,0.2c-0.4,0.2-0.6,0.3-0.9,0.6s-0.5,0.6-0.6,0.9
		c-0.2,0.3-0.3,0.7-0.4,1.1s-0.2,0.8-0.2,1.2s-0.1,0.8-0.1,1.1v2.1c0,0.4,0,0.8,0.1,1.1c0,0.4,0.1,0.8,0.2,1.2s0.2,0.7,0.4,1.1
		s0.4,0.6,0.6,0.9c0.2,0.3,0.5,0.5,0.9,0.6c0.3,0.2,0.7,0.2,1.2,0.2c0.5,0,0.9-0.1,1.3-0.2s0.7-0.4,0.9-0.7c0.2-0.3,0.5-0.6,0.6-1
		c0.1-0.4,0.3-0.8,0.3-1.3L319.7,124.9L319.7,124.9z"/>
	<path class="st1" d="M332.7,116h-4.6v13.3h-1.9V116h-4.6v-1.6h11.1L332.7,116L332.7,116z"/>
	<path class="st1" d="M341,114.9c0,0.3,0,0.7-0.1,1s-0.2,0.7-0.4,1.1c-0.1,0.3-0.3,0.7-0.6,1s-0.5,0.6-0.8,0.8l-1-0.7
		c0.3-0.5,0.6-1,0.7-1.5c0.2-0.5,0.2-1.1,0.2-1.6v-1.5h1.9L341,114.9L341,114.9z"/>
	<path class="st1" d="M355.6,125.6c0-0.5-0.1-0.8-0.3-1.2c-0.2-0.3-0.5-0.6-0.8-0.8c-0.3-0.2-0.7-0.4-1.1-0.5
		c-0.4-0.1-0.8-0.3-1.1-0.4c-0.5-0.2-1.1-0.4-1.6-0.6c-0.5-0.2-1-0.5-1.5-0.9s-0.8-0.8-1.1-1.2c-0.3-0.5-0.4-1-0.4-1.7
		c0-0.6,0.1-1.2,0.4-1.7c0.3-0.5,0.6-0.9,1.1-1.3s1-0.6,1.6-0.8s1.2-0.3,1.8-0.3c0.6,0,1.3,0.1,1.9,0.3c0.6,0.2,1.1,0.5,1.6,0.9
		s0.8,0.9,1.1,1.4s0.4,1.2,0.4,1.9h-2c0-0.4-0.2-0.8-0.3-1.2s-0.4-0.7-0.6-0.9s-0.6-0.4-0.9-0.6s-0.8-0.2-1.2-0.2
		c-0.4,0-0.7,0.1-1.1,0.2c-0.4,0.1-0.6,0.3-0.9,0.5s-0.5,0.5-0.6,0.8s-0.2,0.7-0.2,1.1c0,0.4,0.1,0.8,0.3,1.1s0.5,0.6,0.8,0.8
		s0.7,0.4,1.1,0.5c0.4,0.1,0.7,0.3,1.1,0.4c0.4,0.1,0.7,0.2,1.1,0.4c0.4,0.2,0.7,0.3,1.1,0.5s0.7,0.4,1,0.7s0.6,0.5,0.8,0.8
		c0.2,0.3,0.4,0.6,0.5,1c0.1,0.4,0.2,0.8,0.2,1.2c0,0.7-0.1,1.2-0.5,1.8s-0.7,0.9-1.1,1.2s-1,0.6-1.6,0.8c-0.6,0.2-1.2,0.2-1.8,0.2
		c-0.7,0-1.3-0.1-2-0.3s-1.2-0.5-1.7-0.9c-0.5-0.4-0.9-0.9-1.2-1.4c-0.3-0.6-0.5-1.2-0.5-1.9h1.9c0.1,0.5,0.2,0.9,0.4,1.2
		s0.4,0.7,0.7,0.9s0.6,0.4,1,0.6c0.4,0.1,0.8,0.2,1.3,0.2c0.4,0,0.7-0.1,1.1-0.1s0.7-0.2,1-0.4c0.3-0.2,0.5-0.4,0.7-0.7
		C355.5,126.3,355.6,126,355.6,125.6z"/>
	<path class="st1" d="M382.7,122.8c0,0.5,0,1.1-0.1,1.6c-0.1,0.5-0.2,1.1-0.4,1.6s-0.4,1-0.7,1.4c-0.3,0.4-0.6,0.8-1,1.1
		s-0.8,0.6-1.3,0.8c-0.5,0.2-1,0.3-1.7,0.3s-1.2-0.1-1.7-0.3s-0.9-0.4-1.3-0.8s-0.7-0.7-1-1.2s-0.5-0.9-0.7-1.4s-0.3-1-0.4-1.6
		s-0.1-1.1-0.1-1.6v-1.7c0-0.5,0-1.1,0.1-1.6c0.1-0.5,0.2-1.1,0.4-1.6s0.4-1,0.7-1.4s0.6-0.8,1-1.2s0.8-0.6,1.3-0.8s1-0.3,1.7-0.3
		s1.2,0.1,1.7,0.3s0.9,0.4,1.3,0.8s0.7,0.7,1,1.2s0.5,0.9,0.7,1.4s0.3,1,0.4,1.6c0.1,0.6,0.1,1.1,0.1,1.6V122.8L382.7,122.8z
		 M380.9,121c0-0.4,0-0.7-0.1-1.1c0-0.4-0.1-0.8-0.2-1.2c-0.1-0.4-0.2-0.7-0.4-1.1s-0.4-0.7-0.6-0.9s-0.5-0.5-0.9-0.6
		s-0.7-0.2-1.2-0.2c-0.4,0-0.8,0.1-1.2,0.2c-0.3,0.2-0.6,0.4-0.9,0.6c-0.2,0.3-0.5,0.6-0.6,0.9c-0.2,0.3-0.3,0.7-0.4,1.1
		s-0.2,0.8-0.2,1.2c0,0.4-0.1,0.8-0.1,1.1v1.7c0,0.3,0,0.7,0.1,1.1c0,0.4,0.1,0.8,0.2,1.2c0.1,0.4,0.2,0.7,0.4,1.1s0.4,0.7,0.6,0.9
		c0.2,0.3,0.5,0.5,0.9,0.6s0.7,0.2,1.2,0.2s0.8-0.1,1.2-0.2c0.3-0.2,0.6-0.4,0.9-0.6c0.2-0.3,0.4-0.6,0.6-0.9
		c0.2-0.3,0.3-0.7,0.4-1.1s0.2-0.8,0.2-1.2c0-0.4,0.1-0.8,0.1-1.1L380.9,121L380.9,121z"/>
	<path class="st1" d="M385.6,129.4v-14.9h4.4c0.6,0,1.2,0.1,1.8,0.2c0.6,0.2,1.1,0.4,1.6,0.7s0.8,0.7,1.1,1.2
		c0.3,0.5,0.4,1.1,0.4,1.8c0,0.4-0.1,0.8-0.2,1.1s-0.3,0.6-0.5,0.9s-0.5,0.5-0.7,0.7c-0.3,0.2-0.6,0.4-0.9,0.5
		c0.4,0.1,0.8,0.3,1.1,0.5s0.6,0.5,0.9,0.8s0.4,0.7,0.6,1s0.2,0.8,0.2,1.2c0,0.7-0.1,1.3-0.4,1.8s-0.6,1-1.1,1.3
		c-0.5,0.4-1,0.6-1.6,0.8s-1.2,0.3-1.9,0.3L385.6,129.4L385.6,129.4L385.6,129.4z M387.5,120.8h2.6c0.4,0,0.7-0.1,1-0.2
		c0.3-0.1,0.6-0.3,0.9-0.5c0.3-0.2,0.5-0.4,0.6-0.7s0.2-0.6,0.2-1c0-0.4-0.1-0.8-0.2-1.1s-0.4-0.5-0.6-0.7c-0.3-0.2-0.6-0.3-0.9-0.4
		s-0.7-0.1-1.1-0.1h-2.6L387.5,120.8L387.5,120.8L387.5,120.8z M387.5,122.4v5.4h2.9c0.4,0,0.8-0.1,1.1-0.2c0.4-0.1,0.7-0.3,0.9-0.5
		s0.5-0.5,0.6-0.8s0.2-0.7,0.2-1.1c0-0.4-0.1-0.8-0.2-1.1s-0.4-0.6-0.6-0.8s-0.6-0.4-0.9-0.5s-0.7-0.2-1.1-0.2L387.5,122.4
		L387.5,122.4L387.5,122.4z"/>
	<path class="st1" d="M406,125.6c0-0.5-0.1-0.8-0.3-1.2c-0.2-0.3-0.5-0.6-0.8-0.8c-0.3-0.2-0.7-0.4-1.1-0.5
		c-0.4-0.1-0.8-0.3-1.1-0.4c-0.5-0.2-1.1-0.4-1.6-0.6c-0.5-0.2-1-0.5-1.5-0.9s-0.8-0.8-1.1-1.2c-0.3-0.5-0.4-1-0.4-1.7
		c0-0.6,0.1-1.2,0.4-1.7c0.3-0.5,0.6-0.9,1.1-1.3s1-0.6,1.6-0.8s1.2-0.3,1.8-0.3c0.6,0,1.3,0.1,1.9,0.3c0.6,0.2,1.1,0.5,1.6,0.9
		s0.8,0.9,1.1,1.4s0.4,1.2,0.4,1.9h-2c0-0.4-0.2-0.8-0.3-1.2s-0.4-0.7-0.6-0.9s-0.6-0.4-0.9-0.6s-0.8-0.2-1.2-0.2
		c-0.4,0-0.7,0.1-1.1,0.2c-0.4,0.1-0.6,0.3-0.9,0.5c-0.3,0.2-0.5,0.5-0.6,0.8s-0.2,0.7-0.2,1.1c0,0.4,0.1,0.8,0.3,1.1
		s0.5,0.6,0.8,0.8s0.7,0.4,1.1,0.5c0.4,0.1,0.7,0.3,1.1,0.4c0.4,0.1,0.7,0.2,1.1,0.4c0.4,0.2,0.7,0.3,1.1,0.5s0.7,0.4,1,0.7
		s0.6,0.5,0.8,0.8c0.2,0.3,0.4,0.6,0.5,1c0.1,0.4,0.2,0.8,0.2,1.2c0,0.7-0.1,1.2-0.5,1.8s-0.7,0.9-1.1,1.2s-1,0.6-1.6,0.8
		c-0.6,0.2-1.2,0.2-1.8,0.2c-0.7,0-1.3-0.1-2-0.3c-0.6-0.2-1.2-0.5-1.7-0.9c-0.5-0.4-0.9-0.9-1.2-1.4c-0.3-0.6-0.5-1.2-0.5-1.9h1.9
		c0.1,0.5,0.2,0.9,0.4,1.2s0.4,0.7,0.7,0.9s0.6,0.4,1,0.6c0.4,0.1,0.8,0.2,1.3,0.2c0.4,0,0.7-0.1,1.1-0.1s0.7-0.2,1-0.4
		c0.3-0.2,0.5-0.4,0.7-0.7C405.9,126.3,406,126,406,125.6z"/>
	<path class="st1" d="M419,122.4h-6.2v5.3h7.3v1.6h-9.2v-14.9h9.1v1.6h-7.2v4.8h6.2L419,122.4L419,122.4L419,122.4z"/>
	<path class="st1" d="M431.2,125.6c0-0.5-0.1-0.8-0.3-1.2c-0.2-0.3-0.5-0.6-0.8-0.8c-0.3-0.2-0.7-0.4-1.1-0.5
		c-0.4-0.1-0.8-0.3-1.1-0.4c-0.5-0.2-1.1-0.4-1.6-0.6c-0.5-0.2-1-0.5-1.5-0.9s-0.8-0.8-1.1-1.2c-0.3-0.5-0.4-1-0.4-1.7
		c0-0.6,0.1-1.2,0.4-1.7c0.3-0.5,0.6-0.9,1.1-1.3s1-0.6,1.6-0.8s1.2-0.3,1.8-0.3c0.6,0,1.3,0.1,1.9,0.3c0.6,0.2,1.1,0.5,1.6,0.9
		s0.8,0.9,1.1,1.4s0.4,1.2,0.4,1.9h-2c0-0.4-0.2-0.8-0.3-1.2s-0.4-0.7-0.6-0.9s-0.6-0.4-0.9-0.6s-0.8-0.2-1.2-0.2
		c-0.4,0-0.7,0.1-1.1,0.2c-0.4,0.1-0.6,0.3-0.9,0.5c-0.3,0.2-0.5,0.5-0.6,0.8s-0.2,0.7-0.2,1.1c0,0.4,0.1,0.8,0.3,1.1
		s0.5,0.6,0.8,0.8s0.7,0.4,1.1,0.5c0.4,0.1,0.7,0.3,1.1,0.4c0.4,0.1,0.7,0.2,1.1,0.4c0.4,0.2,0.7,0.3,1.1,0.5s0.7,0.4,1,0.7
		s0.6,0.5,0.8,0.8c0.2,0.3,0.4,0.6,0.5,1c0.1,0.4,0.2,0.8,0.2,1.2c0,0.7-0.1,1.2-0.5,1.8s-0.7,0.9-1.1,1.2s-1,0.6-1.6,0.8
		c-0.6,0.2-1.2,0.2-1.8,0.2c-0.7,0-1.3-0.1-2-0.3c-0.6-0.2-1.2-0.5-1.7-0.9c-0.5-0.4-0.9-0.9-1.2-1.4c-0.3-0.6-0.5-1.2-0.5-1.9h1.9
		c0.1,0.5,0.2,0.9,0.4,1.2s0.4,0.7,0.7,0.9s0.6,0.4,1,0.6c0.4,0.1,0.8,0.2,1.3,0.2c0.4,0,0.7-0.1,1.1-0.1s0.7-0.2,1-0.4
		c0.3-0.2,0.5-0.4,0.7-0.7C431.1,126.3,431.2,126,431.2,125.6z"/>
	<path class="st1" d="M443.8,125.6c0-0.5-0.1-0.8-0.3-1.2c-0.2-0.3-0.5-0.6-0.8-0.8c-0.3-0.2-0.7-0.4-1.1-0.5
		c-0.4-0.1-0.8-0.3-1.1-0.4c-0.5-0.2-1.1-0.4-1.6-0.6c-0.5-0.2-1-0.5-1.5-0.9s-0.8-0.8-1.1-1.2c-0.3-0.5-0.4-1-0.4-1.7
		c0-0.6,0.1-1.2,0.4-1.7c0.3-0.5,0.6-0.9,1.1-1.3s1-0.6,1.6-0.8s1.2-0.3,1.8-0.3c0.6,0,1.3,0.1,1.9,0.3c0.6,0.2,1.1,0.5,1.6,0.9
		s0.8,0.9,1.1,1.4s0.4,1.2,0.4,1.9h-2c0-0.4-0.2-0.8-0.3-1.2s-0.4-0.7-0.6-0.9s-0.6-0.4-0.9-0.6s-0.8-0.2-1.2-0.2
		c-0.4,0-0.7,0.1-1.1,0.2c-0.4,0.1-0.6,0.3-0.9,0.5c-0.3,0.2-0.5,0.5-0.6,0.8s-0.2,0.7-0.2,1.1c0,0.4,0.1,0.8,0.3,1.1
		s0.5,0.6,0.8,0.8s0.7,0.4,1.1,0.5c0.4,0.1,0.7,0.3,1.1,0.4c0.4,0.1,0.7,0.2,1.1,0.4c0.4,0.2,0.7,0.3,1.1,0.5s0.7,0.4,1,0.7
		s0.6,0.5,0.8,0.8c0.2,0.3,0.4,0.6,0.5,1c0.1,0.4,0.2,0.8,0.2,1.2c0,0.7-0.1,1.2-0.5,1.8s-0.7,0.9-1.1,1.2s-1,0.6-1.6,0.8
		c-0.6,0.2-1.2,0.2-1.8,0.2c-0.7,0-1.3-0.1-2-0.3c-0.6-0.2-1.2-0.5-1.7-0.9c-0.5-0.4-0.9-0.9-1.2-1.4c-0.3-0.6-0.5-1.2-0.5-1.9h1.9
		c0.1,0.5,0.2,0.9,0.4,1.2s0.4,0.7,0.7,0.9s0.6,0.4,1,0.6c0.4,0.1,0.8,0.2,1.3,0.2c0.4,0,0.7-0.1,1.1-0.1s0.7-0.2,1-0.4
		c0.3-0.2,0.5-0.4,0.7-0.7C443.8,126.3,443.8,126,443.8,125.6z"/>
	<path class="st1" d="M448.6,114.4h9v1.7h-3.6v11.6h3.6v1.6h-9v-1.6h3.5v-11.6h-3.5V114.4z"/>
	<path class="st1" d="M470.9,122.8c0,0.5,0,1.1-0.1,1.6c-0.1,0.5-0.2,1.1-0.4,1.6s-0.4,1-0.7,1.4c-0.3,0.4-0.6,0.8-1,1.1
		s-0.8,0.6-1.3,0.8c-0.5,0.2-1,0.3-1.7,0.3s-1.2-0.1-1.7-0.3s-0.9-0.4-1.3-0.8s-0.7-0.7-1-1.2s-0.5-0.9-0.7-1.4s-0.3-1-0.4-1.6
		s-0.1-1.1-0.1-1.6v-1.7c0-0.5,0-1.1,0.1-1.6c0.1-0.5,0.2-1.1,0.4-1.6c0.2-0.5,0.4-1,0.7-1.4s0.6-0.8,1-1.2s0.8-0.6,1.3-0.8
		s1-0.3,1.7-0.3s1.2,0.1,1.7,0.3s0.9,0.4,1.3,0.8s0.7,0.7,1,1.2s0.5,0.9,0.7,1.4s0.3,1,0.4,1.6c0.1,0.6,0.1,1.1,0.1,1.6V122.8
		L470.9,122.8z M469.1,121c0-0.4,0-0.7-0.1-1.1c0-0.4-0.1-0.8-0.2-1.2c-0.1-0.4-0.2-0.7-0.4-1.1s-0.4-0.7-0.6-0.9s-0.5-0.5-0.9-0.6
		c-0.3-0.2-0.7-0.2-1.2-0.2s-0.8,0.1-1.2,0.2c-0.3,0.2-0.6,0.4-0.9,0.6s-0.5,0.6-0.6,0.9c-0.2,0.3-0.3,0.7-0.4,1.1s-0.2,0.8-0.2,1.2
		c0,0.4-0.1,0.8-0.1,1.1v1.7c0,0.3,0,0.7,0.1,1.1c0,0.4,0.1,0.8,0.2,1.2c0.1,0.4,0.2,0.7,0.4,1.1s0.4,0.7,0.6,0.9
		c0.2,0.3,0.5,0.5,0.9,0.6s0.7,0.2,1.2,0.2c0.4,0,0.8-0.1,1.2-0.2c0.3-0.2,0.6-0.4,0.9-0.6c0.2-0.3,0.4-0.6,0.6-0.9
		c0.2-0.3,0.3-0.7,0.4-1.1s0.2-0.8,0.2-1.2c0-0.4,0.1-0.8,0.1-1.1L469.1,121L469.1,121L469.1,121z"/>
	<path class="st1" d="M483.2,129.4h-1.9l-5.8-11.2l0,11.2h-1.9v-14.9h1.9l5.8,11.1l0-11.1h1.9V129.4L483.2,129.4z"/>
	<path class="st1" d="M494.2,125.6c0-0.5-0.1-0.8-0.3-1.2c-0.2-0.3-0.5-0.6-0.8-0.8c-0.3-0.2-0.7-0.4-1.1-0.5
		c-0.4-0.1-0.8-0.3-1.1-0.4c-0.5-0.2-1.1-0.4-1.6-0.6c-0.5-0.2-1-0.5-1.5-0.9s-0.8-0.8-1.1-1.2c-0.3-0.5-0.4-1-0.4-1.7
		c0-0.6,0.1-1.2,0.4-1.7c0.3-0.5,0.7-0.9,1.1-1.3c0.5-0.3,1-0.6,1.6-0.8s1.2-0.3,1.8-0.3c0.7,0,1.3,0.1,1.9,0.3
		c0.6,0.2,1.1,0.5,1.6,0.9s0.8,0.9,1.1,1.4c0.3,0.6,0.4,1.2,0.4,1.9h-2c-0.1-0.4-0.2-0.8-0.3-1.2c-0.2-0.3-0.4-0.7-0.6-0.9
		c-0.3-0.2-0.6-0.4-0.9-0.6s-0.8-0.2-1.2-0.2c-0.4,0-0.7,0.1-1.1,0.2s-0.7,0.3-0.9,0.5c-0.3,0.2-0.5,0.5-0.7,0.8
		c-0.2,0.3-0.2,0.7-0.2,1.1c0,0.4,0.1,0.8,0.3,1.1s0.5,0.6,0.8,0.8c0.3,0.2,0.7,0.4,1.1,0.5c0.4,0.1,0.7,0.3,1.1,0.4
		c0.4,0.1,0.7,0.2,1.1,0.4c0.4,0.2,0.7,0.3,1.1,0.5c0.3,0.2,0.7,0.4,1,0.7s0.6,0.5,0.8,0.8c0.2,0.3,0.4,0.6,0.5,1
		c0.1,0.4,0.2,0.8,0.2,1.2c0,0.7-0.2,1.2-0.5,1.8s-0.7,0.9-1.2,1.2c-0.5,0.3-1,0.6-1.6,0.8c-0.6,0.2-1.2,0.2-1.8,0.2
		c-0.7,0-1.3-0.1-2-0.3c-0.6-0.2-1.2-0.5-1.7-0.9c-0.5-0.4-0.9-0.9-1.2-1.4c-0.3-0.6-0.5-1.2-0.5-1.9h1.9c0.1,0.5,0.2,0.9,0.4,1.2
		s0.4,0.7,0.7,0.9s0.7,0.4,1,0.6c0.4,0.1,0.8,0.2,1.3,0.2c0.4,0,0.7-0.1,1.1-0.1s0.7-0.2,1-0.4c0.3-0.2,0.5-0.4,0.7-0.7
		C494.2,126.3,494.2,126,494.2,125.6z"/>
	<path class="st1" d="M503.8,128.9c0,0.3,0,0.7-0.1,1c-0.1,0.4-0.2,0.7-0.3,1.1c-0.2,0.3-0.3,0.7-0.6,1c-0.2,0.3-0.5,0.6-0.8,0.8
		l-1.2-0.6c0.3-0.5,0.6-1,0.7-1.5s0.2-1.1,0.2-1.7v-1.8h2.1L503.8,128.9L503.8,128.9z"/>
	<path class="st1" d="M532.5,122.8h-6.2v6.6h-1.9v-14.9h9.2v1.6h-7.2v5.1h6.2V122.8z"/>
	<path class="st1" d="M544,125.5h-5l-1.2,3.9h-1.9l4.8-14.9h1.6l4.7,14.9h-1.9L544,125.5z M539.5,123.8h4l-2-6.5L539.5,123.8z"/>
	<path class="st1" d="M558.8,129.4h-1.9l-5.8-11.2l0,11.2h-1.9v-14.9h1.9l5.8,11.1l0-11.1h1.9V129.4z"/>
	<path class="st1" d="M572.1,116h-4.6v13.3h-1.8V116H561v-1.6h11.1L572.1,116L572.1,116z"/>
	<path class="st1" d="M581.8,125.5h-5l-1.2,3.9h-1.9l4.8-14.9h1.6l4.7,14.9H583L581.8,125.5z M577.3,123.8h4l-2-6.5L577.3,123.8z"/>
	<path class="st1" d="M595.1,125.6c0-0.5-0.1-0.8-0.3-1.2c-0.2-0.3-0.5-0.6-0.8-0.8c-0.3-0.2-0.7-0.4-1.1-0.5
		c-0.4-0.1-0.8-0.3-1.1-0.4c-0.5-0.2-1.1-0.4-1.6-0.6c-0.5-0.2-1-0.5-1.5-0.9s-0.8-0.8-1.1-1.2c-0.3-0.5-0.4-1-0.4-1.7
		c0-0.6,0.1-1.2,0.4-1.7c0.3-0.5,0.7-0.9,1.1-1.3c0.5-0.3,1-0.6,1.6-0.8s1.2-0.3,1.8-0.3c0.7,0,1.3,0.1,1.9,0.3
		c0.6,0.2,1.1,0.5,1.6,0.9s0.8,0.9,1.1,1.4c0.3,0.6,0.4,1.2,0.4,1.9h-2c-0.1-0.4-0.2-0.8-0.3-1.2c-0.2-0.3-0.4-0.7-0.6-0.9
		c-0.3-0.2-0.6-0.4-0.9-0.6s-0.8-0.2-1.2-0.2c-0.4,0-0.7,0.1-1.1,0.2s-0.7,0.3-0.9,0.5c-0.3,0.2-0.5,0.5-0.7,0.8
		c-0.2,0.3-0.2,0.7-0.2,1.1c0,0.4,0.1,0.8,0.3,1.1s0.5,0.6,0.8,0.8c0.3,0.2,0.7,0.4,1.1,0.5c0.4,0.1,0.7,0.3,1.1,0.4
		c0.4,0.1,0.7,0.2,1.1,0.4c0.4,0.2,0.7,0.3,1.1,0.5c0.3,0.2,0.7,0.4,1,0.7s0.6,0.5,0.8,0.8c0.2,0.3,0.4,0.6,0.5,1
		c0.1,0.4,0.2,0.8,0.2,1.2c0,0.7-0.2,1.2-0.5,1.8s-0.7,0.9-1.2,1.2c-0.5,0.3-1,0.6-1.6,0.8c-0.6,0.2-1.2,0.2-1.8,0.2
		c-0.7,0-1.3-0.1-2-0.3c-0.6-0.2-1.2-0.5-1.7-0.9c-0.5-0.4-0.9-0.9-1.2-1.4c-0.3-0.6-0.5-1.2-0.5-1.9h1.9c0.1,0.5,0.2,0.9,0.4,1.2
		s0.4,0.7,0.7,0.9s0.7,0.4,1,0.6c0.4,0.1,0.8,0.2,1.3,0.2c0.4,0,0.7-0.1,1.1-0.1s0.7-0.2,1-0.4c0.3-0.2,0.5-0.4,0.7-0.7
		C595,126.3,595.1,126,595.1,125.6z"/>
	<path class="st1" d="M599.8,114.4h9v1.7h-3.6v11.6h3.6v1.6h-9v-1.6h3.5v-11.6h-3.5V114.4z"/>
	<path class="st1" d="M620.7,122.4h-6.2v5.3h7.3v1.6h-9.2v-14.9h9.1v1.6h-7.2v4.8h6.2L620.7,122.4L620.7,122.4z"/>
	<path class="st1" d="M632.9,125.6c0-0.5-0.1-0.8-0.3-1.2c-0.2-0.3-0.5-0.6-0.8-0.8c-0.3-0.2-0.7-0.4-1.1-0.5
		c-0.4-0.1-0.8-0.3-1.1-0.4c-0.5-0.2-1.1-0.4-1.6-0.6c-0.5-0.2-1-0.5-1.5-0.9s-0.8-0.8-1.1-1.2c-0.3-0.5-0.4-1-0.4-1.7
		c0-0.6,0.1-1.2,0.4-1.7c0.3-0.5,0.7-0.9,1.1-1.3c0.5-0.3,1-0.6,1.6-0.8s1.2-0.3,1.8-0.3c0.7,0,1.3,0.1,1.9,0.3
		c0.6,0.2,1.1,0.5,1.6,0.9s0.8,0.9,1.1,1.4c0.3,0.6,0.4,1.2,0.4,1.9h-2c-0.1-0.4-0.2-0.8-0.3-1.2c-0.2-0.3-0.4-0.7-0.6-0.9
		c-0.3-0.2-0.6-0.4-0.9-0.6s-0.8-0.2-1.2-0.2c-0.4,0-0.7,0.1-1.1,0.2s-0.7,0.3-0.9,0.5c-0.3,0.2-0.5,0.5-0.7,0.8
		c-0.2,0.3-0.2,0.7-0.2,1.1c0,0.4,0.1,0.8,0.3,1.1s0.5,0.6,0.8,0.8c0.3,0.2,0.7,0.4,1.1,0.5c0.4,0.1,0.7,0.3,1.1,0.4
		c0.4,0.1,0.7,0.2,1.1,0.4c0.4,0.2,0.7,0.3,1.1,0.5c0.3,0.2,0.7,0.4,1,0.7s0.6,0.5,0.8,0.8c0.2,0.3,0.4,0.6,0.5,1
		c0.1,0.4,0.2,0.8,0.2,1.2c0,0.7-0.2,1.2-0.5,1.8s-0.7,0.9-1.2,1.2c-0.5,0.3-1,0.6-1.6,0.8c-0.6,0.2-1.2,0.2-1.8,0.2
		c-0.7,0-1.3-0.1-2-0.3c-0.6-0.2-1.2-0.5-1.7-0.9c-0.5-0.4-0.9-0.9-1.2-1.4c-0.3-0.6-0.5-1.2-0.5-1.9h1.9c0.1,0.5,0.2,0.9,0.4,1.2
		s0.4,0.7,0.7,0.9s0.7,0.4,1,0.6c0.4,0.1,0.8,0.2,1.3,0.2c0.4,0,0.7-0.1,1.1-0.1s0.7-0.2,1-0.4c0.3-0.2,0.5-0.4,0.7-0.7
		C632.8,126.3,632.9,126,632.9,125.6z"/>
	<path class="st1" d="M642.5,128.9c0,0.3,0,0.7-0.1,1c-0.1,0.4-0.2,0.7-0.3,1.1c-0.2,0.3-0.3,0.7-0.6,1c-0.2,0.3-0.5,0.6-0.8,0.8
		l-1.2-0.6c0.3-0.5,0.6-1,0.7-1.5s0.2-1.1,0.2-1.7v-1.8h2.1L642.5,128.9L642.5,128.9z"/>
	<path class="st1" d="M305.7,158.8h-6.2v6.6h-1.9v-14.9h9.2v1.6h-7.2v5.1h6.2V158.8L305.7,158.8z"/>
	<path class="st1" d="M317.1,161.5h-5l-1.2,3.9H309l4.8-14.9h1.6l4.7,14.9h-1.9L317.1,161.5z M312.7,159.8h4l-2-6.5L312.7,159.8z"/>
	<path class="st1" d="M327.1,162.3l3.5-11.9h2l-4.7,14.9h-1.6l-4.7-14.9h2L327.1,162.3z"/>
	<path class="st1" d="M344.9,158.8c0,0.5,0,1.1-0.1,1.6c-0.1,0.5-0.2,1.1-0.4,1.6s-0.4,1-0.7,1.4c-0.3,0.4-0.6,0.8-1,1.1
		s-0.8,0.6-1.3,0.8c-0.5,0.2-1,0.3-1.7,0.3s-1.2-0.1-1.7-0.3s-0.9-0.4-1.3-0.8s-0.7-0.7-1-1.1c-0.3-0.4-0.5-0.9-0.7-1.4
		s-0.3-1-0.4-1.6c-0.1-0.5-0.1-1.1-0.1-1.6v-1.7c0-0.5,0-1.1,0.1-1.6c0.1-0.5,0.2-1.1,0.4-1.6s0.4-1,0.7-1.4s0.6-0.8,1-1.2
		s0.8-0.6,1.3-0.8s1-0.3,1.7-0.3s1.2,0.1,1.7,0.3s0.9,0.4,1.3,0.8s0.7,0.7,1,1.1c0.3,0.4,0.5,0.9,0.7,1.4s0.3,1,0.4,1.6
		c0.1,0.6,0.1,1.1,0.1,1.6V158.8L344.9,158.8z M343,157c0-0.4,0-0.7-0.1-1.1c0-0.4-0.1-0.8-0.2-1.1c-0.1-0.4-0.2-0.7-0.4-1.1
		c-0.2-0.4-0.4-0.6-0.6-0.9c-0.2-0.3-0.5-0.5-0.9-0.6s-0.7-0.2-1.2-0.2c-0.4,0-0.8,0.1-1.2,0.2s-0.6,0.4-0.9,0.6
		c-0.2,0.3-0.5,0.6-0.6,0.9c-0.2,0.4-0.3,0.7-0.4,1.1c-0.1,0.4-0.2,0.8-0.2,1.1c0,0.4-0.1,0.8-0.1,1.1v1.7c0,0.4,0,0.7,0.1,1.1
		c0,0.4,0.1,0.8,0.2,1.1c0.1,0.4,0.2,0.7,0.4,1.1c0.2,0.4,0.4,0.6,0.6,0.9c0.2,0.3,0.5,0.5,0.9,0.6s0.7,0.2,1.2,0.2s0.8-0.1,1.2-0.2
		c0.3-0.2,0.6-0.4,0.9-0.6s0.4-0.6,0.6-0.9c0.2-0.4,0.3-0.7,0.4-1.1c0.1-0.4,0.2-0.8,0.2-1.1c0-0.4,0.1-0.8,0.1-1.1L343,157L343,157
		z"/>
	<path class="st1" d="M352.8,159.3h-3v6.1h-1.9v-14.9h4.4c0.7,0,1.4,0.1,2,0.3s1.1,0.5,1.6,0.8c0.5,0.4,0.8,0.8,1.1,1.4
		c0.3,0.6,0.4,1.2,0.4,2c0,0.5-0.1,0.9-0.2,1.3s-0.3,0.8-0.6,1.1s-0.5,0.6-0.9,0.9s-0.7,0.5-1.1,0.6l3.2,6.4l0,0.1h-2L352.8,159.3z
		 M349.8,157.7h2.5c0.4,0,0.8-0.1,1.2-0.2s0.7-0.3,1-0.6s0.5-0.5,0.7-0.9s0.2-0.7,0.2-1.2c0-0.5-0.1-0.9-0.2-1.3s-0.4-0.7-0.7-0.9
		c-0.3-0.2-0.6-0.4-1-0.6c-0.4-0.1-0.8-0.2-1.3-0.2h-2.5L349.8,157.7L349.8,157.7z"/>
	<path class="st1" d="M360.4,150.4h9v1.6h-3.6v11.6h3.6v1.6h-9v-1.6h3.5v-11.6h-3.5L360.4,150.4L360.4,150.4z"/>
	<path class="st1" d="M383.1,152h-4.6v13.3h-1.9V152H372v-1.6h11.1L383.1,152L383.1,152z"/>
	<path class="st1" d="M393.8,158.4h-6.2v5.3h7.3v1.6h-9.2v-14.9h9.1v1.6h-7.2v4.8h6.2L393.8,158.4L393.8,158.4L393.8,158.4z"/>
	<path class="st1" d="M412.9,150.4l2.4,7.5l2.6-7.5h2.4v14.9h-1.9v-6l0.1-6.2l-2.8,8h-1.1l-2.5-7.8l0.1,6v6h-1.9v-14.9L412.9,150.4
		L412.9,150.4L412.9,150.4z"/>
	<path class="st1" d="M431.6,158.4h-6.2v5.3h7.3v1.6h-9.2v-14.9h9.1v1.6h-7.2v4.8h6.2L431.6,158.4L431.6,158.4L431.6,158.4z"/>
	<path class="st1" d="M435.8,165.4v-14.9h3.5c1,0,2,0.2,2.8,0.5c0.8,0.3,1.5,0.8,2.1,1.4c0.6,0.6,1,1.3,1.3,2.2s0.5,1.8,0.5,2.8v1.1
		c0,1-0.2,2-0.5,2.8s-0.7,1.6-1.3,2.2s-1.2,1.1-2.1,1.4s-1.8,0.5-2.8,0.5L435.8,165.4L435.8,165.4z M437.8,152v11.8h1.5
		c0.8,0,1.5-0.1,2.1-0.4c0.6-0.3,1.1-0.6,1.5-1.1s0.7-1,0.9-1.7s0.3-1.4,0.3-2.1v-1.1c0-0.8-0.1-1.5-0.3-2.1s-0.5-1.2-0.9-1.7
		c-0.4-0.5-0.9-0.9-1.5-1.1s-1.3-0.4-2.1-0.4L437.8,152L437.8,152z"/>
	<path class="st1" d="M448.6,150.4h9v1.6h-3.6v11.6h3.6v1.6h-9v-1.6h3.5v-11.6h-3.5V150.4z"/>
	<path class="st1" d="M468.4,161.5h-5l-1.2,3.9h-1.9l4.8-14.9h1.6l4.7,14.9h-1.9L468.4,161.5z M463.9,159.8h4l-2-6.5L463.9,159.8z"
		/>
	<path class="st1" d="M493.6,161.5h-5l-1.2,3.9h-1.9l4.8-14.9h1.6l4.7,14.9h-1.9L493.6,161.5z M489.1,159.8h4l-2-6.5L489.1,159.8z"
		/>
	<path class="st1" d="M508.4,165.4h-1.9l-5.8-11.2l0,11.2h-1.9v-14.9h1.9l5.8,11.1l0-11.1h1.9V165.4z"/>
	<path class="st1" d="M511.4,165.4v-14.9h3.5c1,0,2,0.2,2.8,0.5c0.8,0.3,1.5,0.8,2.1,1.4c0.6,0.6,1,1.3,1.3,2.2s0.5,1.8,0.5,2.8v1.1
		c0,1-0.2,2-0.5,2.8s-0.7,1.6-1.3,2.2s-1.2,1.1-2.1,1.4s-1.8,0.5-2.8,0.5L511.4,165.4L511.4,165.4z M513.4,152v11.8h1.5
		c0.8,0,1.5-0.1,2.1-0.4c0.6-0.3,1.1-0.6,1.5-1.1c0.4-0.5,0.7-1,0.9-1.7s0.3-1.4,0.3-2.1v-1.1c0-0.8-0.1-1.5-0.3-2.1
		s-0.5-1.2-0.9-1.7c-0.4-0.5-0.9-0.9-1.5-1.1c-0.6-0.3-1.3-0.4-2.1-0.4L513.4,152L513.4,152z"/>
	<path class="st1" d="M544.2,161.3l1.1-10.9h1.8l-1.8,14.9h-1.9l-1.9-11.2l-1.9,11.2h-2l-1.8-14.9h1.8l1.1,10.9l1.9-10.9h1.7
		L544.2,161.3z"/>
	<path class="st1" d="M559.2,158.8c0,0.5,0,1.1-0.1,1.6c-0.1,0.5-0.2,1.1-0.4,1.6s-0.4,1-0.7,1.4c-0.3,0.4-0.6,0.8-1,1.1
		s-0.8,0.6-1.3,0.8c-0.5,0.2-1,0.3-1.7,0.3s-1.2-0.1-1.7-0.3s-0.9-0.4-1.3-0.8s-0.7-0.7-1-1.1c-0.3-0.4-0.5-0.9-0.7-1.4
		s-0.3-1-0.4-1.6c-0.1-0.5-0.1-1.1-0.1-1.6v-1.7c0-0.5,0-1.1,0.1-1.6c0.1-0.5,0.2-1.1,0.4-1.6c0.2-0.5,0.4-1,0.7-1.4s0.6-0.8,1-1.2
		s0.8-0.6,1.3-0.8s1-0.3,1.7-0.3s1.2,0.1,1.7,0.3s0.9,0.4,1.3,0.8s0.7,0.7,1,1.1c0.3,0.4,0.5,0.9,0.7,1.4s0.3,1,0.4,1.6
		c0.1,0.6,0.1,1.1,0.1,1.6L559.2,158.8L559.2,158.8z M557.3,157c0-0.4,0-0.7-0.1-1.1c0-0.4-0.1-0.8-0.2-1.1
		c-0.1-0.4-0.2-0.7-0.4-1.1c-0.2-0.4-0.4-0.6-0.6-0.9c-0.2-0.3-0.5-0.5-0.9-0.6c-0.3-0.1-0.7-0.2-1.2-0.2s-0.8,0.1-1.2,0.2
		c-0.3,0.2-0.6,0.4-0.9,0.6s-0.5,0.6-0.6,0.9c-0.2,0.4-0.3,0.7-0.4,1.1c-0.1,0.4-0.2,0.8-0.2,1.1c0,0.4-0.1,0.8-0.1,1.1v1.7
		c0,0.4,0,0.7,0.1,1.1c0,0.4,0.1,0.8,0.2,1.1c0.1,0.4,0.2,0.7,0.4,1.1c0.2,0.4,0.4,0.6,0.6,0.9c0.2,0.3,0.5,0.5,0.9,0.6
		s0.7,0.2,1.2,0.2c0.4,0,0.8-0.1,1.2-0.2s0.6-0.4,0.9-0.6s0.4-0.6,0.6-0.9c0.2-0.4,0.3-0.7,0.4-1.1c0.1-0.4,0.2-0.8,0.2-1.1
		c0-0.4,0.1-0.8,0.1-1.1L557.3,157L557.3,157L557.3,157z"/>
	<path class="st1" d="M567,159.3h-3v6.1h-1.9v-14.9h4.4c0.7,0,1.3,0.1,2,0.3s1.2,0.5,1.6,0.8c0.5,0.4,0.8,0.8,1.1,1.4
		c0.3,0.6,0.4,1.2,0.4,2c0,0.5-0.1,0.9-0.2,1.3c-0.1,0.4-0.3,0.8-0.6,1.1s-0.5,0.6-0.9,0.9s-0.7,0.5-1.1,0.6l3.2,6.4l0,0.1h-2
		L567,159.3z M564,157.7h2.5c0.4,0,0.8-0.1,1.2-0.2s0.7-0.3,1-0.6c0.3-0.2,0.5-0.5,0.7-0.9s0.2-0.7,0.2-1.2c0-0.5-0.1-0.9-0.2-1.3
		s-0.4-0.7-0.7-0.9c-0.3-0.2-0.6-0.4-1-0.6c-0.4-0.1-0.8-0.2-1.3-0.2H564L564,157.7L564,157.7z"/>
	<path class="st1" d="M578.2,158.4l-1.7,1.9v5h-1.9v-14.9h1.9v7.3l1.5-1.8l4.4-5.5h2.3l-5.2,6.5l5.6,8.4h-2.3L578.2,158.4z"/>
	<path class="st1" d="M595.1,161.6c0-0.5-0.1-0.8-0.3-1.2c-0.2-0.3-0.5-0.6-0.8-0.8c-0.3-0.2-0.7-0.4-1.1-0.5
		c-0.4-0.1-0.8-0.3-1.1-0.4c-0.5-0.2-1.1-0.4-1.6-0.6c-0.5-0.2-1-0.5-1.5-0.9s-0.8-0.8-1.1-1.2c-0.3-0.5-0.4-1-0.4-1.7
		c0-0.6,0.1-1.2,0.4-1.7c0.3-0.5,0.7-0.9,1.1-1.3c0.5-0.4,1-0.6,1.6-0.8s1.2-0.3,1.8-0.3c0.7,0,1.3,0.1,1.9,0.3
		c0.6,0.2,1.1,0.5,1.6,0.9s0.8,0.9,1.1,1.4c0.3,0.6,0.4,1.2,0.4,1.9h-2c-0.1-0.4-0.2-0.8-0.3-1.2c-0.2-0.4-0.4-0.6-0.6-0.9
		c-0.3-0.2-0.6-0.4-0.9-0.6s-0.8-0.2-1.2-0.2c-0.4,0-0.7,0.1-1.1,0.1c-0.3,0.1-0.7,0.3-0.9,0.5c-0.3,0.2-0.5,0.5-0.7,0.8
		c-0.2,0.3-0.2,0.6-0.2,1.1c0,0.4,0.1,0.8,0.3,1.1s0.5,0.6,0.8,0.8c0.3,0.2,0.7,0.4,1.1,0.5c0.4,0.1,0.7,0.3,1.1,0.4
		c0.4,0.1,0.7,0.2,1.1,0.4c0.4,0.1,0.7,0.3,1.1,0.5c0.3,0.2,0.7,0.4,1,0.6s0.6,0.5,0.8,0.8c0.2,0.3,0.4,0.6,0.5,1
		c0.1,0.4,0.2,0.8,0.2,1.2c0,0.7-0.2,1.2-0.5,1.8s-0.7,0.9-1.2,1.2c-0.5,0.3-1,0.6-1.6,0.8c-0.6,0.2-1.2,0.2-1.8,0.2
		c-0.7,0-1.3-0.1-2-0.3c-0.6-0.2-1.2-0.5-1.7-0.9c-0.5-0.4-0.9-0.9-1.2-1.4c-0.3-0.6-0.5-1.2-0.5-1.9h1.9c0.1,0.5,0.2,0.9,0.4,1.2
		s0.4,0.7,0.7,0.9s0.7,0.4,1,0.6c0.4,0.1,0.8,0.2,1.3,0.2c0.4,0,0.7-0.1,1.1-0.1s0.7-0.2,1-0.4c0.3-0.2,0.5-0.4,0.7-0.7
		C595,162.3,595.1,162,595.1,161.6z"/>
</g>
<circle class="st0" cx="75.1" cy="73.4" r="43"/>
<circle class="st0" cx="75.1" cy="73.4" r="30.4"/>
<line class="st0" x1="75" y1="20.7" x2="75" y2="126.2"/>
<line class="st0" x1="127.8" y1="73.4" x2="22.3" y2="73.4"/>
</svg>
