<?xml version="1.0" encoding="utf-8"?>
<!-- Generator: Adobe Illustrator 23.0.4, SVG Export Plug-In . SVG Version: 6.00 Build 0)  -->
<svg version="1.1" id="Layer_1" xmlns="http://www.w3.org/2000/svg" xmlns:xlink="http://www.w3.org/1999/xlink" x="0px" y="0px"
	 viewBox="0 0 1000 500" style="enable-background:new 0 0 1000 500;" xml:space="preserve">
<style type="text/css">
	.st0{fill:none;stroke:#00FF00;stroke-width:6;stroke-miterlimit:10;}
	.st1{fill:#00FF00;}
</style>
<rect x="190.8" y="80.8" class="st0" width="450.6" height="187.1"/>
<rect x="190.8" y="86.8" class="st0" width="450.6" height="175.1"/>
<g>
	<path class="st1" d="M331.8,120.4h4v4h-4v12h-8v-20.1h8V120.4z M347.9,116.3v4h-12.1v-4H347.9z"/>
	<path class="st1" d="M355.9,136.4v-4h-4v-12.1h4v-4H376v4h4v8h-20.1v4H376v4H355.9z M359.9,124.4h12v-4h-12V124.4z"/>
	<path class="st1" d="M384,140.4v-24.1h24.1v4h4v8h-4v4H392v8L384,140.4L384,140.4z M392,128.4h12v-8h-12V128.4z"/>
	<path class="st1" d="M420.1,136.4v-4h-4v-12.1h4v-4h20.1v4h4v12.1h-4v4H420.1z M424.1,132.4h12v-12.1h-12V132.4z"/>
	<path class="st1" d="M460.3,120.4h4v4h-4v12h-8v-20.1h8V120.4z M476.4,116.3v4h-12.1v-4H476.4z"/>
	<path class="st1" d="M492.4,136.4v-16.1h-8v-4h8v-8h8v8h8v4h-8v16.1H492.4z"/>
</g>
<rect x="190.8" y="161" class="st0" width="450.6" height="100.9"/>
<g>
	<path class="st1" d="M232.8,185.9h-4.6v13.3h-1.9v-13.3h-4.6v-1.6h11.1L232.8,185.9L232.8,185.9z"/>
	<path class="st1" d="M242.4,195.3h-5l-1.2,3.9h-1.9l4.8-14.9h1.6l4.7,14.9h-1.9L242.4,195.3z M238,193.7h4l-2-6.5L238,193.7z"/>
	<path class="st1" d="M252.9,193.1h-3v6.1H248v-14.9h4.4c0.7,0,1.4,0.1,2,0.3s1.1,0.5,1.6,0.8c0.5,0.4,0.8,0.8,1.1,1.4
		c0.3,0.6,0.4,1.2,0.4,2c0,0.5-0.1,0.9-0.2,1.3c-0.1,0.4-0.3,0.8-0.6,1.1s-0.5,0.6-0.9,0.9s-0.7,0.5-1.1,0.6l3.2,6.4l0,0.1h-2
		L252.9,193.1z M249.9,191.5h2.5c0.4,0,0.8-0.1,1.2-0.2c0.4-0.1,0.7-0.3,1-0.6s0.5-0.5,0.7-0.9s0.2-0.7,0.2-1.2
		c0-0.5-0.1-0.9-0.2-1.3s-0.4-0.7-0.7-0.9c-0.3-0.2-0.6-0.4-1-0.6s-0.8-0.2-1.3-0.2h-2.5L249.9,191.5L249.9,191.5z"/>
	<path class="st1" d="M270.2,197.2c-0.6,0.7-1.3,1.3-2.2,1.6c-0.8,0.4-1.7,0.5-2.7,0.5c-0.6,0-1.2-0.1-1.7-0.3s-1-0.4-1.4-0.8
		c-0.4-0.3-0.8-0.7-1.1-1.1s-0.6-0.9-0.8-1.4c-0.2-0.5-0.4-1-0.5-1.6c-0.1-0.6-0.2-1.1-0.2-1.7v-1.7c0-0.6,0.1-1.1,0.1-1.7
		s0.2-1.1,0.4-1.6s0.4-1,0.7-1.4c0.3-0.4,0.6-0.8,1-1.1s0.9-0.6,1.4-0.8c0.5-0.2,1.1-0.3,1.7-0.3c0.7,0,1.3,0.1,1.9,0.3
		s1.1,0.5,1.5,0.9c0.4,0.4,0.8,0.9,1.1,1.4c0.3,0.6,0.4,1.2,0.5,1.9h-1.9c-0.1-0.4-0.2-0.8-0.4-1.2s-0.4-0.7-0.6-0.9
		c-0.3-0.3-0.6-0.5-0.9-0.6c-0.4-0.1-0.8-0.2-1.2-0.2c-0.5,0-0.9,0.1-1.2,0.2c-0.3,0.1-0.6,0.4-0.9,0.6s-0.5,0.6-0.7,0.9
		c-0.2,0.3-0.3,0.7-0.4,1.1s-0.2,0.8-0.2,1.2c-0.1,0.4-0.1,0.8-0.1,1.1v1.8c0,0.4,0,0.8,0.1,1.2c0.1,0.4,0.2,0.8,0.3,1.2
		s0.3,0.8,0.5,1.1s0.4,0.6,0.7,0.9s0.6,0.5,0.9,0.6s0.8,0.2,1.2,0.2c0.3,0,0.5,0,0.8,0c0.3,0,0.6-0.1,0.8-0.2s0.5-0.2,0.8-0.3
		s0.4-0.3,0.6-0.6l0-3.4h-3v-1.6h4.8L270.2,197.2z"/>
	<path class="st1" d="M281.3,192.3h-6.2v5.3h7.3v1.6h-9.2v-14.9h9.1v1.6h-7.2v4.8h6.2L281.3,192.3L281.3,192.3z"/>
	<path class="st1" d="M295.8,185.9h-4.6v13.3h-1.9v-13.3h-4.6v-1.6h11.1V185.9L295.8,185.9z"/>
	<path class="st1" d="M310.9,199.2v-14.9h4.4c0.6,0,1.2,0.1,1.8,0.2c0.6,0.1,1.1,0.4,1.6,0.7s0.8,0.7,1.1,1.2
		c0.3,0.5,0.4,1.1,0.4,1.8c0,0.4-0.1,0.8-0.2,1.1s-0.3,0.6-0.5,0.9s-0.5,0.5-0.7,0.7s-0.6,0.4-0.9,0.5c0.4,0.1,0.8,0.3,1.1,0.5
		s0.6,0.5,0.9,0.8s0.4,0.6,0.6,1s0.2,0.8,0.2,1.2c0,0.7-0.1,1.3-0.4,1.9s-0.6,1-1.1,1.3s-1,0.6-1.6,0.8s-1.2,0.3-1.9,0.3
		L310.9,199.2L310.9,199.2z M312.8,190.6h2.6c0.4,0,0.7-0.1,1-0.2c0.3-0.1,0.6-0.3,0.9-0.5c0.3-0.2,0.5-0.4,0.6-0.7s0.2-0.6,0.2-1
		c0-0.4-0.1-0.8-0.2-1.1s-0.4-0.5-0.6-0.7c-0.3-0.2-0.6-0.3-0.9-0.4s-0.7-0.1-1.1-0.1h-2.6L312.8,190.6L312.8,190.6L312.8,190.6z
		 M312.8,192.2v5.4h2.9c0.4,0,0.8-0.1,1.1-0.2s0.7-0.3,0.9-0.5s0.5-0.5,0.6-0.8s0.2-0.7,0.2-1.1c0-0.4-0.1-0.8-0.2-1.1
		s-0.4-0.6-0.6-0.8s-0.6-0.4-0.9-0.5c-0.4-0.1-0.7-0.2-1.1-0.2L312.8,192.2L312.8,192.2L312.8,192.2z"/>
	<path class="st1" d="M323.5,184.3h9v1.6H329v11.6h3.6v1.6h-9v-1.6h3.5v-11.6h-3.5V184.3z"/>
	<path class="st1" d="M345.8,192.6c0,0.5,0,1.1-0.1,1.6c-0.1,0.5-0.2,1.1-0.4,1.6s-0.4,1-0.7,1.4c-0.3,0.4-0.6,0.8-1,1.1
		s-0.8,0.6-1.3,0.8c-0.5,0.2-1,0.3-1.7,0.3s-1.2-0.1-1.7-0.3s-0.9-0.4-1.3-0.8s-0.7-0.7-1-1.1c-0.3-0.4-0.5-0.9-0.7-1.4
		s-0.3-1-0.4-1.6c-0.1-0.5-0.1-1.1-0.1-1.6v-1.7c0-0.5,0-1.1,0.1-1.6c0.1-0.5,0.2-1.1,0.4-1.6s0.4-1,0.7-1.4s0.6-0.8,1-1.2
		s0.8-0.6,1.3-0.8s1-0.3,1.7-0.3s1.2,0.1,1.7,0.3s0.9,0.4,1.3,0.8s0.7,0.7,1,1.1c0.3,0.4,0.5,0.9,0.7,1.4s0.3,1,0.4,1.6
		c0.1,0.6,0.1,1.1,0.1,1.6L345.8,192.6L345.8,192.6z M344,190.9c0-0.4,0-0.7-0.1-1.1c0-0.4-0.1-0.8-0.2-1.1
		c-0.1-0.4-0.2-0.7-0.4-1.1c-0.2-0.4-0.4-0.6-0.6-0.9c-0.2-0.3-0.5-0.5-0.9-0.6s-0.7-0.2-1.2-0.2c-0.4,0-0.8,0.1-1.2,0.2
		s-0.6,0.4-0.9,0.6c-0.2,0.3-0.5,0.6-0.6,0.9c-0.2,0.4-0.3,0.7-0.4,1.1c-0.1,0.4-0.2,0.8-0.2,1.1c0,0.4-0.1,0.8-0.1,1.1v1.7
		c0,0.4,0,0.7,0.1,1.1c0,0.4,0.1,0.8,0.2,1.1c0.1,0.4,0.2,0.7,0.4,1.1c0.2,0.4,0.4,0.6,0.6,0.9c0.2,0.3,0.5,0.5,0.9,0.6
		s0.7,0.2,1.2,0.2s0.8-0.1,1.2-0.2c0.3-0.2,0.6-0.4,0.9-0.6s0.4-0.6,0.6-0.9c0.2-0.4,0.3-0.7,0.4-1.1c0.1-0.4,0.2-0.8,0.2-1.1
		c0-0.4,0.1-0.8,0.1-1.1L344,190.9L344,190.9L344,190.9z"/>
	<path class="st1" d="M358.4,197.2c-0.6,0.7-1.4,1.3-2.2,1.6c-0.8,0.4-1.7,0.5-2.7,0.5c-0.6,0-1.2-0.1-1.7-0.3s-1-0.4-1.4-0.8
		s-0.8-0.7-1.1-1.1s-0.6-0.9-0.8-1.4c-0.2-0.5-0.4-1-0.5-1.6c-0.1-0.6-0.2-1.1-0.2-1.7v-1.7c0-0.6,0.1-1.1,0.1-1.7s0.2-1.1,0.4-1.6
		s0.4-1,0.7-1.4c0.3-0.4,0.6-0.8,1-1.1s0.9-0.6,1.4-0.8c0.5-0.2,1.1-0.3,1.7-0.3c0.7,0,1.3,0.1,1.9,0.3s1.1,0.5,1.5,0.9
		s0.8,0.9,1.1,1.4c0.3,0.6,0.4,1.2,0.5,1.9h-1.9c-0.1-0.4-0.2-0.8-0.4-1.2s-0.4-0.7-0.6-0.9c-0.3-0.3-0.6-0.5-0.9-0.6
		s-0.8-0.2-1.2-0.2c-0.5,0-0.9,0.1-1.2,0.2s-0.6,0.4-0.9,0.6s-0.5,0.6-0.6,0.9c-0.2,0.3-0.3,0.7-0.4,1.1s-0.2,0.8-0.2,1.2
		s-0.1,0.8-0.1,1.1v1.8c0,0.4,0,0.8,0.1,1.2c0.1,0.4,0.1,0.8,0.3,1.2s0.3,0.8,0.5,1.1s0.4,0.6,0.7,0.9s0.6,0.5,0.9,0.6
		s0.8,0.2,1.2,0.2c0.3,0,0.5,0,0.8,0s0.6-0.1,0.8-0.2s0.5-0.2,0.8-0.3s0.4-0.3,0.6-0.6l0-3.4h-3v-1.6h4.8L358.4,197.2z"/>
	<path class="st1" d="M366.3,193.1h-3v6.1h-1.9v-14.9h4.4c0.7,0,1.4,0.1,2,0.3s1.1,0.5,1.6,0.8c0.5,0.4,0.8,0.8,1.1,1.4
		c0.3,0.6,0.4,1.2,0.4,2c0,0.5-0.1,0.9-0.2,1.3c-0.1,0.4-0.3,0.8-0.6,1.1s-0.5,0.6-0.9,0.9s-0.7,0.5-1.1,0.6l3.2,6.4l0,0.1h-2
		L366.3,193.1z M363.3,191.5h2.5c0.4,0,0.8-0.1,1.2-0.2c0.4-0.1,0.7-0.3,1-0.6s0.5-0.5,0.7-0.9s0.2-0.7,0.2-1.2
		c0-0.5-0.1-0.9-0.2-1.3s-0.4-0.7-0.7-0.9c-0.3-0.2-0.6-0.4-1-0.6c-0.4-0.1-0.8-0.2-1.3-0.2h-2.5L363.3,191.5L363.3,191.5z"/>
	<path class="st1" d="M381.1,195.3h-5l-1.2,3.9H373l4.8-14.9h1.6l4.7,14.9h-1.9L381.1,195.3z M376.6,193.7h4l-2-6.5L376.6,193.7z"/>
	<path class="st1" d="M388.6,193.2v6h-1.9v-14.9h4.8c0.7,0,1.3,0.1,1.9,0.3s1.1,0.5,1.6,0.9s0.8,0.8,1.1,1.4s0.4,1.2,0.4,1.9
		s-0.1,1.4-0.4,1.9c-0.3,0.6-0.6,1-1.1,1.4s-1,0.7-1.6,0.9s-1.2,0.3-1.9,0.3L388.6,193.2L388.6,193.2z M388.6,191.6h2.9
		c0.4,0,0.8-0.1,1.2-0.2s0.7-0.3,1-0.6s0.5-0.5,0.6-0.9c0.1-0.4,0.2-0.8,0.2-1.2s-0.1-0.9-0.2-1.2c-0.1-0.4-0.4-0.7-0.6-0.9
		s-0.6-0.4-1-0.6c-0.4-0.1-0.8-0.2-1.2-0.2h-2.9L388.6,191.6L388.6,191.6z"/>
	<path class="st1" d="M408.5,199.2h-1.8v-6.9h-6.1v6.9h-1.8v-14.9h1.8v6.4h6.1v-6.4h1.8V199.2z"/>
	<path class="st1" d="M416.1,191.8l3.4-7.5h2.1l-4.6,9.4l0,5.6h-1.8l0-5.6l-4.6-9.4h2.2L416.1,191.8z"/>
	<path class="st1" d="M444.1,195.3h-5l-1.2,3.9H436l4.8-14.9h1.6l4.7,14.9h-1.9L444.1,195.3z M439.6,193.7h4l-2-6.5L439.6,193.7z"/>
	<path class="st1" d="M458.9,199.2H457l-5.8-11.2l0,11.2h-1.9v-14.9h1.9l5.8,11.1l0-11.1h1.9V199.2z"/>
	<path class="st1" d="M462,199.2v-14.9h3.5c1,0,2,0.2,2.8,0.5c0.8,0.3,1.5,0.8,2.1,1.4c0.6,0.6,1,1.3,1.3,2.2s0.5,1.8,0.5,2.8v1.1
		c0,1-0.2,2-0.5,2.8s-0.7,1.6-1.3,2.2s-1.2,1.1-2.1,1.4s-1.8,0.5-2.8,0.5L462,199.2L462,199.2z M463.9,185.8v11.8h1.5
		c0.8,0,1.5-0.1,2.1-0.4c0.6-0.3,1.1-0.6,1.5-1.1c0.4-0.5,0.7-1,0.9-1.7s0.3-1.4,0.3-2.1v-1.1c0-0.8-0.1-1.5-0.3-2.1
		s-0.5-1.2-0.9-1.7c-0.4-0.5-0.9-0.9-1.5-1.1s-1.3-0.4-2.1-0.4L463.9,185.8L463.9,185.8L463.9,185.8z"/>
	<path class="st1" d="M495.2,195.4c0-0.5-0.1-0.8-0.3-1.2c-0.2-0.3-0.5-0.6-0.8-0.8c-0.3-0.2-0.7-0.4-1.1-0.5
		c-0.4-0.1-0.8-0.3-1.1-0.4c-0.5-0.2-1.1-0.4-1.6-0.6c-0.5-0.2-1-0.5-1.5-0.9s-0.8-0.8-1.1-1.2c-0.3-0.5-0.4-1-0.4-1.7
		c0-0.6,0.1-1.2,0.4-1.7c0.3-0.5,0.6-0.9,1.1-1.3s1-0.6,1.6-0.8s1.2-0.3,1.8-0.3c0.6,0,1.3,0.1,1.9,0.3c0.6,0.2,1.1,0.5,1.6,0.9
		s0.8,0.9,1.1,1.4s0.4,1.2,0.4,1.9h-2c-0.1-0.4-0.2-0.8-0.3-1.2c-0.2-0.4-0.4-0.6-0.6-0.9c-0.3-0.2-0.6-0.4-0.9-0.6
		s-0.8-0.2-1.2-0.2c-0.4,0-0.7,0.1-1.1,0.1c-0.3,0.1-0.6,0.3-0.9,0.5c-0.3,0.2-0.5,0.5-0.6,0.8c-0.2,0.3-0.2,0.6-0.2,1.1
		c0,0.4,0.1,0.8,0.3,1.1s0.5,0.6,0.8,0.8c0.3,0.2,0.7,0.4,1.1,0.5c0.4,0.1,0.7,0.3,1.1,0.4c0.4,0.1,0.7,0.2,1.1,0.4
		c0.4,0.1,0.7,0.3,1.1,0.5c0.4,0.2,0.7,0.4,1,0.6s0.6,0.5,0.8,0.8c0.2,0.3,0.4,0.6,0.5,1c0.1,0.4,0.2,0.8,0.2,1.2
		c0,0.7-0.1,1.2-0.5,1.8s-0.7,0.9-1.1,1.2s-1,0.6-1.6,0.8c-0.6,0.2-1.2,0.2-1.8,0.2c-0.7,0-1.3-0.1-2-0.3c-0.6-0.2-1.2-0.5-1.7-0.9
		c-0.5-0.4-0.9-0.9-1.2-1.4c-0.3-0.6-0.5-1.2-0.5-1.9h1.9c0.1,0.5,0.2,0.9,0.4,1.2s0.4,0.7,0.7,0.9s0.6,0.4,1,0.6
		c0.4,0.1,0.8,0.2,1.3,0.2c0.4,0,0.7-0.1,1.1-0.1s0.7-0.2,1-0.4c0.3-0.2,0.5-0.4,0.7-0.7C495.1,196.2,495.2,195.8,495.2,195.4z"/>
	<path class="st1" d="M509.3,184.3l0,10.1c0,0.7-0.1,1.4-0.4,2s-0.6,1.1-1,1.6c-0.4,0.5-0.9,0.8-1.5,1.1c-0.6,0.3-1.2,0.4-2,0.4
		c-0.7,0-1.4-0.1-2-0.4c-0.6-0.3-1.1-0.6-1.5-1.1c-0.4-0.5-0.8-1-1-1.6c-0.2-0.6-0.4-1.3-0.4-2l0-10.1h1.8l0,10.1
		c0,0.4,0.1,0.9,0.2,1.3s0.3,0.8,0.6,1.1s0.6,0.6,0.9,0.8s0.8,0.3,1.3,0.3s0.9-0.1,1.3-0.3s0.7-0.4,0.9-0.8s0.4-0.7,0.6-1.1
		s0.2-0.8,0.2-1.3l0-10.1L509.3,184.3L509.3,184.3z"/>
	<path class="st1" d="M514.6,184.3l2.4,7.5l2.6-7.5h2.4v14.9h-1.9v-6l0.2-6.2l-2.8,8h-1.1l-2.5-7.8l0.2,6v6h-1.9v-14.9L514.6,184.3
		L514.6,184.3L514.6,184.3z"/>
	<path class="st1" d="M527.2,184.3l2.4,7.5l2.6-7.5h2.4v14.9h-1.9v-6l0.1-6.2l-2.8,8h-1.1l-2.5-7.8l0.2,6v6h-1.8v-14.9L527.2,184.3
		L527.2,184.3L527.2,184.3z"/>
	<path class="st1" d="M544.9,195.3h-5l-1.2,3.9h-1.9l4.8-14.9h1.6l4.7,14.9h-1.9L544.9,195.3z M540.4,193.7h4l-2-6.5L540.4,193.7z"
		/>
	<path class="st1" d="M555.3,193.1h-3v6.1h-1.9v-14.9h4.4c0.7,0,1.3,0.1,2,0.3s1.2,0.5,1.6,0.8c0.5,0.4,0.8,0.8,1.1,1.4
		c0.3,0.6,0.4,1.2,0.4,2c0,0.5-0.1,0.9-0.2,1.3c-0.1,0.4-0.3,0.8-0.6,1.1s-0.5,0.6-0.9,0.9s-0.7,0.5-1.1,0.6l3.2,6.4l0,0.1h-2
		L555.3,193.1z M552.3,191.5h2.5c0.4,0,0.8-0.1,1.2-0.2c0.4-0.1,0.7-0.3,1-0.6s0.5-0.5,0.7-0.9s0.2-0.7,0.2-1.2
		c0-0.5-0.1-0.9-0.2-1.3s-0.4-0.7-0.7-0.9c-0.3-0.2-0.6-0.4-1-0.6c-0.4-0.1-0.8-0.2-1.3-0.2h-2.5L552.3,191.5L552.3,191.5z"/>
	<path class="st1" d="M567.3,191.8l3.4-7.5h2.2l-4.6,9.4l0,5.6h-1.8l0-5.6l-4.7-9.4h2.2L567.3,191.8z"/>
	<path class="st1" d="M597.9,192.6c0,0.5,0,1.1-0.1,1.6c-0.1,0.5-0.2,1.1-0.4,1.6s-0.4,1-0.7,1.4c-0.3,0.4-0.6,0.8-1,1.1
		s-0.8,0.6-1.3,0.8c-0.5,0.2-1,0.3-1.7,0.3s-1.2-0.1-1.7-0.3s-0.9-0.4-1.3-0.8s-0.7-0.7-1-1.1c-0.3-0.4-0.5-0.9-0.7-1.4
		s-0.3-1-0.4-1.6c-0.1-0.5-0.1-1.1-0.1-1.6v-1.7c0-0.5,0-1.1,0.1-1.6c0.1-0.5,0.2-1.1,0.4-1.6c0.2-0.5,0.4-1,0.7-1.4s0.6-0.8,1-1.2
		s0.8-0.6,1.3-0.8s1-0.3,1.7-0.3s1.2,0.1,1.7,0.3s0.9,0.4,1.3,0.8s0.7,0.7,1,1.1c0.3,0.4,0.5,0.9,0.7,1.4s0.3,1,0.4,1.6
		c0.1,0.6,0.1,1.1,0.1,1.6L597.9,192.6L597.9,192.6z M596,190.9c0-0.4,0-0.7-0.1-1.1c0-0.4-0.1-0.8-0.2-1.1
		c-0.1-0.4-0.2-0.7-0.4-1.1c-0.2-0.4-0.4-0.6-0.6-0.9c-0.2-0.3-0.5-0.5-0.9-0.6c-0.3-0.1-0.7-0.2-1.2-0.2s-0.8,0.1-1.2,0.2
		s-0.6,0.4-0.9,0.6c-0.2,0.3-0.5,0.6-0.6,0.9c-0.2,0.4-0.3,0.7-0.4,1.1c-0.1,0.4-0.2,0.8-0.2,1.1s-0.1,0.8-0.1,1.1v1.7
		c0,0.4,0,0.7,0.1,1.1c0,0.4,0.1,0.8,0.2,1.1c0.1,0.4,0.2,0.7,0.4,1.1c0.2,0.4,0.4,0.6,0.6,0.9c0.2,0.3,0.5,0.5,0.9,0.6
		s0.7,0.2,1.2,0.2c0.4,0,0.8-0.1,1.2-0.2s0.6-0.4,0.9-0.6s0.4-0.6,0.6-0.9c0.2-0.4,0.3-0.7,0.4-1.1c0.1-0.4,0.2-0.8,0.2-1.1
		s0.1-0.8,0.1-1.1L596,190.9L596,190.9L596,190.9z"/>
	<path class="st1" d="M609.1,192.6h-6.2v6.6h-1.9v-14.9h9.2v1.6h-7.2v5.1h6.2V192.6z"/>
	<path class="st1" d="M238.7,228.6c0,0.5-0.1,1.1-0.1,1.6c-0.1,0.5-0.2,1.1-0.4,1.6s-0.4,1-0.7,1.4c-0.3,0.4-0.6,0.8-1,1.1
		s-0.8,0.6-1.3,0.8c-0.5,0.2-1.1,0.3-1.7,0.3s-1.2-0.1-1.7-0.3s-0.9-0.4-1.3-0.8s-0.7-0.7-1-1.1c-0.3-0.4-0.5-0.9-0.7-1.4
		s-0.3-1-0.4-1.6c-0.1-0.5-0.1-1.1-0.1-1.6v-1.7c0-0.5,0.1-1.1,0.1-1.6c0.1-0.5,0.2-1.1,0.4-1.6s0.4-1,0.7-1.4s0.6-0.8,1-1.2
		s0.8-0.6,1.3-0.8s1.1-0.3,1.7-0.3s1.2,0.1,1.7,0.3s0.9,0.4,1.3,0.8s0.7,0.7,1,1.1c0.3,0.4,0.5,0.9,0.7,1.4s0.3,1,0.4,1.6
		c0.1,0.6,0.1,1.1,0.1,1.6V228.6L238.7,228.6z M236.8,226.9c0-0.4,0-0.7-0.1-1.1c0-0.4-0.1-0.8-0.2-1.1c-0.1-0.4-0.2-0.7-0.4-1.1
		c-0.2-0.4-0.4-0.6-0.6-0.9s-0.5-0.5-0.9-0.6s-0.7-0.2-1.2-0.2c-0.4,0-0.8,0.1-1.2,0.2s-0.6,0.4-0.9,0.6c-0.2,0.3-0.4,0.6-0.6,0.9
		c-0.2,0.4-0.3,0.7-0.4,1.1c-0.1,0.4-0.2,0.8-0.2,1.1c0,0.4-0.1,0.8-0.1,1.1v1.7c0,0.4,0,0.7,0.1,1.1c0,0.4,0.1,0.8,0.2,1.1
		s0.2,0.7,0.4,1.1c0.2,0.4,0.4,0.6,0.6,0.9c0.2,0.3,0.5,0.5,0.9,0.6s0.7,0.2,1.2,0.2s0.8-0.1,1.2-0.2c0.3-0.2,0.6-0.4,0.9-0.6
		s0.4-0.6,0.6-0.9c0.2-0.4,0.3-0.7,0.4-1.1c0.1-0.4,0.2-0.8,0.2-1.1c0-0.4,0.1-0.8,0.1-1.1L236.8,226.9L236.8,226.9L236.8,226.9z"/>
	<path class="st1" d="M246.1,232.1l3.5-11.9h2l-4.7,14.9h-1.6l-4.7-14.9h2L246.1,232.1z"/>
	<path class="st1" d="M262.4,228.3h-6.2v5.3h7.3v1.6h-9.2v-14.9h9.1v1.6h-7.2v4.8h6.2L262.4,228.3L262.4,228.3z"/>
	<path class="st1" d="M271.8,229.1h-3v6.1h-1.9v-14.9h4.4c0.7,0,1.4,0.1,2,0.3s1.1,0.5,1.6,0.8s0.8,0.8,1.1,1.4
		c0.3,0.6,0.4,1.2,0.4,2c0,0.5-0.1,0.9-0.2,1.3s-0.3,0.8-0.6,1.1s-0.5,0.6-0.9,0.9c-0.3,0.2-0.7,0.5-1.1,0.6l3.2,6.4l0,0.1h-2
		L271.8,229.1z M268.8,227.5h2.5c0.4,0,0.8-0.1,1.2-0.2c0.4-0.1,0.7-0.3,1-0.6s0.5-0.5,0.7-0.9c0.2-0.4,0.2-0.7,0.2-1.2
		c0-0.5-0.1-0.9-0.2-1.3s-0.4-0.7-0.7-0.9c-0.3-0.2-0.6-0.4-1-0.6c-0.4-0.1-0.8-0.2-1.3-0.2h-2.5L268.8,227.5L268.8,227.5z"/>
	<path class="st1" d="M286.5,231.3h-5l-1.2,3.9h-1.9l4.8-14.9h1.6l4.7,14.9h-1.9L286.5,231.3z M282.1,229.7h4l-2-6.5L282.1,229.7z"
		/>
	<path class="st1" d="M294.2,233.6h7.3v1.6h-9.2v-14.9h1.9L294.2,233.6L294.2,233.6z"/>
	<path class="st1" d="M306.8,233.6h7.3v1.6h-9.2v-14.9h1.9L306.8,233.6L306.8,233.6z"/>
	<path class="st1" d="M331.9,220.3l2.4,7.5l2.6-7.5h2.4v14.9h-1.9v-6l0.1-6.2l-2.8,8h-1.1l-2.5-7.8l0.1,6v6h-1.9v-14.9L331.9,220.3
		L331.9,220.3z"/>
	<path class="st1" d="M350.6,228.3h-6.2v5.3h7.3v1.6h-9.2v-14.9h9.1v1.6h-7.2v4.8h6.2L350.6,228.3L350.6,228.3z"/>
	<path class="st1" d="M354.8,235.2v-14.9h3.5c1,0,2,0.2,2.8,0.5c0.8,0.3,1.5,0.8,2.1,1.4c0.6,0.6,1,1.3,1.3,2.2
		c0.3,0.8,0.5,1.8,0.5,2.8v1.1c0,1-0.2,2-0.5,2.8s-0.7,1.6-1.3,2.2s-1.2,1.1-2.1,1.4s-1.8,0.5-2.8,0.5L354.8,235.2L354.8,235.2z
		 M356.8,221.8v11.8h1.5c0.8,0,1.5-0.1,2.1-0.4c0.6-0.3,1.1-0.6,1.5-1.1s0.7-1,0.9-1.7s0.3-1.4,0.3-2.1v-1.1c0-0.8-0.1-1.5-0.3-2.1
		s-0.5-1.2-0.9-1.7c-0.4-0.5-0.9-0.9-1.5-1.1s-1.3-0.4-2.1-0.4L356.8,221.8L356.8,221.8L356.8,221.8z"/>
	<path class="st1" d="M367.6,220.3h9v1.6h-3.6v11.6h3.6v1.6h-9v-1.6h3.5v-11.6h-3.5V220.3z"/>
	<path class="st1" d="M387.4,231.3h-5l-1.2,3.9h-1.9l4.8-14.9h1.6l4.7,14.9h-1.9L387.4,231.3z M382.9,229.7h4l-2-6.5L382.9,229.7z"
		/>
	<path class="st1" d="M414.8,220.3l0,10.1c0,0.7-0.1,1.4-0.4,2s-0.6,1.1-1,1.6c-0.4,0.5-0.9,0.8-1.5,1.1c-0.6,0.3-1.2,0.4-2,0.4
		c-0.7,0-1.4-0.1-2-0.4c-0.6-0.3-1.1-0.6-1.5-1.1c-0.4-0.5-0.8-1-1-1.6c-0.2-0.6-0.4-1.3-0.4-2l0-10.1h1.8l0,10.1
		c0,0.4,0.1,0.9,0.2,1.3s0.3,0.8,0.6,1.1s0.6,0.6,0.9,0.8s0.8,0.3,1.3,0.3s0.9-0.1,1.3-0.3s0.7-0.4,0.9-0.8s0.4-0.7,0.6-1.1
		s0.2-0.8,0.2-1.3l0-10.1L414.8,220.3L414.8,220.3z"/>
	<path class="st1" d="M425.9,231.4c0-0.5-0.1-0.8-0.3-1.2s-0.5-0.6-0.8-0.8c-0.3-0.2-0.7-0.4-1.1-0.5c-0.4-0.1-0.8-0.3-1.1-0.4
		c-0.5-0.2-1.1-0.4-1.6-0.6c-0.5-0.2-1-0.5-1.5-0.9s-0.8-0.8-1.1-1.2c-0.3-0.5-0.4-1-0.4-1.7c0-0.6,0.1-1.2,0.4-1.7s0.7-0.9,1.1-1.3
		c0.5-0.4,1-0.6,1.6-0.8s1.2-0.3,1.8-0.3c0.6,0,1.3,0.1,1.9,0.3c0.6,0.2,1.1,0.5,1.6,0.9s0.8,0.9,1.1,1.4c0.3,0.6,0.4,1.2,0.4,1.9
		h-2c0-0.4-0.2-0.8-0.3-1.2c-0.2-0.4-0.4-0.6-0.6-0.9s-0.6-0.4-0.9-0.6s-0.8-0.2-1.2-0.2c-0.4,0-0.7,0.1-1.1,0.1s-0.6,0.3-0.9,0.5
		s-0.5,0.5-0.6,0.8s-0.2,0.6-0.2,1.1c0,0.4,0.1,0.8,0.3,1.1s0.5,0.6,0.8,0.8s0.7,0.4,1.1,0.5c0.4,0.1,0.7,0.3,1.1,0.4
		c0.4,0.1,0.7,0.2,1.1,0.4c0.4,0.1,0.7,0.3,1.1,0.5c0.4,0.2,0.7,0.4,1,0.6s0.6,0.5,0.8,0.8c0.2,0.3,0.4,0.6,0.5,1
		c0.1,0.4,0.2,0.8,0.2,1.2c0,0.7-0.1,1.2-0.5,1.8s-0.7,0.9-1.1,1.2s-1,0.6-1.6,0.8c-0.6,0.2-1.2,0.2-1.8,0.2c-0.7,0-1.3-0.1-2-0.3
		c-0.6-0.2-1.2-0.5-1.7-0.9c-0.5-0.4-0.9-0.9-1.2-1.4s-0.5-1.2-0.5-1.9h1.9c0.1,0.5,0.2,0.9,0.4,1.2s0.4,0.7,0.7,0.9s0.6,0.4,1,0.6
		c0.4,0.1,0.8,0.2,1.3,0.2c0.4,0,0.7-0.1,1.1-0.1s0.7-0.2,1-0.4c0.3-0.2,0.5-0.4,0.7-0.7C425.8,232.2,425.9,231.8,425.9,231.4z"/>
	<path class="st1" d="M438.9,228.3h-6.2v5.3h7.3v1.6h-9.2v-14.9h9.1v1.6h-7.2v4.8h6.2L438.9,228.3L438.9,228.3z"/>
	<path class="st1" d="M463,231.3h-5l-1.2,3.9h-1.9l4.8-14.9h1.6l4.7,14.9h-1.9L463,231.3z M458.5,229.7h4l-2-6.5L458.5,229.7z"/>
	<path class="st1" d="M477.8,235.2h-1.9l-5.8-11.2l0,11.2h-1.9v-14.9h1.9l5.8,11.1l0-11.1h1.9V235.2z"/>
	<path class="st1" d="M480.9,235.2v-14.9h3.5c1,0,2,0.2,2.8,0.5c0.8,0.3,1.5,0.8,2.1,1.4c0.6,0.6,1,1.3,1.3,2.2
		c0.3,0.8,0.5,1.8,0.5,2.8v1.1c0,1-0.2,2-0.5,2.8s-0.7,1.6-1.3,2.2s-1.2,1.1-2.1,1.4s-1.8,0.5-2.8,0.5L480.9,235.2L480.9,235.2z
		 M482.8,221.8v11.8h1.5c0.8,0,1.5-0.1,2.1-0.4c0.6-0.3,1.1-0.6,1.5-1.1c0.4-0.5,0.7-1,0.9-1.7s0.3-1.4,0.3-2.1v-1.1
		c0-0.8-0.1-1.5-0.3-2.1s-0.5-1.2-0.9-1.7c-0.4-0.5-0.9-0.9-1.5-1.1s-1.3-0.4-2.1-0.4L482.8,221.8L482.8,221.8L482.8,221.8z"/>
	<path class="st1" d="M508.3,229.2v6h-1.9v-14.9h4.8c0.7,0,1.3,0.1,1.9,0.3c0.6,0.2,1.1,0.5,1.6,0.9c0.5,0.4,0.8,0.8,1.1,1.4
		s0.4,1.2,0.4,1.9s-0.1,1.4-0.4,1.9s-0.6,1-1.1,1.4c-0.4,0.4-1,0.7-1.6,0.9c-0.6,0.2-1.2,0.3-1.9,0.3L508.3,229.2L508.3,229.2z
		 M508.3,227.6h2.9c0.4,0,0.8-0.1,1.2-0.2s0.7-0.3,1-0.6s0.5-0.5,0.6-0.9c0.1-0.4,0.2-0.8,0.2-1.2s-0.1-0.9-0.2-1.2
		c-0.1-0.4-0.4-0.7-0.6-0.9s-0.6-0.4-1-0.6c-0.4-0.1-0.8-0.2-1.2-0.2h-2.9V227.6z"/>
	<path class="st1" d="M523.8,229.1h-3v6.1h-1.9v-14.9h4.4c0.7,0,1.4,0.1,2,0.3s1.1,0.5,1.6,0.8c0.5,0.4,0.8,0.8,1.1,1.4
		c0.3,0.6,0.4,1.2,0.4,2c0,0.5-0.1,0.9-0.2,1.3c-0.1,0.4-0.3,0.8-0.6,1.1s-0.5,0.6-0.9,0.9s-0.7,0.5-1.1,0.6l3.2,6.4l0,0.1h-2
		L523.8,229.1z M520.8,227.5h2.5c0.4,0,0.8-0.1,1.2-0.2s0.7-0.3,1-0.6c0.3-0.2,0.5-0.5,0.7-0.9s0.2-0.7,0.2-1.2
		c0-0.5-0.1-0.9-0.2-1.3s-0.4-0.7-0.7-0.9c-0.3-0.2-0.6-0.4-1-0.6c-0.4-0.1-0.8-0.2-1.3-0.2h-2.5L520.8,227.5L520.8,227.5z"/>
	<path class="st1" d="M539.7,228.3h-6.2v5.3h7.3v1.6h-9.2v-14.9h9.1v1.6h-7.2v4.8h6.2L539.7,228.3L539.7,228.3z"/>
	<path class="st1" d="M551.9,231.4c0-0.5-0.1-0.8-0.3-1.2c-0.2-0.3-0.5-0.6-0.8-0.8c-0.3-0.2-0.7-0.4-1.1-0.5
		c-0.4-0.1-0.8-0.3-1.1-0.4c-0.5-0.2-1.1-0.4-1.6-0.6c-0.5-0.2-1-0.5-1.5-0.9s-0.8-0.8-1.1-1.2c-0.3-0.5-0.4-1-0.4-1.7
		c0-0.6,0.1-1.2,0.4-1.7c0.3-0.5,0.7-0.9,1.1-1.3s1-0.6,1.6-0.8s1.2-0.3,1.8-0.3c0.7,0,1.3,0.1,1.9,0.3c0.6,0.2,1.1,0.5,1.6,0.9
		s0.8,0.9,1.1,1.4c0.3,0.6,0.4,1.2,0.4,1.9h-2c-0.1-0.4-0.2-0.8-0.3-1.2s-0.4-0.6-0.6-0.9c-0.3-0.2-0.6-0.4-0.9-0.6
		s-0.8-0.2-1.2-0.2c-0.4,0-0.7,0.1-1.1,0.1c-0.3,0.1-0.7,0.3-0.9,0.5c-0.3,0.2-0.5,0.5-0.7,0.8c-0.2,0.3-0.2,0.6-0.2,1.1
		c0,0.4,0.1,0.8,0.3,1.1s0.5,0.6,0.8,0.8c0.3,0.2,0.7,0.4,1.1,0.5c0.4,0.1,0.7,0.3,1.1,0.4c0.4,0.1,0.7,0.2,1.1,0.4
		c0.4,0.1,0.7,0.3,1.1,0.5s0.7,0.4,1,0.6c0.3,0.2,0.6,0.5,0.8,0.8c0.2,0.3,0.4,0.6,0.5,1c0.1,0.4,0.2,0.8,0.2,1.2
		c0,0.7-0.2,1.2-0.5,1.8s-0.7,0.9-1.2,1.2s-1,0.6-1.6,0.8c-0.6,0.2-1.2,0.2-1.8,0.2c-0.7,0-1.3-0.1-2-0.3c-0.6-0.2-1.2-0.5-1.7-0.9
		c-0.5-0.4-0.9-0.9-1.2-1.4c-0.3-0.6-0.5-1.2-0.5-1.9h1.9c0.1,0.5,0.2,0.9,0.4,1.2s0.4,0.7,0.7,0.9s0.7,0.4,1,0.6
		c0.4,0.1,0.8,0.2,1.3,0.2c0.4,0,0.7-0.1,1.1-0.1c0.4-0.1,0.7-0.2,1-0.4c0.3-0.2,0.5-0.4,0.7-0.7
		C551.8,232.2,551.9,231.8,551.9,231.4z"/>
	<path class="st1" d="M564.9,228.3h-6.2v5.3h7.3v1.6h-9.2v-14.9h9.1v1.6h-7.2v4.8h6.2L564.9,228.3L564.9,228.3z"/>
	<path class="st1" d="M578.6,235.2h-1.9l-5.8-11.2l0,11.2h-1.9v-14.9h1.9l5.8,11.1l0-11.1h1.9V235.2z"/>
	<path class="st1" d="M591.5,230.7c-0.1,0.7-0.3,1.3-0.5,1.9c-0.3,0.6-0.6,1.1-1,1.5c-0.4,0.4-0.9,0.7-1.5,1c-0.6,0.2-1.2,0.3-2,0.3
		c-0.6,0-1.2-0.1-1.7-0.3c-0.5-0.2-1-0.4-1.3-0.7c-0.4-0.3-0.7-0.7-1-1.1s-0.5-0.9-0.7-1.4s-0.3-1-0.4-1.6c-0.1-0.5-0.1-1.1-0.2-1.6
		v-2.1c0-0.6,0.1-1.1,0.2-1.6s0.2-1.1,0.4-1.6s0.4-0.9,0.7-1.4c0.3-0.4,0.6-0.8,1-1.1s0.8-0.6,1.3-0.7s1.1-0.3,1.7-0.3
		c0.8,0,1.4,0.1,2,0.3s1.1,0.6,1.5,1c0.4,0.4,0.8,0.9,1,1.5s0.4,1.2,0.5,1.9h-1.9c-0.1-0.4-0.2-0.9-0.3-1.3s-0.3-0.7-0.6-1
		s-0.6-0.5-0.9-0.7c-0.4-0.2-0.8-0.2-1.3-0.2c-0.5,0-0.8,0.1-1.2,0.2s-0.6,0.4-0.9,0.6s-0.5,0.6-0.6,0.9c-0.2,0.3-0.3,0.7-0.4,1.1
		c-0.1,0.4-0.2,0.8-0.2,1.1s-0.1,0.8-0.1,1.1v2.1c0,0.4,0,0.8,0.1,1.1c0,0.4,0.1,0.8,0.2,1.2s0.2,0.7,0.4,1.1s0.4,0.6,0.6,0.9
		s0.5,0.5,0.9,0.6c0.3,0.1,0.7,0.2,1.2,0.2c0.5,0,0.9-0.1,1.3-0.2s0.7-0.4,0.9-0.7c0.2-0.3,0.5-0.6,0.6-1c0.2-0.4,0.3-0.8,0.3-1.3
		L591.5,230.7L591.5,230.7L591.5,230.7z"/>
	<path class="st1" d="M602.7,228.3h-6.2v5.3h7.3v1.6h-9.2v-14.9h9.1v1.6h-7.2v4.8h6.2L602.7,228.3L602.7,228.3z"/>
</g>
<circle class="st0" cx="835.2" cy="184.1" r="43.1"/>
<circle class="st0" cx="835.2" cy="184.1" r="30.4"/>
<line class="st0" x1="835.1" y1="131.3" x2="835.1" y2="236.8"/>
<line class="st0" x1="887.9" y1="184.1" x2="782.4" y2="184.1"/>
</svg>
