<?xml version="1.0" encoding="utf-8"?>
<!-- Generator: Adobe Illustrator 23.0.1, SVG Export Plug-In . SVG Version: 6.00 Build 0)  -->
<svg version="1.1" id="ishii" xmlns="http://www.w3.org/2000/svg" xmlns:xlink="http://www.w3.org/1999/xlink" x="0px" y="0px"
	 viewBox="0 0 612 792" style="enable-background:new 0 0 612 792;" xml:space="preserve">
<style type="text/css">
	.st0{fill:none;stroke:#2A2D7C;stroke-width:6;stroke-miterlimit:10;}
	.st1{fill:none;stroke:#2A2D7C;stroke-width:4;stroke-miterlimit:10;}
	.st2{opacity:0.8;fill:#00B0C9;enable-background:new    ;}
	.st3{fill:#F2685A;}
	.st4{fill:#C04E42;}
	.st5{fill:#3B121F;}
	.st6{fill:#F7A39C;}
	.st7{opacity:0.17;fill:#FAA51A;enable-background:new    ;}
	.st8{opacity:0.8;fill:none;stroke:#00B0C9;stroke-width:2;stroke-miterlimit:10;enable-background:new    ;}
	.st9{fill:#801337;}
	.st10{opacity:0.7;fill:#F7A39C;enable-background:new    ;}
	.st11{fill:#FAC1BD;}
	.st12{fill:none;}
	.st13{opacity:0.7;fill:#FAC1BD;enable-background:new    ;}
	.st14{fill:#2A2D7C;}
	.st15{fill:none;stroke:#C04E42;stroke-width:2;stroke-linecap:round;stroke-miterlimit:10;}
	.st16{fill:none;stroke:#FFFFFF;stroke-width:5;stroke-miterlimit:10;}
	.st17{fill:none;stroke:#2D307B;stroke-miterlimit:10;}
	.st18{fill:none;stroke:#2A2D7C;stroke-width:3;stroke-miterlimit:10;}
	.st19{fill:none;stroke:#FFFFFF;stroke-width:2;stroke-miterlimit:10;}
	.st20{fill:none;stroke:#FFFFFF;stroke-miterlimit:10;}
	.st21{fill:none;stroke:#2A2D7C;stroke-miterlimit:10;}
</style>
<g>
	<rect x="40.16" y="473.84" class="st0" width="632.09" height="74.59"/>
	<rect x="362.42" y="37.66" class="st1" width="186.27" height="728.83"/>
	<rect x="74.21" y="169.72" class="st2" width="430.79" height="546.54"/>
	<path class="st3" d="M423.56,412.2c-1.36-1.16-3.97-3.39-7.24-3.17c-2.56,0.17-3.94,1.73-6.45,3.62c-4.5,3.39-8.64,4.84-13.24,6.45
		c-4.05,1.42-3.42,0.54-14.04,2.94c-7.77,1.76-10.1,2.68-11.89,3.51c-4.29,2-7.36,3.44-9.06,6.79c-2.45,4.87-0.23,10.28,0.34,11.55
		c2.34,5.23,6.66,7.08,14.15,11.32c17.7,10.01,15.41,12,21.73,13.36c12.09,2.61,27.69-3.08,30.56-12c1.99-6.16-3.66-9.05-1.92-19.47
		c1.08-6.5,3.73-8.12,3-13.81C429.39,422.43,428.52,416.43,423.56,412.2z"/>
	<path class="st4" d="M300.83,384.59c-2.14-1.62-4.73-1.31-5.75,0.06c-0.59,0.79-0.48,1.8-0.26,3.18c0.51,3.2,1.93,4.95,4.53,10.01
		c0.45,0.87,0.8,1.58,0.99,1.97l6.6,3.21l-0.74-11.37L300.83,384.59z"/>
	<path class="st3" d="M297.57,392.95c1.04,3.75,2.5,6.39,2.77,6.87c1.21,2.16,2.2,3.53,4.98,7.31c6.23,8.45,7.21,9.64,7.09,11.85
		c-0.12,2.13-1.16,3.17-0.55,5.43c0.08,0.3,0.76,2.72,2.99,4.1c4.21,2.6,10.7-0.55,10.65-2c0-0.1-0.04-0.14-0.31-0.56
		c-0.68-1.06-0.33-0.64-1.62-2.77c-0.54-0.9-0.97-1.58-1.31-2.1c-0.3-0.48-0.56-0.88-0.82-1.27c-1.03-1.6-1.64-2.5-2.26-3.44
		c-0.52-0.8-1.43-2.18-2.14-3.36c-0.37-0.62-1.71-2.88-3.05-6.05c0,0-0.86-2.03-2.3-6.85c-0.03-0.09-0.28-0.96-0.39-1.86
		c-0.05-0.42-0.06-0.77-0.06-0.85c-0.01-0.45,0.86-0.79,0.86-0.82c0.07-1.2-14.52-10.87-12.97-9.61c0.78,0.63,0.74,1.57,1.2,3.01
		c0.9,2.82,2.1,3.81,3.24,6.1c1.24,2.5,1.84,5.37,1.37,5.6c-0.58,0.28-3-3.51-3.86-4.85c-2.51-3.94-3.66-6.84-3.98-6.72
		C296.8,390.19,297.41,392.38,297.57,392.95z"/>
	<path class="st4" d="M452.71,338.8c-2.35-4.58-3.87-4.86-4.5-4.86c-0.91,0-1.89,0.6-4.66,5.03c-3.33,5.32-4.99,7.98-5.35,10.96
		c-0.32,2.66,0.37,2.92,1.77,9.73c1.95,9.51,1.66,14.32,4.25,15.17c0.94,0.31,1.04-0.3,3.61-0.28c3.29,0.03,4.47,1.05,5.64,0.37
		c1.43-0.83,1.38-3.34,1.39-4.72c0.02-8.57,1.99-6.96,1.76-14.89C456.36,346.5,453.82,340.97,452.71,338.8z"/>
	<path class="st3" d="M448.6,335.73c0.67,0.65,1.34,1.41,1.95,2.31c0.09,0.13,0.17,0.25,0.25,0.38l0.84-1.68l-0.93-1.76l-2.5-1.05
		L448.6,335.73z"/>
	<path class="st3" d="M446.77,388.04c0.69,0.33,2.11,0.89,3.93,0.78c1.74-0.11,2.95-0.77,3.63-1.15c0.93-0.52,3.98-2.23,4.52-5.05
		c0.59-3.08-2.42-4.36-2.39-9.12c0-0.56,0.04-0.29,0.35-3.1c0,0,0.38-3.42,0.62-6.82c0.38-5.33,0.78-10.97-0.8-17.53
		c-1.21-5.03-3.22-9.14-3.61-9.92c-0.28-0.57-0.53-1.04-0.71-1.37l-1.87,3.12c0.07,0.1,0.16,0.23,0.26,0.39c0,0,0.12,0.19,0.24,0.39
		c0.16,0.27,0.99,1.96,1.4,2.86c1.25,2.75,2.02,6.49,2.02,6.49c0.38,2.15,1.23,7.07,0.46,13.33c-0.47,3.8-0.92,3.15-1.66,8.31
		c-0.32,2.21-0.48,4.07-1.11,4.16c-0.53,0.07,0.47-1.17,0.16-2.22c-0.76-2.56,0.61-4.34,1.39-7.21c0,0,1.21-4.45-0.14-9.42
		c-0.87-3.21-1.9-2.88-4.3-7.9c-1.7-3.54-3.8-7.93-2.08-10.25c1.13-1.52,1.08-1.43,1.52-1.09c0.56,0.44-0.05-2.66-1.66-2.38
		c-1.47,0.26-2.58,1.4-4.43,4.71c-2.88,5.14-5.83,10.4-3.74,13.03c0.57,0.72,1.4,1.09,2.08,1.39c2.39,1.05,3.69,0.09,5.4,0.69
		c2.67,0.95,3.56,4.74,3.88,6.1c0.12,0.51,1.36,6.09-1.39,8.45c-0.03,0.02,0.01-0.01-2.91,2.22c-0.76,0.58-1.71,1.32-1.66,2.19
		c0,0.08,0.01,0.1,0.12,0.67c0.05,0.26,0.12,0.67,0.27,1.49c0.52,2.88,0.97,5.64,0.97,5.64c0.33,2.02,0.73,4.57,1.15,7.58
		L446.77,388.04z"/>
	<path class="st3" d="M402.21,283.68c-9.23-2.5-22.78-0.93-22.78-0.93c-5.58,0.65-9.65,1.45-17.79,3.06
		c-6.28,1.24-9.42,1.87-13.32,2.99c-2.3,0.66-8.72,2.59-16.62,6.28c-2.88,1.34-8.14,3.94-14.26,7.89c-5,3.23-10.5,7.32-13.27,9.69
		c-0.87,0.74-1.89,1.68-3.61,2.91c-2.09,1.49-2.71,1.63-3.53,2.51c-1.36,1.44-1.77,3.26-2.02,5.6c-0.57,5.3,0.36,7.06,0.56,13.42
		c0.17,5.49-0.46,6.54,0.57,9.49c0.75,2.14,2.35,5.24,2.5,5.54c1.7,3.27,2.26,3.56,2.46,5.08c0.28,2.1-0.66,2.52-0.99,6.05
		c-0.2,2.16-0.32,3.4,0.14,4.82c0.95,2.99,3.02,2.47,5.25,6.35c0,0,1.47,2.55,1.62,6.48c0.01,0.2,0.02,0.64-0.19,1.14
		c-0.02,0.04-0.21,0.48-0.54,0.78c-0.55,0.51-1.39,0.52-2.23,0.42c-2.02-0.24-2.51-0.98-3.98-1.27c-0.21-0.04-2.79-0.53-4.3,0.8
		c-2.31,2.03-0.71,7.02-0.32,7.01c0.29-0.01-0.19-2.79,1.12-3.51c0.8-0.44,1.85,0.13,6.37,3.35c5.21,3.71,7.16,5.33,8.52,7.53
		c0.19,0.31,0.65,1.08,1.15,1.99c1.2,2.18,1.95,3.85,2.15,4.29c1.01,2.22,3.55,7.09,6.53,11.53c0.86,1.28,4.31,6.41,7.04,9.68
		c0.34,0.4,1.14,1.35,1.91,2.8c0.73,1.37,0.69,1.8,1.49,3.79c0.94,2.34,1.41,3.51,2.44,4.58c1.25,1.32,2.66,1.89,3.24,2.12
		c1.88,0.75,2.79,0.42,4.44,0.83c1.62,0.4,2.73,1.31,4.94,3.14c1.6,1.31,5.15,4.23,6.94,6.82c0.6,0.87,1.22,1.33,2.47,2.27
		c0.3,0.23,0.78,0.56,1.02,0.41c0.2-0.12,0.13-0.5,0.09-1.04c0,0-0.09-1.16,0.05-2.27c0.11-0.89,0.49-1.31,0.96-2.16
		c1.22-2.2,1.4-4.37,1.46-5.04c0.15-1.79-0.14-3.21-0.27-3.73c-0.42-1.8-1.23-3.42-1.23-3.42c-0.33-0.65-0.56-0.99-0.74-1.66
		c-0.1-0.35-0.4-1.43-0.16-2.38c0.3-1.19,1.36-1.87,2.54-2.55c3.18-1.84,5.64-2.79,5.64-2.79c4.84-1.87,4.54-2.03,10.67-4.34
		c2.64-1,3.26-1.18,3.98-1.34c2.62-0.61,5.35-0.7,6.68-0.75c1.66-0.06,1.95,0.02,2.94-0.15c0.57-0.1,2.15-0.41,4.03-1.43
		c1.59-0.86,1.85-1.38,3.6-2.67c0,0,2-1.47,4.51-2.68c2.12-1.02,3.86-1.45,7.25-2.28c1.41-0.34,1.47-0.29,6.97-1.41
		c0,0,0.76-0.15,1.93-0.36c1.53-0.27,2.09-0.34,2.42-0.37c1.11-0.11,1.67-0.17,2.24-0.03c0.97,0.24,1.61,0.8,1.87,1.04
		c0.33,0.3,0.72,0.73,1.42,2.09c0.48,0.94,0.73,1.41,1.09,2.43c0.83,2.34,1.89,4.06,3.03,6.06c0.73,1.28,0.4,0.57,1.76,2.8
		c0,0,0.24,0.39,1.15,1.53c0.38,0.47,0.63,0.76,1.06,0.9c0.11,0.04,0.55,0.18,0.97-0.01c0.45-0.19,0.63-0.64,0.8-1.03
		c0.66-1.57,1-2.35,0.99-2.35c0.43-1.51-0.12,0.76,1.18-3.53c0.97-3.22,1.09-3.86,1.76-5.9c0.92-2.77,1.23-3.18,1.46-3.44
		c0.76-0.87,1.3-0.91,2.93-2.45c1.2-1.14,1.44-1.62,1.55-1.86c0.39-0.88,0.33-1.68,0.18-2.91c-0.35-2.89-0.86-5.13-1.34-7.66
		c-0.19-1.01-0.12-0.7-0.36-1.95c-0.59-3.1-0.88-4.24-1.41-7.09c-0.38-2.07-0.46-2.72-0.51-3.36c-0.12-1.47-0.08-2.61-0.05-3.25
		c0.2-4.07,0.88-6.36,0.96-8.62c0.15-3.93-1.64-3.8-2.89-9.74c-0.43-2.03-1.22-5.99-0.29-10.91c0.73-3.87,2.14-6.27,3.93-9.34
		c1.62-2.76,2.5-3.46,3.44-3.54c1.73-0.14,3.32,1.84,4.13,2.85c1.64,2.05,2,3.91,2.26,3.83c0.28-0.08,0.17-2.26-0.69-4.42
		c-0.39-0.98-1.33-3.26-3.73-4.91c-1.3-0.89-2.79-1.92-4.42-1.57c-2.21,0.47-3.68,3.25-5.4,6.49c-1.04,1.96-1.41,3.15-2.16,3.14
		c-0.95-0.01-1.96-1.92-2.02-3.06c-0.01-0.11-0.02-0.45-0.01-0.86c0.01-0.68,0.07-1.07,0.1-1.42c0.09-1.12-0.08-2.04-0.18-2.52
		c-0.07-0.38-0.19-0.98-0.5-1.73c-0.34-0.82-0.74-1.37-0.82-1.48c-0.12-0.16-0.52-0.7-1.12-1.21c-1-0.84-2.03-1.15-3.88-1.68
		c-1.11-0.32-1.2-0.27-2.14-0.59c-0.71-0.24-1.41-0.47-2.25-0.92c-1.17-0.63-1.97-1.34-2.37-1.73c-0.21-0.2-1.21-1.18-2.08-2.79
		c-0.31-0.57-0.48-0.99-0.82-1.83c-0.14-0.36-0.38-0.97-1.05-3.02c-0.34-1.05-0.51-1.57-0.62-1.93c-0.28-0.94-0.68-2.32-0.97-4.07
		c-0.19-1.14-0.1-1.03-0.36-2.89c-0.13-0.89-0.26-1.79-0.49-2.92c-0.32-1.57-0.66-2.74-0.91-3.59c-0.31-1.06-0.68-2.3-1.33-3.88
		c-0.3-0.74-0.73-1.78-1.42-3.06c-0.54-0.99-1.29-2.36-2.6-3.91c-0.63-0.74-1.61-1.89-3.2-3.01c-1.64-1.16-3.03-1.66-3.44-1.8
		C403.05,283.94,402.64,283.79,402.21,283.68z"/>
	<path class="st5" d="M355.11,366.05c-1.47,1.28-3.63,0.72-5.97,0.39c-5.27-0.76-9.27-0.12-14.84,0.77
		c-3.65,0.59-8.66,1.39-13.49,4.82c-4.64,3.29-6.7,7.29-7.71,6.74c-0.85-0.46-0.07-3.67,0.77-5.78c1.91-4.83,5.54-7.57,6.74-8.48
		c5.01-3.78,7.11-2.24,27.17-5.4c3.16-0.5,6.4-1.05,7.9,0.77C357.02,361.49,356.71,364.65,355.11,366.05z"/>
	<path class="st5" d="M379.31,350.9c1.63-3.26,4.79-2.79,12.18-6.33c7.46-3.57,7.79-5.75,12.65-6.33c2.53-0.3,4.65,0.03,8.9,0.7
		c0.82,0.13,8.49,1.34,8.43,2.34c-0.05,0.82-5.15,0.39-11.95,2.11c-5.24,1.32-8.86,3.26-12.42,5.15
		c-11.01,5.88-14.6,11.29-17.1,9.84C378.25,357.38,378.01,353.5,379.31,350.9z"/>
	<path class="st6" d="M399.22,284.57c-0.77,0.52-6.88,4.66-9.58,7.42c-4.97,5.09-3.7,17.67-0.96,42.62
		c0.19,1.75,0.61,5.21,2.63,5.99c2.67,1.02,4.99-3.84,10.3-5.99c7-2.83,17.4-0.21,22.75,6.94c0.8,1.08,4.26,5.96,3.59,12.45
		c-0.8,7.74-6.9,12.27-11.01,15.32c-2.42,1.8-11.69,8.67-21.79,6.47c-6.64-1.45-10.26-6.09-10.78-5.51
		c-0.67,0.75,4.69,9.15,14.13,14.61c4.56,2.64,9.9,4.39,20.59,7.9c6.47,2.13,9.07,2.72,11.01,5.51c2.56,3.66,2.12,8.4,1.68,13.17
		c-0.78,8.39-3.5,11.03-1.68,13.89c1.9,2.99,7.27,3.85,10.78,2.39c6.27-2.6,6.03-14.43,5.99-23.23c-0.03-6.24-0.94-14.5-1.82-19.91
		c-0.18-1.07-0.61-3.63-1-7.18c-0.52-4.76-0.57-7.75-0.67-9.48c-0.74-12.54-8.2-24.54-7.86-31.18c0.01-0.18,0.07-1.28,0.09-2.78
		c0.04-2.65,0.07-4.95-0.23-6.18c-0.87-3.63-5.98-3.44-9.43-6.41c-5.4-4.64-0.5-11.62-4.31-22.95
		c-3.11-9.23-10.84-17.91-16.77-17.12C403.78,281.51,402.24,282.53,399.22,284.57z"/>
	<path class="st5" d="M443.38,367.98c-0.24,1.39-0.53,3.35-0.75,5.73c-0.14,1.49-0.27,2.91-0.25,4.48c0.03,2.48,0.4,4.12,1,6.97
		c0.73,3.47,1.32,6.97,1.99,10.46c0.84,4.37,1.23,6.59,0,8.21c-0.73,0.97-1.28,0.81-2.49,1.74c-2.21,1.7-2.57,3.93-4.23,9.46
		c-2.32,7.74-3.1,8.38-3.73,8.46c-0.82,0.11-1.68-0.68-3.49-3.49c-5.01-7.79-4.67-11.52-7.72-13.19c-1.27-0.7-3.77-0.23-8.71,0.75
		c-7.25,1.43-10.88,2.14-14.94,4.48c-4.41,2.55-4.89,4.37-8.96,5.48c-2.93,0.79-3.92,0.19-7.47,0.5c-1.52,0.13-3.7,0.45-12.94,4.23
		c-11.96,4.89-12.88,6.23-13.19,7.47c-0.65,2.55,1.46,3.79,2.24,7.97c0.1,0.55,0.16,1.19,0.18,1.98c0.16,5.56-3.11,7.43-2.42,9.97
		c1.17,4.35,12.18,4.09,15.97,3.54c0.71-0.1,1.66-0.29,1.81-0.83c0.28-0.99-2.36-2.23-6.08-4.86c-4.62-3.27-7.39-5.28-7.64-8.19
		c-0.16-1.92,0.84-3.52,1.28-4.2c1.48-2.34,3.8-3.31,5.4-3.98c2.7-1.12,3.36-0.57,5.5-1.76c2.21-1.23,1.8-1.98,3.66-3.12
		c3.53-2.15,8.24-1.41,10.3-1.08c2.09,0.33,2.51,0.71,3.66,0.41c2.02-0.54,2.5-2.2,4.88-3.93c1.19-0.86,1.84-1.01,4.34-2.03
		c0.57-0.23,3.77-1.74,10.17-4.74c5.99-2.82,6.91-3.31,8.27-2.85c1.23,0.42,2.26,2.04,4.34,5.29c2.11,3.3,3.17,5,3.52,7.32
		c0.32,2.11-0.02,3.8-0.41,5.42c-1.77,7.47-2.65,11.21-5.42,16.13c-2.55,4.54-5.01,8.92-10.3,12.34c-1.8,1.16-6.04,3.58-11.93,4.07
		c-2.28,0.19-9.08,0.75-14.78-3.12c-1.62-1.1-2.02-1.79-3.25-1.9c-4.66-0.4-11.07,8.51-8.95,13.29c0.29,0.66,1,1.79,8.68,4.74
		c5.5,2.11,8.24,3.17,10.57,3.52c3.79,0.58,8.95-0.69,19.11-3.25c8.23-2.08,10.23-2.94,12.34-4.47c0.88-0.64,3.19-2.42,6.64-7.59
		c5.13-7.7,4.48-10.44,9.49-19.93c3.67-6.95,4.86-7.05,6.78-12.34c1.79-4.93,2.33-9.14,2.71-12.34c0.79-6.57,0.53-11.78,0.27-15.45
		C447.42,389.31,444.72,374.77,443.38,367.98z"/>
	<path class="st5" d="M311.34,397.05c-0.53,0.21,0.7,5.19,2.64,9.89c2.31,5.61,4.59,8.3,8.41,14.34c4.64,7.33,4.22,8.01,7.58,13.35
		c5.33,8.46,10.89,13.92,14.34,17.31c13.86,13.61,29.88,21,37.74,24.21c0.52-0.44,0.74-0.86,0.82-1.22
		c0.52-2.38-6.68-3.54-7.13-6.66c-0.52-3.64,8.29-7.13,7.42-9.48c-0.2-0.55-0.7-0.39-2.17-1.23c-2.74-1.56-3.11-3.31-5.89-5.86
		c-0.76-0.7-1.94-1.68-3.59-2.66c-5.73,2.53-8.77,2.02-10.51,0.93c-1.16-0.73-2.91-2.44-3.45-2.03c-0.12,0.09-0.13,0.25-0.13,1.3
		c0,1.86,0.03,2.06-0.09,2.15c-0.55,0.4-3.16-2.34-4.53-3.73c-5.1-5.18-7.65-7.78-10.83-8.9c-3.02-1.07-3.93-0.16-6.09-1.58
		c-2.85-1.87-3.72-5.04-4.29-6.77c-2.07-6.29-3.88-4.96-11.51-17.61C314.21,403.1,311.95,396.81,311.34,397.05z"/>
	<path class="st5" d="M390.46,447.34c0.26-0.9,1.74-1.5,4.7-2.66c3.92-1.54,4.58-1.28,8.46-2.66c3.42-1.22,4.5-1.98,5.17-1.41
		c0.24,0.2,0.69,0.8-0.78,5.64c-1.36,4.44-2.06,6.68-3.6,7.68c-2.34,1.52-5.22,0.78-6.42,0.47
		C393.81,453.32,389.81,449.63,390.46,447.34z"/>
	<path class="st5" d="M399,282.95c-9.71-1.79-17.85-0.5-20.87,0c-20.54,3.43-30.81,5.15-43.26,10.62c0,0-11.47,5.05-23.21,13.18
		c-8.19,5.67-7.82,7-12.15,9.43c-0.65,0.37-2.25,1.23-3.36,3.04c-1.32,2.17-1.18,4.47-1.12,5.59c1.11,19.13-0.09,20.77,2.56,25.57
		c1.73,3.13,3.55,4.81,3.68,8.31c0.13,3.72-1.84,4.16-1.6,7.19c0.41,5.22,6.41,6.17,7.35,12.47c0.29,1.95,0.08,4.29-0.64,4.47
		c-0.93,0.24-2.51-3.26-3.68-5.59c-3.72-7.44-6.6-9.61-10.55-15.5c-5.15-7.69-4.07-9.69-11.67-27.65
		c-7.74-18.3-9.27-17.16-9.59-22.69c-0.57-9.7,3.54-23.07,12.15-29.73c3.65-2.82,9.36-5.4,12.31-10.71c0.6-1.09,1.57-3.14,3.84-4.63
		c2.4-1.58,3.64-0.8,5.59-2.4c2.39-1.96,1.72-4.09,3.84-5.27c1.91-1.06,2.99,0.37,5.43,0c5.48-0.84,6.15-8.99,11.03-9.43
		c2.58-0.24,3.57,1.94,6.07,1.12c1.93-0.64,1.96-2.14,4.31-3.84c1.47-1.07,2.47-1.2,6.39-2.24c8.12-2.14,7.08-2.39,9.11-2.56
		c4.52-0.37,4.57,1.3,10.39,1.28c4.67-0.02,5.43-1.09,7.99-0.16c3.23,1.18,3.64,3.49,6.23,3.68c2.47,0.17,2.79-1.86,5.75-2.72
		c3.44-0.99,7.03,0.67,14.22,4c2.98,1.38,4.32,2.26,6.71,2.24c2.29-0.02,3.79-0.86,4.63,0c1.13,1.14-0.62,3.51,0.64,4.79
		c0.6,0.61,1.62,0.67,3.68,0.8c1.15,0.07,1.87,0.01,2.24,0c3.58-0.05,8.73,5.27,9.43,10.87c0.21,1.67-0.09,2.5,0.64,3.84
		c1.19,2.19,3.14,2.08,4.16,4c0.31,0.59,0.43,1.18-0.16,5.43c-0.82,5.92-1.4,7.21-0.48,8.79c0.89,1.54,1.86,1.04,2.88,2.72
		c1.22,2.01,0.44,3.71,0.64,7.03c0.11,1.76,0.42,2.74,1.44,6.23c3.12,10.68,4.68,16.02,4.95,18.54c0.84,7.66-1.04,13.77-1.44,13.74
		c-0.34-0.02,1.02-4.39-1.28-7.83c-2.8-4.2-7.73-2.05-12.15-6.55c-1.98-2.02-2.7-4.27-4.16-8.79c-1.76-5.48-1.02-6.59-2.24-11.51
		c-0.88-3.58-3.36-13.61-11.19-17.58C403.97,284.26,402.63,283.62,399,282.95z"/>
	<path class="st7" d="M313.46,388.05c0.04-0.62,0.23-3.16,1.84-5.9c0.76-1.29,2.33-3.48,7.69-6.45c2.42-1.34,6.35-3.48,12.28-4.8
		c9.92-2.22,17.36-0.35,18.89,0.06c5.47,1.46,7.37,3.4,7.89,3.97c2.4,2.61,2.92,5.67,3.43,8.62c1.06,6.22-0.33,11.16-0.63,12.17
		c-0.68,2.32-2.79,9.1-9.5,13.65c-4.75,3.22-9.43,3.7-11.86,3.93c-2.2,0.2-9.74,0.77-17.23-4c-5.85-3.73-8.31-8.58-10.68-13.25
		C313.84,392.63,313.32,390.35,313.46,388.05z"/>
	<path class="st7" d="M432.82,351.67c-0.34-0.51-1.78-2.6-4.54-4.14c-1.3-0.72-3.76-1.81-9.88-1.66c-2.77,0.07-7.24,0.22-13.03,2.07
		c-9.7,3.1-15.2,8.46-16.32,9.58c-4,4.01-4.67,6.63-4.84,7.39c-0.77,3.45,0.31,6.34,1.35,9.13c2.2,5.88,5.88,9.42,6.64,10.13
		c1.76,1.65,6.98,6.41,15.06,6.93c5.73,0.37,10.02-1.58,12.23-2.61c2.01-0.94,8.82-4.25,12.91-12.13
		c3.19-6.15,2.89-11.56,2.61-16.77C434.79,355.8,434.09,353.58,432.82,351.67z"/>
	<path class="st8" d="M432.85,352.07c-0.34-0.51-1.79-2.61-4.56-4.17c-1.3-0.73-3.77-1.83-9.89-1.7c-2.77,0.06-7.24,0.2-13.03,2.04
		c-9.69,3.08-15.17,8.45-16.29,9.57c-3.99,4.02-4.65,6.64-4.82,7.4c-0.76,3.47,0.33,6.37,1.38,9.17c2.22,5.91,5.91,9.48,6.67,10.2
		c1.76,1.66,7,6.46,15.08,7c5.73,0.39,10.02-1.55,12.22-2.58c2-0.94,8.8-4.24,12.87-12.13c3.17-6.17,2.86-11.6,2.55-16.82
		C434.83,356.22,434.13,353.99,432.85,352.07z"/>
	<path class="st8" d="M361.56,373.91c1.04-1.39,4.47-5.61,10.69-7.35c5.51-1.54,10.08-0.26,11.8,0.31"/>
	<path class="st4" d="M368.89,436.39c1.15,1.01,2.97,2.42,5.45,3.64c10.02,4.94,20.42,1.62,24.08,0.18
		c2.16-0.85,6.94-2.79,11.17-7.45c3.56-3.91,5.22-8.08,5.91-9.86c0.65-1.66,1.06-3.1,1.32-4.16h-1.5l-8.57,3.81l-28.09,10.95
		L368.89,436.39z"/>
	<path class="st9" d="M418.82,416.59c-2.68,0.57-5.82,1.27-9.31,2.11c-5.39,1.29-9.48,2.4-11.77,4.39
		c-0.06,0.05-1.07,0.94-2.46,2.11c-1.54,1.3-2.31,1.95-2.64,2.11c-1.31,0.64-1.94,0.25-5.45,0.35c-2.04,0.06-3.07,0.09-4.04,0.35
		c-1.97,0.53-2.35,1.34-4.74,2.81c-2.21,1.36-2.61,1.12-7.03,3.16c-1.89,0.88-3.54,1.72-4.92,2.46c1.92,0.09,3.41-0.14,4.42-0.37
		c1.01-0.23,1.45-0.44,2.43-0.61c1.88-0.33,3.35-0.08,3.94,0c3.7,0.49,9.34-0.25,12.69-1.04c2.98-0.71,4.99-1.65,7.69-2.93
		c5.95-2.81,9-4.05,10.98-6.77c0.71-0.97,1.31-2.09,2.8-3.11c1.49-1.01,2.52-1.01,4.3-2.1c1.33-0.81,2.26-1.73,2.84-2.38
		L418.82,416.59z"/>
	<path class="st10" d="M381.92,378.55c-0.97-1.38-1.38-3.22-3.69-3.97c-1.88-0.61-3.55-0.2-4.22,0c-2.55,0.78-4.26,2.87-4.88,4.88
		c-0.45,1.46-0.21,2.52,0,4.19c0.49,3.93,1.25,7.93,0.84,10.57c-0.61,3.92-0.83,3.79-3.17,9.44c-1.51,3.64-2.22,5.78-1.22,7.55
		c1.38,2.45,4.78,3.75,7.36,3.21c1.68-0.35,1.63-1.2,3.59-1.7c2.06-0.53,2.77,0.24,6.42,0.57c3.24,0.29,4.94,0.44,6.61-0.57
		c1.69-1.02,2.8-2.89,3.21-3.59c0.98-1.66,0.61-1.94,1.32-2.64c1.66-1.66,3.88-0.33,5.85-1.89c1.17-0.92,1.51-2.27,1.7-3.02
		c1.02-4.01-3.02-7.45-3.3-7.74c-1.88-1.97-3.03-1.38-5.85-3.02C389.25,388.94,386.81,385.48,381.92,378.55z"/>
	<path class="st11" d="M375.89,288.47c-1.13,2.22,2.69,4.41,4.65,10.56c1.94,6.11,0.61,11.66-0.84,17.74
		c-2.52,10.53-6.66,14.98-5.07,16.47c2.22,2.07,11.83-4.99,13.09-5.91c5.72-4.2,9.45-6.94,11.4-11.83
		c3.87-9.7-1.15-23.2-10.14-27.45C384,285.69,377.2,285.89,375.89,288.47z"/>
	<path class="st11" d="M376.52,380.05c-1.17,1.08,1.84,4.59,4.65,12.39c3.08,8.54,2.82,13.62,5.58,14.25
		c1.55,0.35,3.2-0.89,4.03-1.86c3.99-4.65,0.18-15.99-6.81-21.68C381.49,381.14,377.63,379.02,376.52,380.05z"/>
	<ellipse class="st11" cx="386.93" cy="399.52" rx="2.39" ry="2.48"/>
	<path class="st12" d="M394.42,282.31"/>
	<path class="st3" d="M446.78,337.33c0.05-0.1,0.61-1.24,1.52-1.26c0.16,0,0.58,0.02,1.36,0.79c0.82,0.81,1.23,1.64,1.52,2.24
		c0.93,1.94,1.39,2.91,1.59,3.42c0.32,0.83,0.8,2.19,1.26,4.03c0.43,1.74,1.09,4.52,1.09,8.21c0,0.48-0.19,2.29-0.58,5.9
		c-0.11,1.05-0.23,2.07-0.82,3.23c-0.52,1.02-1.03,1.44-1.55,2.08c-1.66,2.04-2.79,5.67-1.44,7.19c0.77,0.86,2.53,1.24,3.44,0.54
		c1.52-1.18-0.69-4.33,0.95-8.75c0.55-1.49,0.81-1.15,1.37-2.63c0.73-1.95,0.73-3.75-0.1-9.21c-0.53-3.55-0.8-5.33-1.22-7.02
		c-1.25-5.05-2.63-7.35-3.49-8.58c-1.02-1.47-2.32-3.28-3.72-3.05c-1.06,0.18-1.69,1.43-1.96,2.05L446.78,337.33z"/>
	<path class="st13" d="M391.25,435.72c1.55-0.22,3.29-0.59,5.13-1.21c5.47-1.83,9.28-4.93,11.55-7.17
		c-0.24,0.53-0.61,1.25-1.13,2.04c-0.61,0.92-2.27,3.37-5.51,5.06c-3.17,1.65-6.13,1.66-7.47,1.59L391.25,435.72z"/>
	<path class="st3" d="M345.16,452.77c0.28,0.51,0.68,1.43,0.52,2.5c-0.12,0.78-0.49,1.38-0.84,1.83c-2.4,3.02-9.71,6.39-9.56,8.71
		c0.06,0.88,1.18,1.36,3.23,2.39c0,0,3.7,1.85,10.68,6.18c4.05,2.51,4.13,4.15,8.57,8.43c1.47,1.42,10.08,9.54,22.49,12.93
		c2.46,0.67,1.55,0.2,12.65,1.69c12.55,1.68,13.85,2.31,22.91,3.37c11.96,1.41,16.77,1.15,21.5,0.14
		c8.74-1.87,10.82-4.96,11.53-6.32c0.29-0.56,0.58-1.3,0.84-7.87c0.28-7.09,0.4-10.67-0.56-12.09c-1.88-2.77-4.84-2.92-5.9-6.32
		c-0.38-1.22-0.31-2.2-0.28-2.95c0.3-6.74-1.27-8.57-1.41-17.29c-0.04-2.37,0.02-5.81,0.51-10.01c-0.11,0.17-0.27,0.41-0.45,0.7
		c-0.34,0.54-1.2,1.91-2.22,3.74c-0.89,1.6-1.59,3-2.11,4.08c-0.88,1.84-1.47,3.26-1.99,4.5c-1.14,2.75-0.97,2.63-1.77,4.51
		c-1.47,3.47-2.87,5.83-3.17,6.32c-0.3,0.49-1.22,2.02-2.61,3.89c-1.06,1.42-1.85,2.48-3.14,3.74c-0.79,0.77-1.69,1.64-3.1,2.48
		c-1.01,0.61-1.85,0.94-2.75,1.3c-0.96,0.38-1.79,0.65-3.72,1.19c-1.23,0.34-2.45,0.67-4.54,1.21c-2.41,0.62-4.25,1.07-5.44,1.36
		c-1.58,0.39-2.4,0.58-3.57,0.85c-2.97,0.67-4.21,0.85-4.6,0.91c-1.33,0.19-2.05,0.31-3.09,0.33c-0.73,0.02-1.99,0-3.5-0.27
		c-1.23-0.22-2.38-0.62-4.63-1.43c-1.19-0.43-2.07-0.76-3.78-1.42c-2.46-0.95-3.69-1.42-4.56-1.82c-0.72-0.32-1.04-0.49-4.33-2.22
		c-3.11-1.63-4.67-2.45-5.09-2.69c-0.74-0.41-2.75-1.53-5.25-3.1c-3.76-2.35-6.52-4.38-7.45-5.07c-2.41-1.79-5.29-4.08-8.41-6.91
		L345.16,452.77z"/>
	<path class="st14" d="M342.77,459.05c0.03,0.05-0.63,0.52-1.95,1.45c0,0-1.66,1.09-3.17,2.3c0,0-0.64,0.47-1.33,1.15
		c-0.17,0.16-0.3,0.31-0.33,0.35c-0.11,0.12-0.22,0.25-0.34,0.43c-0.1,0.15-0.19,0.29-0.26,0.49c-0.05,0.12-0.09,0.25-0.1,0.44
		c-0.01,0.21,0.04,0.36,0.05,0.4c0.07,0.23,0.2,0.38,0.3,0.47c0.4,0.4,0.95,0.69,1.42,0.93c0.4,0.2,0.67,0.34,0.91,0.46
		c0,0,0.54,0.27,1.3,0.67c0.86,0.44,1.61,0.87,2.3,1.26c3.68,2.1,3.73,2.25,6.7,3.96c0.61,0.35,1.48,0.84,2.53,1.67
		c0.78,0.62,1.35,1.16,1.56,1.38c0.37,0.36,0.52,0.55,1.63,1.84c0.98,1.14,1.47,1.71,1.74,2.01c0.78,0.87,1.42,1.49,1.8,1.86
		c1.53,1.5,2.81,2.53,3.56,3.14c0.57,0.46,1.97,1.57,3.88,2.86c1.57,1.06,2.83,1.8,3.39,2.13c2.93,1.69,5.33,2.71,6.05,3.02
		c2.81,1.18,4.33,1.81,6.59,2.22c0.51,0.09,0.6,0.09,5.91,0.74c0.87,0.11,1.74,0.21,2.61,0.32c4.34,0.53,9.12,1.25,11.33,1.58
		c9.16,1.39,7.71,1.27,11.67,1.82c6.18,0.86,10,1.18,13.59,1.32c3.48,0.14,5.3,0.05,6.82-0.09c0.65-0.06,4.15-0.41,8.21-1.69
		c0.75-0.24,1.85-0.61,3.16-1.28c1.06-0.54,2.14-1.11,3.21-2.23c0.5-0.53,1.06-1.11,1.45-2.05c0.2-0.49,0.31-0.97,0.47-2.9
		c0.15-1.8,0.17-2.63,0.17-2.63c0.08-2.9,0.17-6.41,0.29-8.75c0,0,0.07-1.34-0.18-3.64c-0.02-0.14-0.05-0.41-0.14-0.74
		c-0.05-0.18-0.26-0.87-0.91-1.68c-0.36-0.45-0.69-0.72-1.13-1.08c-0.72-0.59-0.99-0.68-2.07-1.53c-0.33-0.26-0.51-0.41-0.7-0.6
		c-0.2-0.19-0.56-0.55-0.9-1.1c-0.5-0.79-0.68-1.52-0.76-1.86c-0.11-0.45-0.14-0.81-0.16-1.02c-0.05-0.54-0.02-0.9,0-1.39
		c0,0,0.03-0.73,0.04-1.92c0-0.24,0-1.1-0.09-2.24c-0.04-0.47-0.08-0.87-0.11-1.18c0.11,0,0.28,0,0.48,0
		c3.42-0.04,4.15-0.15,5.03-0.08c1.14,0.09,2.86,0.28,3.88,1.49c0.28,0.33,0.65,0.92,0.85,4.62c0.18,3.29-0.05,4,0.57,4.89
		c0.8,1.14,2.13,1.36,3.63,1.71c2.85,0.67,5.45,2.16,8.25,3c6.99,2.1,7.71,3.8,17.01,6.92c3.53,1.19,13.18,4.43,17.08,3.53
		c0.28-0.06,1.31-0.33,2.43,0.07c1.69,0.61,2.48,2.37,2.72,2.87c1.55,3.17,5.34,4.8,9.35,7.52c6.51,4.41,11.25,10.08,12.82,11.95
		c7.21,8.61,10.1,17.66,10.91,20.44c1.96,6.7,1.05,8.43,3.98,17.84c1.67,5.35,3.4,9.4,3.98,10.74c2.98,6.84,3.77,6.6,6.06,11.95
		c1.73,4.05,0.73,2.89,5.02,17.84c1.44,5.02,1.93,6.46,1.39,8.66c-0.78,3.13-2.76,4.24-3.98,8.84c-0.17,0.63-0.67,2.63-0.69,4.85
		c-0.06,4.72,2.07,7.32,3.98,11.61c2.2,4.91,2.74,9.05,3.81,17.32c0.84,6.47,0.21,6.79,0.87,11.26c0.22,1.51,1.56,10.11,6.76,18.54
		c8.13,13.18,19.45,15.82,18.88,23.56c-0.12,1.59-0.83,4.58,0.87,7.28c1.06,1.69,2.26,1.97,3.98,3.64c2.21,2.14,3.06,4.42,4.16,7.28
		c2.28,5.96,3.42,9.93,3.78,12.45H232.26c-0.16-0.57-0.39-1.13-0.71-1.76c-1.68-3.3-3.74-4.23-5.17-8.12
		c-1.34-3.65-0.43-5.3-0.74-9.22c-0.51-6.44-3.4-7.56-9.96-21.77c-3.02-6.54-3.24-8.11-3.32-9.22c-0.42-6.27,2.97-10,4.8-14.39
		c3.69-8.84-1.21-14.97-3.32-27.3c-2.96-17.3,2.1-31.9,6.27-43.9c4.37-12.59,9.88-21.23,14.76-28.78
		c1.69-2.61,7.51-11.46,24.35-29.88c13.97-15.28,20.84-23.03,30.99-31.36c11.96-9.81,28.69-21.2,33.66-23.75
		c0.33-0.17,1.33-0.67,2.52-1.56c3.44-2.57,3.88-4.98,6-7.45C336.32,459.74,342.63,458.77,342.77,459.05z"/>
	<path class="st8" d="M313.32,389.71c0.01-0.62,0.09-3.17,1.56-5.98c0.7-1.32,2.17-3.58,7.38-6.79c2.36-1.45,6.19-3.77,12.05-5.36
		c9.81-2.67,17.33-1.14,18.87-0.81c5.53,1.21,7.51,3.05,8.07,3.6c2.52,2.5,3.18,5.53,3.82,8.45c1.34,6.17,0.18,11.17-0.07,12.18
		c-0.58,2.35-2.37,9.22-8.86,14.07c-4.6,3.44-9.25,4.13-11.67,4.46c-2.19,0.3-9.69,1.22-17.39-3.21
		c-6.01-3.46-8.69-8.19-11.28-12.74C313.91,394.27,313.29,392.01,313.32,389.71z"/>
</g>
<path class="st15" d="M357.38,412.35c-2.42,4.83-1.61,2.27-6.23,12.46c-0.78,1.72-1.86,4.08-1.8,7.22c0.04,2.5,0.78,3.76,1,4.11
	c1.3,2.08,3.46,2.8,4.21,3.01"/>
<rect x="454.09" y="94.82" class="st16" width="34.27" height="224.32"/>
<rect x="-12.25" y="590.19" class="st17" width="318.25" height="170.82"/>
<rect x="-88.12" y="204.68" class="st18" width="517.24" height="12.67"/>
<rect x="200.27" y="136.18" class="st19" width="51.55" height="559.98"/>
<line class="st20" x1="-26.01" y1="361.09" x2="270.86" y2="361.09"/>
<line class="st20" x1="-26.01" y1="367.98" x2="270.86" y2="367.98"/>
<line class="st20" x1="480.22" y1="149.76" x2="480.22" y2="363.9"/>
<line class="st20" x1="112.93" y1="534.38" x2="112.93" y2="735.39"/>
<line class="st20" x1="117.1" y1="479.23" x2="117.1" y2="741.65"/>
<line class="st20" x1="306" y1="440.58" x2="306" y2="592.49"/>
<line class="st20" x1="297.79" y1="440.58" x2="297.79" y2="551.95"/>
<line class="st20" x1="456.64" y1="594.42" x2="590.25" y2="594.42"/>
<line class="st20" x1="419.15" y1="598.29" x2="590.25" y2="598.29"/>
<circle class="st20" cx="480.36" cy="373.29" r="2.47"/>
<circle class="st20" cx="281.54" cy="361.09" r="3.02"/>
<circle class="st20" cx="281.54" cy="367.98" r="3.02"/>
<circle class="st20" cx="306" cy="601.48" r="3.68"/>
<circle class="st20" cx="297.79" cy="560.4" r="3.37"/>
<line class="st21" x1="19.45" y1="194" x2="206.33" y2="194"/>
<line class="st21" x1="89.75" y1="39" x2="89.75" y2="230.51"/>
<line class="st21" x1="559.23" y1="338.14" x2="559.23" y2="526.16"/>
<circle class="st21" cx="559.23" cy="325.46" r="6.55"/>
<line class="st21" x1="523.45" y1="454.84" x2="671.32" y2="454.84"/>
<rect x="796.99" y="454.84" class="st14" width="55.19" height="146.64"/>
<path class="st15" d="M406.45,393.89c3.2,1.15,5.82,1.9,7.56,2.35c5.06,1.32,7.52,1.47,10.53,3.61c2.32,1.65,3.03,3.1,3.31,4.21
	c0.29,1.18,0.15,2.23,0,2.91"/>
</svg>
